<?xml version="1.0" encoding="UTF-8"?>
<svg width="15px" height="20px" viewBox="0 0 15 20" version="1.1" xmlns="http://www.w3.org/2000/svg" xmlns:xlink="http://www.w3.org/1999/xlink">
    <!-- Generator: Sketch 51.3 (57544) - http://www.bohemiancoding.com/sketch -->
    <title>noun_1515311_cc</title>
    <desc>Created with Sketch.</desc>
    <defs></defs>
    <g id="Page-1" stroke="none" stroke-width="1" fill="none" fill-rule="evenodd">
        <g id="services-page---to" transform="translate(-575.000000, -551.000000)" fill="#000000" fill-rule="nonzero">
            <g id="noun_1515311_cc" transform="translate(575.000000, 551.000000)">
                <path d="M7.5,20 C7.96023729,20 8.33333333,19.626904 8.33333333,19.1666667 L8.33333333,13.3333333 L14.1666667,13.3333333 C14.626904,13.3333333 15,12.9602373 15,12.5 L15,10.8333333 C15.0004042,8.85304742 13.6069427,7.14605715 11.6666667,6.75 L11.6666667,1.66666667 L13.3333333,1.66666667 C13.7935706,1.66666667 14.1666667,1.29357062 14.1666667,0.833333333 C14.1666667,0.373096042 13.7935706,0 13.3333333,0 L1.66666667,0 C1.20642938,0 0.833333333,0.373096042 0.833333333,0.833333333 C0.833333333,1.29357062 1.20642938,1.66666667 1.66666667,1.66666667 L3.33333333,1.66666667 L3.33333333,6.83333333 C1.37480826,7.35157923 0.00797687436,9.11991734 0,11.1458333 L0,12.5 C1.48029737e-15,12.9602373 0.373096042,13.3333333 0.833333333,13.3333333 L6.66666667,13.3333333 L6.66666667,19.1666667 C6.66666667,19.626904 7.03976271,20 7.5,20 Z M10,1.66666667 L10,6.66666667 L5,6.66666667 L5,1.66666667 L10,1.66666667 Z M1.66666667,11.1458333 C1.66896135,9.59348396 2.92681729,8.33562801 4.47916667,8.33333333 L10.8333333,8.33333333 C12.2140452,8.33333333 13.3333333,9.45262146 13.3333333,10.8333333 L13.3333333,11.6666667 L1.66666667,11.6666667 L1.66666667,11.1458333 Z" id="Shape"></path>
            </g>
        </g>
    </g>
</svg>