<?xml version="1.0" encoding="UTF-8"?>
<svg width="144px" height="40px" viewBox="0 0 144 40" version="1.1" xmlns="http://www.w3.org/2000/svg" xmlns:xlink="http://www.w3.org/1999/xlink">
    <!-- Generator: Sketch 51.3 (57544) - http://www.bohemiancoding.com/sketch -->
    <title>1</title>
    <desc>Created with Sketch.</desc>
    <defs></defs>
    <g id="Page-1" stroke="none" stroke-width="1" fill="none" fill-rule="evenodd">
        <g id="1">
            <g id="Group-4" transform="translate(62.000000, 0.000000)" fill="#DEE7F0" fill-rule="nonzero">
                <polygon id="Rectangle-7" points="0 0 17.2941176 0 42 40 24.7058824 40"></polygon>
                <polygon id="Rectangle-7" points="0.357184104 0 17.5813953 0 17.2242112 24.3902439 0 24.3902439"></polygon>
            </g>
            <path d="M84.661,12.977 C84.7270003,13.0283336 84.8094995,13.083333 84.9085,13.142 C85.0075005,13.200667 85.1229993,13.2556664 85.255,13.307 C85.3870007,13.3583336 85.5299992,13.4004998 85.684,13.4335 C85.8380008,13.4665002 85.9993325,13.483 86.168,13.483 C86.5200018,13.483 86.8151655,13.4225006 87.0535,13.3015 C87.2918345,13.1804994 87.4843326,13.015501 87.631,12.8065 C87.7776674,12.597499 87.8839997,12.3518347 87.95,12.0695 C88.0160003,11.7871653 88.049,11.4883349 88.049,11.173 C88.049,10.4249963 87.8620019,9.85116866 87.488,9.4515 C87.1139981,9.05183134 86.6190031,8.852 86.003,8.852 C85.6509982,8.852 85.3668344,8.86849983 85.1505,8.9015 C84.9341656,8.93450016 84.7710005,8.96933315 84.661,9.006 L84.661,12.977 Z M84.661,16.035 L83.946,16.035 L83.946,8.511 C84.1586677,8.4376663 84.4299984,8.36800033 84.76,8.302 C85.0900016,8.23599967 85.5079975,8.203 86.014,8.203 C86.4320021,8.203 86.8114983,8.27083266 87.1525,8.4065 C87.4935017,8.54216735 87.7868321,8.73833205 88.0325,8.995 C88.2781679,9.25166795 88.4688327,9.5633315 88.6045,9.93 C88.7401673,10.2966685 88.808,10.7109977 88.808,11.173 C88.808,11.6056688 88.7511672,12.0034982 88.6375,12.3665 C88.5238328,12.7295018 88.3570011,13.0411654 88.137,13.3015 C87.9169989,13.5618346 87.6475016,13.7653326 87.3285,13.912 C87.0094984,14.0586674 86.6446687,14.132 86.234,14.132 C85.8599981,14.132 85.5355014,14.0788339 85.2605,13.9725 C84.9854986,13.8661661 84.7856673,13.7653338 84.661,13.67 L84.661,16.035 Z M94.231,9.226 C94.0109989,9.49000132 93.7561681,9.82366465 93.4665,10.227 C93.1768319,10.6303353 92.8835015,11.0556644 92.5865,11.503 C92.2894985,11.9503356 92.0053347,12.3939978 91.734,12.834 C91.4626653,13.2740022 91.228001,13.662665 91.03,14 L90.359,14 L90.359,8.313 L91.063,8.313 L91.063,12.867 C91.2390009,12.5516651 91.4571654,12.1868354 91.7175,11.7725 C91.9778346,11.3581646 92.2546652,10.9401688 92.548,10.5185 C92.8413348,10.0968312 93.1364985,9.69166861 93.4335,9.303 C93.7305015,8.91433139 94.0073321,8.58433469 94.264,8.313 L94.935,8.313 L94.935,14 L94.231,14 L94.231,9.226 Z M100.49,8.313 L100.49,8.918 L98.62,8.918 L98.62,14 L97.905,14 L97.905,8.918 L96.046,8.918 L96.046,8.313 L100.49,8.313 Z M103.152,14.121 C102.909999,13.6736644 102.677168,13.2080024 102.4535,12.724 C102.229832,12.2399976 102.020834,11.7505025 101.8265,11.2555 C101.632166,10.7604975 101.454334,10.2655025 101.293,9.7705 C101.131666,9.27549752 100.992334,8.78966905 100.875,8.313 L101.634,8.313 C101.714667,8.66500176 101.817333,9.04449796 101.942,9.4515 C102.066667,9.85850203 102.207833,10.2783312 102.3655,10.711 C102.523167,11.1436688 102.697332,11.5873311 102.888,12.042 C103.078668,12.4966689 103.283999,12.9439978 103.504,13.384 C103.665334,12.9293311 103.808333,12.5003354 103.933,12.097 C104.057667,11.6936647 104.173166,11.2921687 104.2795,10.8925 C104.385834,10.4928313 104.4885,10.0840021 104.5875,9.666 C104.6865,9.24799791 104.790999,8.79700242 104.901,8.313 L105.616,8.313 C105.381332,9.37633865 105.113668,10.4103283 104.813,11.415 C104.512332,12.4196717 104.186002,13.3399958 103.834,14.176 C103.694666,14.5060016 103.551667,14.7901655 103.405,15.0285 C103.258333,15.2668345 103.095168,15.4629992 102.9155,15.617 C102.735832,15.7710008 102.526835,15.8846663 102.2885,15.958 C102.050165,16.0313337 101.769668,16.068 101.447,16.068 C101.263666,16.068 101.096834,16.0460002 100.9465,16.002 C100.796166,15.9579998 100.702667,15.9250001 100.666,15.903 L100.809,15.309 C100.838333,15.3310001 100.920833,15.3621665 101.0565,15.4025 C101.192167,15.4428335 101.333333,15.463 101.48,15.463 C101.685334,15.463 101.870499,15.4410002 102.0355,15.397 C102.200501,15.3529998 102.348999,15.2778339 102.481,15.1715 C102.613001,15.0651661 102.732166,14.9276675 102.8385,14.759 C102.944834,14.5903325 103.049333,14.3776679 103.152,14.121 Z M108.608,13.483 C108.886668,13.483 109.130499,13.4738334 109.3395,13.4555 C109.548501,13.4371666 109.726333,13.4133335 109.873,13.384 L109.873,11.382 C109.792333,11.3453331 109.664001,11.3068335 109.488,11.2665 C109.311999,11.2261665 109.070002,11.206 108.762,11.206 C108.585999,11.206 108.402668,11.2188332 108.212,11.2445 C108.021332,11.2701668 107.845334,11.3251662 107.684,11.4095 C107.522666,11.4938338 107.390667,11.6093326 107.288,11.756 C107.185333,11.9026674 107.134,12.0969988 107.134,12.339 C107.134,12.5516677 107.168833,12.7313326 107.2385,12.878 C107.308167,13.0246674 107.407166,13.1419996 107.5355,13.23 C107.663834,13.3180004 107.817832,13.3821665 107.9975,13.4225 C108.177168,13.4628335 108.380666,13.483 108.608,13.483 Z M108.542,8.181 C108.916002,8.181 109.233165,8.23416613 109.4935,8.3405 C109.753835,8.44683386 109.964666,8.59349907 110.126,8.7805 C110.287334,8.96750094 110.404666,9.18933205 110.478,9.446 C110.551334,9.70266795 110.588,9.98133183 110.588,10.282 L110.588,13.868 C110.514666,13.8900001 110.408334,13.9138332 110.269,13.9395 C110.129666,13.9651668 109.968334,13.9926665 109.785,14.022 C109.601666,14.0513335 109.398168,14.0751666 109.1745,14.0935 C108.950832,14.1118334 108.721668,14.121 108.487,14.121 C108.186332,14.121 107.909501,14.0880003 107.6565,14.022 C107.403499,13.9559997 107.183501,13.8515007 106.9965,13.7085 C106.809499,13.5654993 106.662834,13.3821678 106.5565,13.1585 C106.450166,12.9348322 106.397,12.6616683 106.397,12.339 C106.397,12.0309985 106.455666,11.7670011 106.573,11.547 C106.690334,11.3269989 106.855332,11.1455007 107.068,11.0025 C107.280668,10.8594993 107.533665,10.7550003 107.827,10.689 C108.120335,10.6229997 108.439332,10.59 108.784,10.59 C108.886667,10.59 108.994833,10.5954999 109.1085,10.6065 C109.222167,10.6175001 109.332166,10.6321666 109.4385,10.6505 C109.544834,10.6688334 109.6365,10.6871666 109.7135,10.7055 C109.7905,10.7238334 109.843667,10.7403333 109.873,10.755 L109.873,10.403 C109.873,10.204999 109.858333,10.0125009 109.829,9.8255 C109.799667,9.63849906 109.7355,9.46983409 109.6365,9.3195 C109.5375,9.16916591 109.398168,9.04816712 109.2185,8.9565 C109.038832,8.86483288 108.802335,8.819 108.509,8.819 C108.090998,8.819 107.779334,8.84833304 107.574,8.907 C107.368666,8.96566696 107.218334,9.01333315 107.123,9.05 L107.024,8.423 C107.148667,8.36433304 107.341165,8.30933359 107.6015,8.258 C107.861835,8.20666641 108.175332,8.181 108.542,8.181 Z M114.097,8.918 L114.097,9.149 C114.097,9.3690011 114.093333,9.60916537 114.086,9.8695 C114.078667,10.1298346 114.064,10.3956653 114.042,10.667 C114.02,10.9383347 113.985167,11.207832 113.9375,11.4755 C113.889833,11.743168 113.829334,11.9943322 113.756,12.229 C113.675333,12.4710012 113.574501,12.7001656 113.4535,12.9165 C113.332499,13.1328344 113.189501,13.3234992 113.0245,13.4885 C112.859499,13.6535008 112.668834,13.7891661 112.4525,13.8955 C112.236166,14.0018339 111.992335,14.0696665 111.721,14.099 L111.622,13.505 C111.988669,13.4243329 112.283832,13.2740011 112.5075,13.054 C112.731168,12.8339989 112.916333,12.5223354 113.063,12.119 C113.209667,11.7156647 113.303166,11.251836 113.3435,10.7275 C113.383834,10.203164 113.404,9.62933645 113.404,9.006 L113.404,8.313 L116.902,8.313 L116.902,14 L116.187,14 L116.187,8.918 L114.097,8.918 Z M118.794,8.313 L119.509,8.313 L119.509,10.59 C119.641001,10.5533332 119.837165,10.5148335 120.0975,10.4745 C120.357835,10.4341665 120.627332,10.414 120.906,10.414 C121.214002,10.414 121.503665,10.4469997 121.775,10.513 C122.046335,10.5790003 122.284666,10.6853326 122.49,10.832 C122.695334,10.9786674 122.858499,11.1693322 122.9795,11.404 C123.100501,11.6386678 123.161,11.924665 123.161,12.262 C123.161,12.599335 123.100501,12.8853322 122.9795,13.12 C122.858499,13.3546678 122.693501,13.5471659 122.4845,13.6975 C122.275499,13.8478341 122.026168,13.9559997 121.7365,14.022 C121.446832,14.0880003 121.137002,14.121 120.807,14.121 C120.608999,14.121 120.409168,14.1136667 120.2075,14.099 C120.005832,14.0843333 119.817001,14.0660001 119.641,14.044 C119.464999,14.0219999 119.303667,13.9963335 119.157,13.967 C119.010333,13.9376665 118.889334,13.9046669 118.794,13.868 L118.794,8.313 Z M120.807,13.483 C121.298336,13.483 121.690665,13.3895009 121.984,13.2025 C122.277335,13.0154991 122.424,12.7020022 122.424,12.262 C122.424,12.0566656 122.383667,11.8770008 122.303,11.723 C122.222333,11.5689992 122.114167,11.4425005 121.9785,11.3435 C121.842833,11.2444995 121.681501,11.1711669 121.4945,11.1235 C121.307499,11.0758331 121.104001,11.052 120.884,11.052 C120.641999,11.052 120.400001,11.0629999 120.158,11.085 C119.915999,11.1070001 119.699668,11.1509997 119.509,11.217 L119.509,13.373 C119.604334,13.3950001 119.772999,13.4188332 120.015,13.4445 C120.257001,13.4701668 120.520999,13.483 120.807,13.483 Z M128.947,14 L128.232,14 L128.232,11.349 L125.141,11.349 L125.141,14 L124.426,14 L124.426,8.313 L125.141,8.313 L125.141,10.744 L128.232,10.744 L128.232,8.313 L128.947,8.313 L128.947,14 Z M130.839,8.313 L131.554,8.313 L131.554,10.59 C131.686001,10.5533332 131.880332,10.5148335 132.137,10.4745 C132.393668,10.4341665 132.650332,10.414 132.907,10.414 C133.193001,10.414 133.469832,10.4469997 133.7375,10.513 C134.005168,10.5790003 134.239832,10.6853326 134.4415,10.832 C134.643168,10.9786674 134.804499,11.1693322 134.9255,11.404 C135.046501,11.6386678 135.107,11.924665 135.107,12.262 C135.107,12.599335 135.046501,12.8853322 134.9255,13.12 C134.804499,13.3546678 134.641334,13.5471659 134.436,13.6975 C134.230666,13.8478341 133.986835,13.9559997 133.7045,14.022 C133.422165,14.0880003 133.123335,14.121 132.808,14.121 C132.617332,14.121 132.424834,14.1136667 132.2305,14.099 C132.036166,14.0843333 131.852834,14.0660001 131.6805,14.044 C131.508166,14.0219999 131.348667,13.9963335 131.202,13.967 C131.055333,13.9376665 130.934334,13.9046669 130.839,13.868 L130.839,8.313 Z M132.808,13.483 C133.270002,13.483 133.645832,13.3876676 133.9355,13.197 C134.225168,13.0063324 134.37,12.6946688 134.37,12.262 C134.37,12.0566656 134.329667,11.8770008 134.249,11.723 C134.168333,11.5689992 134.060167,11.4425005 133.9245,11.3435 C133.788833,11.2444995 133.631168,11.1711669 133.4515,11.1235 C133.271832,11.0758331 133.083001,11.052 132.885,11.052 C132.657666,11.052 132.426668,11.0629999 132.192,11.085 C131.957332,11.1070001 131.744668,11.1509997 131.554,11.217 L131.554,13.373 C131.649334,13.3950001 131.814332,13.4188332 132.049,13.4445 C132.283668,13.4701668 132.536665,13.483 132.808,13.483 Z M137.021,14 L136.306,14 L136.306,8.313 L137.021,8.313 L137.021,14 Z M142.785,9.226 C142.564999,9.49000132 142.310168,9.82366465 142.0205,10.227 C141.730832,10.6303353 141.437501,11.0556644 141.1405,11.503 C140.843499,11.9503356 140.559335,12.3939978 140.288,12.834 C140.016665,13.2740022 139.782001,13.662665 139.584,14 L138.913,14 L138.913,8.313 L139.617,8.313 L139.617,12.867 C139.793001,12.5516651 140.011165,12.1868354 140.2715,11.7725 C140.531835,11.3581646 140.808665,10.9401688 141.102,10.5185 C141.395335,10.0968312 141.690499,9.69166861 141.9875,9.303 C142.284501,8.91433139 142.561332,8.58433469 142.818,8.313 L143.489,8.313 L143.489,14 L142.785,14 L142.785,9.226 Z M141.201,7.345 C140.790331,7.345 140.453001,7.23133447 140.189,7.004 C139.924999,6.77666553 139.756334,6.45400209 139.683,6.036 L140.266,5.882 C140.31,6.13133458 140.407166,6.33483254 140.5575,6.4925 C140.707834,6.65016745 140.922332,6.729 141.201,6.729 C141.479668,6.729 141.694166,6.65016745 141.8445,6.4925 C141.994834,6.33483254 142.092,6.13133458 142.136,5.882 L142.719,6.036 C142.645666,6.45400209 142.477001,6.77666553 142.213,7.004 C141.948999,7.23133447 141.611669,7.345 141.201,7.345 Z M86.3,25.121 C85.8599978,25.121 85.471335,25.051334 85.134,24.912 C84.796665,24.772666 84.5161678,24.5728346 84.2925,24.3125 C84.0688322,24.0521654 83.8983339,23.7405018 83.781,23.3775 C83.6636661,23.0144982 83.605,22.6130022 83.605,22.173 C83.605,21.7256644 83.6654994,21.3186685 83.7865,20.952 C83.9075006,20.5853315 84.0816655,20.2700013 84.309,20.006 C84.5363345,19.7419987 84.8113317,19.5385007 85.134,19.3955 C85.4566683,19.2524993 85.8196647,19.181 86.223,19.181 C86.5310015,19.181 86.818832,19.2066664 87.0865,19.258 C87.354168,19.3093336 87.5613326,19.3753329 87.708,19.456 L87.521,20.072 C87.3743326,19.9986663 87.2093343,19.9400002 87.026,19.896 C86.8426657,19.8519998 86.5970015,19.83 86.289,19.83 C85.6583302,19.83 85.179835,20.033498 84.8535,20.4405 C84.527165,20.847502 84.364,21.4249963 84.364,22.173 C84.364,22.510335 84.4006663,22.8201653 84.474,23.1025 C84.5473337,23.3848347 84.6664992,23.6268323 84.8315,23.8285 C84.9965008,24.0301677 85.2091654,24.1878328 85.4695,24.3015 C85.7298346,24.4151672 86.0469981,24.472 86.421,24.472 C86.7290015,24.472 86.987499,24.437167 87.1965,24.3675 C87.405501,24.297833 87.5576662,24.2373336 87.653,24.186 L87.807,24.802 C87.6749993,24.8753337 87.4678347,24.946833 87.1855,25.0165 C86.9031653,25.086167 86.6080015,25.121 86.3,25.121 Z M88.665,22.151 C88.665,21.6523308 88.7364993,21.2178352 88.8795,20.8475 C89.0225007,20.4771648 89.2094988,20.1673346 89.4405,19.918 C89.6715012,19.6686654 89.9354985,19.4835006 90.2325,19.3625 C90.5295015,19.2414994 90.8356651,19.181 91.151,19.181 C91.8476701,19.181 92.4031646,19.4083311 92.8175,19.863 C93.2318354,20.3176689 93.439,21.0179953 93.439,21.964 C93.439,22.022667 93.4371667,22.081333 93.4335,22.14 C93.4298333,22.198667 93.4243334,22.2536664 93.417,22.305 L89.424,22.305 C89.4460001,23.0016702 89.6183317,23.5369981 89.941,23.911 C90.2636683,24.2850019 90.7769965,24.472 91.481,24.472 C91.8696686,24.472 92.1776655,24.4353337 92.405,24.362 C92.6323345,24.2886663 92.7973328,24.2263336 92.9,24.175 L93.032,24.791 C92.9293328,24.849667 92.7368347,24.9193329 92.4545,25 C92.1721653,25.0806671 91.8403352,25.121 91.459,25.121 C90.9603308,25.121 90.5350018,25.0476674 90.183,24.901 C89.8309982,24.7543326 89.5413345,24.5490013 89.314,24.285 C89.0866655,24.0209987 88.9216672,23.7075018 88.819,23.3445 C88.7163328,22.9814982 88.665,22.5836688 88.665,22.151 Z M92.702,21.7 C92.6873333,21.105997 92.5480013,20.6440017 92.284,20.314 C92.0199987,19.9839984 91.6460024,19.819 91.162,19.819 C90.9053321,19.819 90.6761677,19.8703328 90.4745,19.973 C90.2728323,20.0756672 90.0968341,20.2131658 89.9465,20.3855 C89.7961659,20.5578342 89.6788338,20.7576655 89.5945,20.985 C89.5101662,21.2123345 89.4606667,21.4506654 89.446,21.7 L92.702,21.7 Z M95.749,23.977 C95.8150003,24.0283336 95.8974995,24.083333 95.9965,24.142 C96.0955005,24.200667 96.2109993,24.2556664 96.343,24.307 C96.4750007,24.3583336 96.6179992,24.4004998 96.772,24.4335 C96.9260008,24.4665002 97.0873325,24.483 97.256,24.483 C97.6080018,24.483 97.9031655,24.4225006 98.1415,24.3015 C98.3798345,24.1804994 98.5723326,24.015501 98.719,23.8065 C98.8656674,23.597499 98.9719997,23.3518347 99.038,23.0695 C99.1040003,22.7871653 99.137,22.4883349 99.137,22.173 C99.137,21.4249963 98.9500019,20.8511687 98.576,20.4515 C98.2019981,20.0518313 97.7070031,19.852 97.091,19.852 C96.7389982,19.852 96.4548344,19.8684998 96.2385,19.9015 C96.0221656,19.9345002 95.8590006,19.9693332 95.749,20.006 L95.749,23.977 Z M95.749,27.035 L95.034,27.035 L95.034,19.511 C95.2466677,19.4376663 95.5179984,19.3680003 95.848,19.302 C96.1780017,19.2359997 96.5959975,19.203 97.102,19.203 C97.5200021,19.203 97.8994983,19.2708327 98.2405,19.4065 C98.5815017,19.5421673 98.8748321,19.7383321 99.1205,19.995 C99.3661679,20.2516679 99.5568327,20.5633315 99.6925,20.93 C99.8281673,21.2966685 99.896,21.7109977 99.896,22.173 C99.896,22.6056688 99.8391672,23.0034982 99.7255,23.3665 C99.6118328,23.7295018 99.4450011,24.0411654 99.225,24.3015 C99.0049989,24.5618346 98.7355016,24.7653326 98.4165,24.912 C98.0974984,25.0586674 97.7326687,25.132 97.322,25.132 C96.9479981,25.132 96.6235014,25.0788339 96.3485,24.9725 C96.0734986,24.8661661 95.8736673,24.7653338 95.749,24.67 L95.749,27.035 Z M103.284,19.192 C103.504001,19.192 103.751499,19.2048332 104.0265,19.2305 C104.301501,19.2561668 104.559999,19.3184995 104.802,19.4175 C105.044001,19.5165005 105.247499,19.670499 105.4125,19.8795 C105.577501,20.088501 105.66,20.3726649 105.66,20.732 C105.66,21.0106681 105.579334,21.2581656 105.418,21.4745 C105.256666,21.6908344 105.036668,21.8503328 104.758,21.953 C105.168669,22.0630005 105.465666,22.2389988 105.649,22.481 C105.832334,22.7230012 105.924,23.0199982 105.924,23.372 C105.924,23.7533352 105.847001,24.0594988 105.693,24.2905 C105.538999,24.5215012 105.335501,24.6974994 105.0825,24.8185 C104.829499,24.9395006 104.543502,25.0183331 104.2245,25.055 C103.905498,25.0916668 103.581002,25.11 103.251,25.11 C102.854998,25.11 102.508501,25.0843336 102.2115,25.033 C101.914499,24.9816664 101.659668,24.926667 101.447,24.868 L101.447,19.434 C101.630334,19.375333 101.872332,19.3203336 102.173,19.269 C102.473668,19.2176664 102.843998,19.192 103.284,19.192 Z M102.162,21.7 L103.46,21.7 C103.900002,21.7 104.255665,21.6266674 104.527,21.48 C104.798335,21.3333326 104.934,21.0876684 104.934,20.743 C104.934,20.5229989 104.886334,20.3506673 104.791,20.226 C104.695666,20.1013327 104.571001,20.0078336 104.417,19.9455 C104.262999,19.8831664 104.087001,19.8428334 103.889,19.8245 C103.690999,19.8061666 103.493001,19.797 103.295,19.797 C103.052999,19.797 102.822001,19.8098332 102.602,19.8355 C102.381999,19.8611668 102.235334,19.8849999 102.162,19.907 L102.162,21.7 Z M102.162,22.294 L102.162,24.384 C102.198667,24.3986667 102.259166,24.4114999 102.3435,24.4225 C102.427834,24.4335001 102.523166,24.4444999 102.6295,24.4555 C102.735834,24.4665001 102.849499,24.4756666 102.9705,24.483 C103.091501,24.4903334 103.206999,24.494 103.317,24.494 C103.566335,24.494 103.804666,24.4793335 104.032,24.45 C104.259334,24.4206665 104.457332,24.3638338 104.626,24.2795 C104.794668,24.1951662 104.930333,24.0815007 105.033,23.9385 C105.135667,23.7954993 105.187,23.6066678 105.187,23.372 C105.187,23.1666656 105.144834,22.994334 105.0605,22.855 C104.976166,22.715666 104.858834,22.6056671 104.7085,22.525 C104.558166,22.4443329 104.382168,22.3856669 104.1805,22.349 C103.978832,22.3123332 103.760668,22.294 103.526,22.294 L102.162,22.294 Z M111.325,20.226 C111.104999,20.4900013 110.850168,20.8236646 110.5605,21.227 C110.270832,21.6303353 109.977501,22.0556644 109.6805,22.503 C109.383499,22.9503356 109.099335,23.3939978 108.828,23.834 C108.556665,24.2740022 108.322001,24.662665 108.124,25 L107.453,25 L107.453,19.313 L108.157,19.313 L108.157,23.867 C108.333001,23.5516651 108.551165,23.1868354 108.8115,22.7725 C109.071835,22.3581646 109.348665,21.9401688 109.642,21.5185 C109.935335,21.0968312 110.230499,20.6916686 110.5275,20.303 C110.824501,19.9143314 111.101332,19.5843347 111.358,19.313 L112.029,19.313 L112.029,25 L111.325,25 L111.325,20.226 Z M116.275,25.121 C115.834998,25.121 115.446335,25.051334 115.109,24.912 C114.771665,24.772666 114.491168,24.5728346 114.2675,24.3125 C114.043832,24.0521654 113.873334,23.7405018 113.756,23.3775 C113.638666,23.0144982 113.58,22.6130022 113.58,22.173 C113.58,21.7256644 113.640499,21.3186685 113.7615,20.952 C113.882501,20.5853315 114.056666,20.2700013 114.284,20.006 C114.511334,19.7419987 114.786332,19.5385007 115.109,19.3955 C115.431668,19.2524993 115.794665,19.181 116.198,19.181 C116.506002,19.181 116.793832,19.2066664 117.0615,19.258 C117.329168,19.3093336 117.536333,19.3753329 117.683,19.456 L117.496,20.072 C117.349333,19.9986663 117.184334,19.9400002 117.001,19.896 C116.817666,19.8519998 116.572002,19.83 116.264,19.83 C115.63333,19.83 115.154835,20.033498 114.8285,20.4405 C114.502165,20.847502 114.339,21.4249963 114.339,22.173 C114.339,22.510335 114.375666,22.8201653 114.449,23.1025 C114.522334,23.3848347 114.641499,23.6268323 114.8065,23.8285 C114.971501,24.0301677 115.184165,24.1878328 115.4445,24.3015 C115.704835,24.4151672 116.021998,24.472 116.396,24.472 C116.704002,24.472 116.962499,24.437167 117.1715,24.3675 C117.380501,24.297833 117.532666,24.2373336 117.628,24.186 L117.782,24.802 C117.649999,24.8753337 117.442835,24.946833 117.1605,25.0165 C116.878165,25.086167 116.583002,25.121 116.275,25.121 Z" id="ритуальный-сервис" fill="#232220"></path>
            <path d="M6.59570312,24 L1.84765625,10.3789062 C1.76887981,10.1497384 1.68294317,9.95996169 1.58984375,9.80957031 C1.49674433,9.65917894 1.38932353,9.54101605 1.26757812,9.45507812 C1.14583272,9.3691402 1.00618568,9.30826841 0.848632812,9.27246094 C0.691079941,9.23665347 0.504883887,9.21875 0.290039062,9.21875 L0,9.21875 L0,8.29492188 L6.04785156,8.29492188 L6.04785156,9.21875 L5.54296875,9.21875 C5.09895611,9.21875 4.76774198,9.30289629 4.54931641,9.47119141 C4.33089083,9.63948652 4.22167969,9.90624817 4.22167969,10.2714844 C4.22167969,10.3932298 4.23779281,10.518554 4.27001953,10.6474609 C4.30224625,10.7763678 4.34700492,10.9231763 4.40429688,11.0878906 L6.82128906,18.2314453 C7.04329538,18.8831413 7.23307213,19.5151337 7.390625,20.1274414 C7.54817787,20.7397492 7.68782491,21.3108697 7.80957031,21.8408203 C7.92415422,21.3108697 8.06022057,20.7487009 8.21777344,20.1542969 C8.37532631,19.5598929 8.57584514,18.9189488 8.81933594,18.2314453 L11.2470703,11.2382812 C11.3043623,11.0592439 11.3509113,10.8873706 11.3867188,10.7226562 C11.4225262,10.5579419 11.4404297,10.4147142 11.4404297,10.2929688 C11.4404297,9.91340956 11.3204765,9.63948652 11.0805664,9.47119141 C10.8406564,9.30289629 10.477216,9.21875 9.99023438,9.21875 L9.48535156,9.21875 L9.48535156,8.29492188 L14.8457031,8.29492188 L14.8457031,9.21875 L14.4267578,9.21875 C14.211913,9.21875 14.0275073,9.24023416 13.8735352,9.28320312 C13.719563,9.32617209 13.579916,9.41031838 13.4545898,9.53564453 C13.3292637,9.66097068 13.2128912,9.83463431 13.1054688,10.0566406 C12.9980463,10.2786469 12.8834642,10.5686831 12.7617188,10.9267578 L8.20703125,24 L6.59570312,24 Z M21.9912109,22.9042969 L26.234375,22.9042969 C26.5852882,22.9042969 26.8842761,22.8559575 27.1313477,22.7592773 C27.3784192,22.6625972 27.5843091,22.5319019 27.7490234,22.3671875 C27.9137378,22.2024731 28.0426428,22.010906 28.1357422,21.7924805 C28.2288416,21.5740549 28.2932941,21.3431002 28.3291016,21.0996094 L28.4794922,20.1542969 L29.6289062,20.1542969 L29.4785156,24 L17.6835938,24 L17.6835938,23.0761719 L17.9628906,23.0761719 C18.2063814,23.0761719 18.4373361,23.0600588 18.6557617,23.027832 C18.8741873,22.9956053 19.0657544,22.9293625 19.2304688,22.8291016 C19.3951831,22.7288406 19.5258784,22.5802419 19.6225586,22.3833008 C19.7192388,22.1863597 19.7675781,21.9267594 19.7675781,21.6044922 L19.7675781,10.7978516 C19.7675781,10.4540998 19.7210291,10.1783865 19.6279297,9.97070312 C19.5348303,9.76301979 19.4059253,9.60367894 19.2412109,9.49267578 C19.0764966,9.38167262 18.8849295,9.30826841 18.6665039,9.27246094 C18.4480783,9.23665347 18.2135429,9.21875 17.9628906,9.21875 L17.6835938,9.21875 L17.6835938,8.29492188 L28.7695312,8.29492188 L28.8769531,12.140625 L27.7382812,12.140625 L27.6308594,11.1953125 C27.6022134,10.9518217 27.5467127,10.720867 27.4643555,10.5024414 C27.3819983,10.2840158 27.2638354,10.0924487 27.1098633,9.92773438 C26.9558912,9.76302001 26.7625337,9.6323247 26.5297852,9.53564453 C26.2970366,9.43896436 26.0159522,9.390625 25.6865234,9.390625 L21.9912109,9.390625 L21.9912109,15.2451172 L27.2978516,15.2451172 L27.2978516,16.3193359 L21.9912109,16.3193359 L21.9912109,22.9042969 Z M33.390625,24 L33.390625,23.0761719 L33.6699219,23.0761719 C33.9205742,23.0761719 34.1551096,23.0582684 34.3735352,23.0224609 C34.5919607,22.9866535 34.7835278,22.9132493 34.9482422,22.8022461 C35.1129566,22.6912429 35.2418615,22.5319021 35.3349609,22.3242188 C35.4280604,22.1165354 35.4746094,21.840822 35.4746094,21.4970703 L35.4746094,10.7978516 C35.4746094,10.4540998 35.4280604,10.1783865 35.3349609,9.97070312 C35.2418615,9.76301979 35.1129566,9.60367894 34.9482422,9.49267578 C34.7835278,9.38167262 34.5919607,9.30826841 34.3735352,9.27246094 C34.1551096,9.23665347 33.9205742,9.21875 33.6699219,9.21875 L33.390625,9.21875 L33.390625,8.29492188 L39.7929688,8.29492188 L39.7929688,9.21875 L39.5029297,9.21875 C39.2594389,9.21875 39.0284842,9.23486312 38.8100586,9.26708984 C38.591633,9.29931657 38.4000659,9.36914009 38.2353516,9.4765625 C38.0706372,9.58398491 37.9399419,9.73616438 37.8432617,9.93310547 C37.7465815,10.1300466 37.6982422,10.3896468 37.6982422,10.7119141 L37.6982422,22.9042969 L42.0380859,22.9042969 C42.3675147,22.9042969 42.6485991,22.8452154 42.8813477,22.7270508 C43.1140962,22.6088861 43.3056633,22.4549163 43.4560547,22.2651367 C43.6064461,22.0753571 43.7228186,21.8623059 43.8051758,21.6259766 C43.887533,21.3896473 43.9430337,21.1533215 43.9716797,20.9169922 L44.1865234,19.2734375 L45.3359375,19.2734375 L45.1855469,24 L33.390625,24 Z M53.4052734,22.9042969 L57.6484375,22.9042969 C57.9993507,22.9042969 58.2983386,22.8559575 58.5454102,22.7592773 C58.7924817,22.6625972 58.9983716,22.5319019 59.1630859,22.3671875 C59.3278003,22.2024731 59.4567053,22.010906 59.5498047,21.7924805 C59.6429041,21.5740549 59.7073566,21.3431002 59.7431641,21.0996094 L59.8935547,20.1542969 L61.0429688,20.1542969 L60.8925781,24 L49.0976562,24 L49.0976562,23.0761719 L49.3769531,23.0761719 C49.6204439,23.0761719 49.8513986,23.0600588 50.0698242,23.027832 C50.2882498,22.9956053 50.4798169,22.9293625 50.6445312,22.8291016 C50.8092456,22.7288406 50.9399409,22.5802419 51.0366211,22.3833008 C51.1333013,22.1863597 51.1816406,21.9267594 51.1816406,21.6044922 L51.1816406,10.7978516 C51.1816406,10.4540998 51.1350916,10.1783865 51.0419922,9.97070312 C50.9488928,9.76301979 50.8199878,9.60367894 50.6552734,9.49267578 C50.4905591,9.38167262 50.298992,9.30826841 50.0805664,9.27246094 C49.8621408,9.23665347 49.6276054,9.21875 49.3769531,9.21875 L49.0976562,9.21875 L49.0976562,8.29492188 L60.1835938,8.29492188 L60.2910156,12.140625 L59.1523438,12.140625 L59.0449219,11.1953125 C59.0162759,10.9518217 58.9607752,10.720867 58.878418,10.5024414 C58.7960608,10.2840158 58.6778979,10.0924487 58.5239258,9.92773438 C58.3699537,9.76302001 58.1765962,9.6323247 57.9438477,9.53564453 C57.7110991,9.43896436 57.4300147,9.390625 57.1005859,9.390625 L53.4052734,9.390625 L53.4052734,15.2451172 L58.7119141,15.2451172 L58.7119141,16.3193359 L53.4052734,16.3193359 L53.4052734,22.9042969 Z M69.4023438,24.2148438 C68.6861943,24.2148438 68.054202,24.1396492 67.5063477,23.9892578 C66.9584934,23.8388664 66.5001646,23.6293959 66.1313477,23.3608398 C65.7625307,23.0922838 65.485027,22.7664407 65.2988281,22.3833008 C65.1126293,22.0001608 65.0195312,21.5794294 65.0195312,21.1210938 C65.0195312,20.6770811 65.1573879,20.3190118 65.4331055,20.046875 C65.708823,19.7747382 66.1009089,19.6386719 66.609375,19.6386719 C66.6308595,20.0970075 66.700683,20.5374328 66.8188477,20.9599609 C66.9370123,21.3824891 67.1142566,21.7548812 67.3505859,22.0771484 C67.5869152,22.3994157 67.8876935,22.6572256 68.2529297,22.8505859 C68.6181659,23.0439463 69.0585912,23.140625 69.5742188,23.140625 C70.5625049,23.140625 71.3341444,22.9025089 71.8891602,22.4262695 C72.444176,21.9500302 72.7216797,21.2643274 72.7216797,20.3691406 C72.7216797,19.968097 72.6643886,19.6136083 72.5498047,19.3056641 C72.4352208,18.9977198 72.245444,18.7130547 71.9804688,18.4516602 C71.7154935,18.1902656 71.3663759,17.9396171 70.9331055,17.699707 C70.4998351,17.459797 69.9609407,17.2073581 69.3164062,16.9423828 C68.6360643,16.6630845 68.0416692,16.3640966 67.5332031,16.0454102 C67.024737,15.7267237 66.6022152,15.372235 66.265625,14.9819336 C65.9290348,14.5916322 65.6783862,14.1565779 65.5136719,13.6767578 C65.3489575,13.1969377 65.2666016,12.656253 65.2666016,12.0546875 C65.2666016,11.424476 65.3865548,10.8623072 65.6264648,10.3681641 C65.8663749,9.87402097 66.2011697,9.45687019 66.6308594,9.11669922 C67.060549,8.77652825 67.5690075,8.51692798 68.15625,8.33789062 C68.7434925,8.15885327 69.3844366,8.06933594 70.0791016,8.06933594 C70.737959,8.06933594 71.321612,8.13736911 71.8300781,8.2734375 C72.3385442,8.40950589 72.7682274,8.59212125 73.1191406,8.82128906 C73.4700538,9.05045688 73.7368155,9.31363784 73.9194336,9.61083984 C74.1020517,9.90804185 74.1933594,10.2177718 74.1933594,10.5400391 C74.1933594,11.0126977 74.0375992,11.3689767 73.7260742,11.6088867 C73.4145492,11.8487968 72.9938178,11.96875 72.4638672,11.96875 C72.4638672,11.6249983 72.4226892,11.2866228 72.340332,10.9536133 C72.2579748,10.6206038 72.1201182,10.3234063 71.9267578,10.0620117 C71.7333975,9.80061718 71.4791682,9.58756593 71.1640625,9.42285156 C70.8489568,9.2581372 70.4586612,9.17578125 69.9931641,9.17578125 C69.5706359,9.17578125 69.1928728,9.23486269 68.8598633,9.35302734 C68.5268538,9.471192 68.2457694,9.63948458 68.0166016,9.85791016 C67.7874337,10.0763357 67.6119798,10.3395167 67.4902344,10.6474609 C67.368489,10.9554052 67.3076172,11.2991517 67.3076172,11.6787109 C67.3076172,12.1155621 67.3649083,12.5004866 67.4794922,12.8334961 C67.5940761,13.1665056 67.7856432,13.4672838 68.0541992,13.7358398 C68.3227552,14.0043959 68.6754535,14.2586251 69.1123047,14.4985352 C69.5491558,14.7384452 70.0862598,14.9873034 70.7236328,15.2451172 C71.3681673,15.5100925 71.9428686,15.7893866 72.4477539,16.0830078 C72.9526392,16.3766291 73.3805321,16.7042625 73.7314453,17.065918 C74.0823585,17.4275734 74.3509105,17.8321918 74.5371094,18.2797852 C74.7233082,18.7273785 74.8164062,19.2340467 74.8164062,19.7998047 C74.8164062,20.4944696 74.6892916,21.1157199 74.4350586,21.6635742 C74.1808256,22.2114285 73.8173852,22.6751283 73.3447266,23.0546875 C72.8720679,23.4342467 72.3027377,23.7224925 71.6367188,23.9194336 C70.9706998,24.1163747 70.2259156,24.2148438 69.4023438,24.2148438 Z" id="veles" fill="#181819"></path>
        </g>
    </g>
</svg>