<?xml version="1.0" encoding="UTF-8"?>
<svg width="154px" height="60px" viewBox="0 0 154 60" version="1.1" xmlns="http://www.w3.org/2000/svg" xmlns:xlink="http://www.w3.org/1999/xlink">
    <!-- Generator: Sketch 51.3 (57544) - http://www.bohemiancoding.com/sketch -->
    <title>logo</title>
    <desc>Created with Sketch.</desc>
    <defs></defs>
    <g id="Page-1" stroke="none" stroke-width="1" fill="none" fill-rule="evenodd">
        <g id="logo">
            <g id="Group-4" fill="#DEE7F0">
                <polygon id="Rectangle-7" fill-rule="nonzero" points="0 0 25.9411765 0 63 60 37.0588235 60"></polygon>
                <polygon id="Rectangle-7" fill-rule="nonzero" points="0.535776156 0 26.372093 0 25.8363169 36.5853659 0 36.5853659"></polygon>
            </g>
            <g id="Group-3" transform="translate(0.000000, 7.500000)">
                <path d="M2.566245,38.7574138 C2.66821551,38.8370694 2.79567674,38.9224133 2.9486325,39.0134483 C3.10158826,39.1044832 3.28003398,39.1898272 3.483975,39.2694828 C3.68791602,39.3491383 3.90884881,39.4145687 4.14678,39.4657759 C4.38471119,39.516983 4.6339687,39.5425862 4.89456,39.5425862 C5.43840272,39.5425862 5.89443066,39.4487078 6.2626575,39.2609483 C6.63088434,39.0731887 6.92829387,38.8171568 7.154895,38.4928448 C7.38149613,38.1685329 7.54577949,37.7873298 7.64775,37.3492241 C7.74972051,36.9111185 7.800705,36.4474162 7.800705,35.9581034 C7.800705,34.797408 7.51179289,33.9069859 6.93396,33.2868103 C6.35612711,32.6666348 5.59135976,32.3565517 4.639635,32.3565517 C4.09579228,32.3565517 3.65675917,32.3821549 3.3225225,32.4333621 C2.98828583,32.4845692 2.73619585,32.5386204 2.566245,32.5955172 L2.566245,38.7574138 Z M2.566245,43.5025862 L1.46157,43.5025862 L1.46157,31.8274138 C1.79014164,31.7136201 2.20934745,31.6055178 2.7192,31.5031034 C3.22905255,31.4006891 3.87485609,31.3494828 4.65663,31.3494828 C5.30244323,31.3494828 5.88876487,31.4547403 6.4156125,31.6652586 C6.94246013,31.8757769 7.3956556,32.1801704 7.7752125,32.5784483 C8.1547694,32.9767261 8.44934645,33.460342 8.6589525,34.0293103 C8.86855855,34.5982787 8.97336,35.2412033 8.97336,35.9581034 C8.97336,36.6294861 8.88555338,37.2468075 8.7099375,37.8100862 C8.53432162,38.3733649 8.2765667,38.8569807 7.936665,39.2609483 C7.5967633,39.6649158 7.18038996,39.9806885 6.6875325,40.2082759 C6.19467504,40.4358632 5.63101317,40.5496552 4.99653,40.5496552 C4.41869711,40.5496552 3.91734962,40.467156 3.4924725,40.3021552 C3.06759538,40.1371543 2.75885596,39.9806904 2.566245,39.8327586 L2.566245,43.5025862 Z M17.351895,32.9368966 C17.0119933,33.3465538 16.6182797,33.8643072 16.1707425,34.4901724 C15.7232053,35.1160376 15.2700098,35.776031 14.8111425,36.4701724 C14.3522752,37.1643138 13.9132421,37.8527552 13.49403,38.5355172 C13.0748179,39.2182793 12.7122615,39.8213767 12.40635,40.3448276 L11.369655,40.3448276 L11.369655,31.5201724 L12.457335,31.5201724 L12.457335,38.5867241 C12.7292564,38.0974113 13.0663205,37.5312963 13.4685375,36.8883621 C13.8707545,36.2454278 14.2984577,35.5968136 14.75166,34.9425 C15.2048623,34.2881864 15.6608902,33.6594858 16.1197575,33.0563793 C16.5786248,32.4532728 17.006328,31.941209 17.40288,31.5201724 L18.439575,31.5201724 L18.439575,40.3448276 L17.351895,40.3448276 L17.351895,32.9368966 Z M27.02205,31.5201724 L27.02205,32.4589655 L24.1329,32.4589655 L24.1329,40.3448276 L23.028225,40.3448276 L23.028225,32.4589655 L20.15607,32.4589655 L20.15607,31.5201724 L27.02205,31.5201724 Z M31.13484,40.5325862 C30.7609481,39.8384448 30.4012242,39.1158658 30.0556575,38.3648276 C29.7100908,37.6137893 29.387189,36.854228 29.0869425,36.0861207 C28.786696,35.3180134 28.5119462,34.5499176 28.262685,33.7818103 C28.0134238,33.0137031 27.7981559,32.2598313 27.616875,31.5201724 L28.78953,31.5201724 C28.9141606,32.066382 29.072779,32.6552555 29.26539,33.2868103 C29.458001,33.9183652 29.6761013,34.5698242 29.9196975,35.2412069 C30.1632937,35.9125896 30.4323785,36.601031 30.72696,37.3065517 C31.0215415,38.0120725 31.3387783,38.7062035 31.67868,39.3889655 C31.9279412,38.6834447 32.148874,38.0177618 32.341485,37.3918966 C32.534096,36.7660314 32.7125417,36.1430203 32.8768275,35.5228448 C33.0411133,34.9026693 33.1997317,34.2682791 33.3526875,33.6196552 C33.5056433,32.9710312 33.6670942,32.2712107 33.837045,31.5201724 L34.94172,31.5201724 C34.5791582,33.1701807 34.1656173,34.7746474 33.701085,36.3336207 C33.2365527,37.892594 32.7323727,39.3206832 32.18853,40.617931 C31.9732589,41.1300026 31.7523261,41.5709464 31.525725,41.9407759 C31.2991239,42.3106053 31.0470339,42.6149988 30.7694475,42.8539655 C30.4918611,43.0929322 30.1689593,43.2693098 29.8007325,43.3831034 C29.4325057,43.4968971 28.9991375,43.5537931 28.500615,43.5537931 C28.2173636,43.5537931 27.9596087,43.5196555 27.7273425,43.4513793 C27.4950763,43.3831031 27.3506203,43.3318967 27.29397,43.2977586 L27.514905,42.3760345 C27.5602252,42.4101726 27.6876865,42.4585342 27.8972925,42.5211207 C28.1068985,42.5837072 28.3249989,42.615 28.5516,42.615 C28.8688416,42.615 29.1549212,42.5808624 29.4098475,42.5125862 C29.6647738,42.44431 29.894204,42.3276732 30.098145,42.1626724 C30.302086,41.9976716 30.4861967,41.7843117 30.6504825,41.5225862 C30.8147683,41.2608608 30.9762192,40.9308641 31.13484,40.5325862 Z M39.56436,39.5425862 C39.9949022,39.5425862 40.3716209,39.5283622 40.6945275,39.4999138 C41.0174341,39.4714654 41.2921839,39.434483 41.518785,39.3889655 L41.518785,36.2824138 C41.3941544,36.225517 41.1958814,36.1657762 40.92396,36.1031897 C40.6520386,36.0406031 40.2781524,36.0093103 39.80229,36.0093103 C39.5303686,36.0093103 39.2471215,36.0292239 38.95254,36.0690517 C38.6579585,36.1088795 38.3860412,36.1942235 38.13678,36.3250862 C37.8875188,36.4559489 37.6835808,36.6351713 37.52496,36.8627586 C37.3663392,37.090346 37.28703,37.3918947 37.28703,37.7674138 C37.28703,38.0974154 37.340847,38.3762058 37.4484825,38.6037931 C37.556118,38.8313804 37.7090715,39.0134476 37.9073475,39.15 C38.1056235,39.2865524 38.3435511,39.3861204 38.6211375,39.4487069 C38.8987239,39.5112934 39.2131282,39.5425862 39.56436,39.5425862 Z M39.46239,31.3153448 C40.0402229,31.3153448 40.5302405,31.397844 40.9324575,31.5628448 C41.3346745,31.7278457 41.6604088,31.9554296 41.90967,32.2456034 C42.1589312,32.5357773 42.3402094,32.879998 42.45351,33.2782759 C42.5668106,33.6765537 42.62346,34.1089632 42.62346,34.5755172 L42.62346,40.14 C42.5101594,40.1741381 42.3458761,40.2111205 42.130605,40.2509483 C41.9153339,40.2907761 41.6660764,40.333448 41.382825,40.3789655 C41.0995736,40.424483 40.7851692,40.4614654 40.4396025,40.4899138 C40.0940358,40.5183622 39.7399768,40.5325862 39.377415,40.5325862 C38.9128827,40.5325862 38.4851795,40.4813798 38.0942925,40.3789655 C37.7034055,40.2765512 37.3635089,40.1143977 37.0745925,39.8925 C36.7856761,39.6706023 36.5590783,39.3861224 36.3947925,39.0390517 C36.2305067,38.691981 36.148365,38.268106 36.148365,37.7674138 C36.148365,37.2894804 36.2390041,36.8798293 36.420285,36.5384483 C36.6015659,36.1970673 36.8564884,35.9154321 37.18506,35.6935345 C37.5136316,35.4716368 37.9045127,35.3094833 38.357715,35.207069 C38.8109173,35.1046547 39.3037673,35.0534483 39.83628,35.0534483 C39.9949008,35.0534483 40.1620166,35.0619827 40.3376325,35.0790517 C40.5132484,35.0961208 40.6831967,35.1188792 40.8474825,35.1473276 C41.0117683,35.175776 41.1533919,35.204224 41.2723575,35.2326724 C41.3913231,35.2611208 41.4734648,35.286724 41.518785,35.3094828 L41.518785,34.7632759 C41.518785,34.4560329 41.4961252,34.157329 41.450805,33.8671552 C41.4054848,33.5769813 41.3063483,33.3152598 41.1533925,33.0819828 C41.0004367,32.8487057 40.7851689,32.660949 40.5075825,32.5187069 C40.2299961,32.3764648 39.8646073,32.3053448 39.411405,32.3053448 C38.7655918,32.3053448 38.2840716,32.3508616 37.96683,32.4418966 C37.6495884,32.5329315 37.4173257,32.6068963 37.270035,32.6637931 L37.11708,31.6908621 C37.309691,31.5998271 37.6071005,31.5144832 38.0093175,31.4348276 C38.4115345,31.355172 38.8958872,31.3153448 39.46239,31.3153448 Z M48.044865,32.4589655 L48.044865,32.8174138 C48.044865,33.1587948 48.0392001,33.5314635 48.02787,33.935431 C48.0165399,34.3393986 47.9938802,34.7518944 47.95989,35.172931 C47.9258998,35.5939676 47.8720829,36.0121531 47.7984375,36.4275 C47.7247921,36.8428469 47.6313206,37.2325844 47.51802,37.5967241 C47.3933894,37.9722433 47.2376034,38.3278431 47.0506575,38.6635345 C46.8637116,38.9992258 46.6427788,39.2950849 46.3878525,39.5511207 C46.1329262,39.8071565 45.8383492,40.0176716 45.5041125,40.1826724 C45.1698758,40.3476732 44.7931571,40.4529308 44.373945,40.4984483 L44.22099,39.5767241 C44.7874928,39.4515511 45.2435208,39.2182776 45.5890875,38.8768966 C45.9346542,38.5355155 46.2207339,38.0518997 46.447335,37.4260345 C46.6739361,36.8001693 46.8183922,36.0804351 46.8807075,35.2668103 C46.9430228,34.4531856 46.97418,33.5627635 46.97418,32.5955172 L46.97418,31.5201724 L52.37859,31.5201724 L52.37859,40.3448276 L51.273915,40.3448276 L51.273915,32.4589655 L48.044865,32.4589655 Z M55.30173,31.5201724 L56.406405,31.5201724 L56.406405,35.0534483 C56.610346,34.9965514 56.9134205,34.9368107 57.3156375,34.8742241 C57.7178545,34.8116376 58.1342278,34.7803448 58.56477,34.7803448 C59.0406324,34.7803448 59.4881629,34.8315512 59.907375,34.9339655 C60.3265871,35.0363798 60.6948084,35.2013782 61.01205,35.4289655 C61.3292916,35.6565529 61.5813816,35.952412 61.7683275,36.3165517 C61.9552734,36.6806915 62.048745,37.1244801 62.048745,37.647931 C62.048745,38.1713819 61.9552734,38.6151706 61.7683275,38.9793103 C61.5813816,39.3434501 61.3264591,39.642154 61.0035525,39.875431 C60.6806459,40.1087081 60.2954297,40.2765512 59.8478925,40.3789655 C59.4003553,40.4813798 58.9216675,40.5325862 58.411815,40.5325862 C58.1059035,40.5325862 57.7971641,40.521207 57.4855875,40.4984483 C57.1740109,40.4756895 56.8822664,40.4472416 56.610345,40.4131034 C56.3384236,40.3789653 56.0891661,40.3391382 55.862565,40.2936207 C55.6359639,40.2481032 55.4490207,40.1968968 55.30173,40.14 L55.30173,31.5201724 Z M58.411815,39.5425862 C59.1709288,39.5425862 59.7770777,39.3975015 60.23028,39.1073276 C60.6834823,38.8171537 60.91008,38.3306931 60.91008,37.647931 C60.91008,37.3293088 60.8477656,37.0505184 60.723135,36.8115517 C60.5985044,36.572585 60.4313885,36.3762939 60.2217825,36.2226724 C60.0121765,36.069051 59.7629189,35.955259 59.4740025,35.8812931 C59.1850861,35.8073272 58.8706817,35.7703448 58.53078,35.7703448 C58.1568881,35.7703448 57.7830019,35.7874136 57.40911,35.8215517 C57.0352181,35.8556898 56.7009865,35.923965 56.406405,36.0263793 L56.406405,39.3718966 C56.5536957,39.4060347 56.8142831,39.443017 57.188175,39.4828448 C57.5620669,39.5226726 57.9699428,39.5425862 58.411815,39.5425862 Z M70.988115,40.3448276 L69.88344,40.3448276 L69.88344,36.2312069 L65.107845,36.2312069 L65.107845,40.3448276 L64.00317,40.3448276 L64.00317,31.5201724 L65.107845,31.5201724 L65.107845,35.2924138 L69.88344,35.2924138 L69.88344,31.5201724 L70.988115,31.5201724 L70.988115,40.3448276 Z M73.911255,31.5201724 L75.01593,31.5201724 L75.01593,35.0534483 C75.219871,34.9965514 75.520113,34.9368107 75.916665,34.8742241 C76.313217,34.8116376 76.709763,34.7803448 77.106315,34.7803448 C77.5481872,34.7803448 77.9758904,34.8315512 78.3894375,34.9339655 C78.8029846,35.0363798 79.1655409,35.2013782 79.4771175,35.4289655 C79.7886941,35.6565529 80.0379516,35.952412 80.2248975,36.3165517 C80.4118434,36.6806915 80.505315,37.1244801 80.505315,37.647931 C80.505315,38.1713819 80.4118434,38.6151706 80.2248975,38.9793103 C80.0379516,39.3434501 79.7858616,39.642154 79.46862,39.875431 C79.1513784,40.1087081 78.7746597,40.2765512 78.3384525,40.3789655 C77.9022453,40.4813798 77.4405524,40.5325862 76.95336,40.5325862 C76.6587785,40.5325862 76.361369,40.521207 76.0611225,40.4984483 C75.760876,40.4756895 75.4776288,40.4472416 75.2113725,40.4131034 C74.9451162,40.3789653 74.6986911,40.3391382 74.47209,40.2936207 C74.2454889,40.2481032 74.0585457,40.1968968 73.911255,40.14 L73.911255,31.5201724 Z M76.95336,39.5425862 C77.6671536,39.5425862 78.2478103,39.3946567 78.6953475,39.0987931 C79.1428847,38.8029296 79.36665,38.3193137 79.36665,37.647931 C79.36665,37.3293088 79.3043356,37.0505184 79.179705,36.8115517 C79.0550744,36.572585 78.8879585,36.3762939 78.6783525,36.2226724 C78.4687465,36.069051 78.2251539,35.955259 77.9475675,35.8812931 C77.6699811,35.8073272 77.3782365,35.7703448 77.072325,35.7703448 C76.7210932,35.7703448 76.3642018,35.7874136 76.00164,35.8215517 C75.6390782,35.8556898 75.3105115,35.923965 75.01593,36.0263793 L75.01593,39.3718966 C75.1632207,39.4060347 75.4181432,39.443017 75.780705,39.4828448 C76.1432668,39.5226726 76.5341479,39.5425862 76.95336,39.5425862 Z M83.462445,40.3448276 L82.35777,40.3448276 L82.35777,31.5201724 L83.462445,31.5201724 L83.462445,40.3448276 Z M92.367825,32.9368966 C92.0279233,33.3465538 91.6342097,33.8643072 91.1866725,34.4901724 C90.7391353,35.1160376 90.2859398,35.776031 89.8270725,36.4701724 C89.3682052,37.1643138 88.9291721,37.8527552 88.50996,38.5355172 C88.0907479,39.2182793 87.7281915,39.8213767 87.42228,40.3448276 L86.385585,40.3448276 L86.385585,31.5201724 L87.473265,31.5201724 L87.473265,38.5867241 C87.7451864,38.0974113 88.0822505,37.5312963 88.4844675,36.8883621 C88.8866845,36.2454278 89.3143877,35.5968136 89.76759,34.9425 C90.2207923,34.2881864 90.6768202,33.6594858 91.1356875,33.0563793 C91.5945548,32.4532728 92.022258,31.941209 92.41881,31.5201724 L93.455505,31.5201724 L93.455505,40.3448276 L92.367825,40.3448276 L92.367825,32.9368966 Z M89.920545,30.0181034 C89.2860618,30.0181034 88.764887,29.8417259 88.357005,29.4889655 C87.949123,29.1362051 87.6885356,28.6355205 87.575235,27.9868966 L88.47597,27.747931 C88.5439503,28.1348295 88.6940713,28.4506022 88.9263375,28.6952586 C89.1586037,28.939915 89.4900028,29.0622414 89.920545,29.0622414 C90.3510872,29.0622414 90.6824863,28.939915 90.9147525,28.6952586 C91.1470187,28.4506022 91.2971397,28.1348295 91.36512,27.747931 L92.265855,27.9868966 C92.1525544,28.6355205 91.891967,29.1362051 91.484085,29.4889655 C91.076203,29.8417259 90.5550282,30.0181034 89.920545,30.0181034 Z M103.890435,40.5325862 C103.210632,40.5325862 102.610148,40.4244838 102.088965,40.2082759 C101.567782,39.9920679 101.134414,39.6819848 100.788848,39.2780172 C100.443281,38.8740497 100.179861,38.3904339 99.99858,37.8271552 C99.8172991,37.2638765 99.72666,36.6408655 99.72666,35.9581034 C99.72666,35.263962 99.8201316,34.6324166 100.007078,34.0634483 C100.194023,33.4944799 100.463108,33.0051745 100.81434,32.5955172 C101.165572,32.18586 101.590443,31.8700873 102.088965,31.6481897 C102.587487,31.426292 103.148317,31.3153448 103.77147,31.3153448 C104.247332,31.3153448 104.69203,31.355172 105.105578,31.4348276 C105.519125,31.5144832 105.839194,31.6168959 106.065795,31.742069 L105.77688,32.697931 C105.550279,32.5841374 105.295356,32.4931038 105.012105,32.4248276 C104.728854,32.3565514 104.349302,32.3224138 103.87344,32.3224138 C102.899055,32.3224138 102.15978,32.6381865 101.655593,33.2697414 C101.151405,33.9012963 100.899315,34.797408 100.899315,35.9581034 C100.899315,36.4815543 100.955964,36.9623254 101.069265,37.400431 C101.182566,37.8385367 101.366676,38.2140502 101.621603,38.5269828 C101.876529,38.8399154 102.205095,39.0845681 102.607313,39.2609483 C103.00953,39.4373285 103.499547,39.5255172 104.07738,39.5255172 C104.553242,39.5255172 104.952621,39.4714661 105.275528,39.3633621 C105.598434,39.2552581 105.833529,39.1613797 105.98082,39.0817241 L106.21875,40.0375862 C106.014809,40.1513799 105.69474,40.262327 105.258533,40.370431 C104.822325,40.478535 104.366297,40.5325862 103.890435,40.5325862 Z M107.54436,35.9239655 C107.54436,35.1501685 107.654826,34.4759511 107.875763,33.9012931 C108.096699,33.3266351 108.385611,32.845864 108.742508,32.4589655 C109.099404,32.072067 109.50728,31.7847423 109.966148,31.5969828 C110.425015,31.4092232 110.898038,31.3153448 111.38523,31.3153448 C112.461585,31.3153448 113.319824,31.6680999 113.959973,32.3736207 C114.600121,33.0791415 114.92019,34.1658547 114.92019,35.6337931 C114.92019,35.724828 114.917358,35.8158616 114.911693,35.9068966 C114.906027,35.9979315 114.89753,36.0832755 114.8862,36.162931 L108.717015,36.162931 C108.751005,37.2439709 109.017258,38.0746523 109.51578,38.655 C110.014302,39.2353477 110.807395,39.5255172 111.89508,39.5255172 C112.495573,39.5255172 112.971428,39.4686213 113.32266,39.3548276 C113.673892,39.2410339 113.928814,39.1443107 114.087435,39.0646552 L114.291375,40.0205172 C114.132754,40.1115522 113.835345,40.2196545 113.399138,40.3448276 C112.96293,40.4700006 112.450253,40.5325862 111.86109,40.5325862 C111.090646,40.5325862 110.433513,40.4187942 109.88967,40.1912069 C109.345827,39.9636196 108.898297,39.645002 108.547065,39.2353448 C108.195833,38.8256876 107.940911,38.339227 107.78229,37.7759483 C107.623669,37.2126696 107.54436,36.5953482 107.54436,35.9239655 Z M113.781525,35.2241379 C113.758865,34.3024092 113.543597,33.5855198 113.135715,33.0734483 C112.727833,32.5613768 112.150009,32.3053448 111.402225,32.3053448 C111.005673,32.3053448 110.651614,32.3849992 110.340038,32.5443103 C110.028461,32.7036215 109.756544,32.9169814 109.524278,33.1843966 C109.292011,33.4518117 109.110733,33.7618948 108.980437,34.1146552 C108.850142,34.4674156 108.773665,34.8372394 108.751005,35.2241379 L113.781525,35.2241379 Z M118.48914,38.7574138 C118.591111,38.8370694 118.718572,38.9224133 118.871528,39.0134483 C119.024483,39.1044832 119.202929,39.1898272 119.40687,39.2694828 C119.610811,39.3491383 119.831744,39.4145687 120.069675,39.4657759 C120.307606,39.516983 120.556864,39.5425862 120.817455,39.5425862 C121.361298,39.5425862 121.817326,39.4487078 122.185553,39.2609483 C122.553779,39.0731887 122.851189,38.8171568 123.07779,38.4928448 C123.304391,38.1685329 123.468674,37.7873298 123.570645,37.3492241 C123.672616,36.9111185 123.7236,36.4474162 123.7236,35.9581034 C123.7236,34.797408 123.434688,33.9069859 122.856855,33.2868103 C122.279022,32.6666348 121.514255,32.3565517 120.56253,32.3565517 C120.018687,32.3565517 119.579654,32.3821549 119.245418,32.4333621 C118.911181,32.4845692 118.659091,32.5386204 118.48914,32.5955172 L118.48914,38.7574138 Z M118.48914,43.5025862 L117.384465,43.5025862 L117.384465,31.8274138 C117.713037,31.7136201 118.132242,31.6055178 118.642095,31.5031034 C119.151948,31.4006891 119.797751,31.3494828 120.579525,31.3494828 C121.225338,31.3494828 121.81166,31.4547403 122.338508,31.6652586 C122.865355,31.8757769 123.318551,32.1801704 123.698108,32.5784483 C124.077664,32.9767261 124.372241,33.460342 124.581848,34.0293103 C124.791454,34.5982787 124.896255,35.2412033 124.896255,35.9581034 C124.896255,36.6294861 124.808448,37.2468075 124.632833,37.8100862 C124.457217,38.3733649 124.199462,38.8569807 123.85956,39.2609483 C123.519658,39.6649158 123.103285,39.9806885 122.610428,40.2082759 C122.11757,40.4358632 121.553908,40.5496552 120.919425,40.5496552 C120.341592,40.5496552 119.840245,40.467156 119.415368,40.3021552 C118.99049,40.1371543 118.681751,39.9806904 118.48914,39.8327586 L118.48914,43.5025862 Z M130.130715,31.3324138 C130.470617,31.3324138 130.853,31.3523274 131.277878,31.3921552 C131.702755,31.431983 132.102133,31.5287061 132.476025,31.6823276 C132.849917,31.835949 133.164321,32.0749122 133.419248,32.3992241 C133.674174,32.7235361 133.801635,33.16448 133.801635,33.722069 C133.801635,34.1544849 133.677006,34.5385328 133.427745,34.8742241 C133.178484,35.2099155 132.838587,35.457413 132.408045,35.6167241 C133.042528,35.7874146 133.501389,36.0605154 133.78464,36.4360345 C134.067891,36.8115536 134.209515,37.2724111 134.209515,37.8186207 C134.209515,38.4103478 134.090551,38.8854292 133.85262,39.2438793 C133.614689,39.6023294 133.300284,39.8754301 132.909398,40.0631897 C132.518511,40.2509492 132.076645,40.3732756 131.583788,40.4301724 C131.09093,40.4870693 130.589583,40.5155172 130.07973,40.5155172 C129.467907,40.5155172 128.93257,40.4756901 128.473703,40.3960345 C128.014835,40.3163789 127.621122,40.2310349 127.29255,40.14 L127.29255,31.707931 C127.575801,31.6168961 127.949688,31.5315521 128.41422,31.4518966 C128.878752,31.372241 129.450912,31.3324138 130.130715,31.3324138 Z M128.397225,35.2241379 L130.402635,35.2241379 C131.082438,35.2241379 131.631938,35.110346 132.05115,34.8827586 C132.470362,34.6551713 132.679965,34.2739682 132.679965,33.7391379 C132.679965,33.3977569 132.606321,33.1303458 132.45903,32.9368966 C132.311739,32.7434473 132.119131,32.5983626 131.8812,32.5016379 C131.643269,32.4049133 131.371352,32.3423277 131.06544,32.3138793 C130.759528,32.2854309 130.453622,32.2712069 130.14771,32.2712069 C129.773818,32.2712069 129.416927,32.2911205 129.077025,32.3309483 C128.737123,32.3707761 128.510526,32.4077585 128.397225,32.4418966 L128.397225,35.2241379 Z M128.397225,36.1458621 L128.397225,39.3889655 C128.453875,39.4117243 128.547347,39.4316378 128.677643,39.4487069 C128.807938,39.4657759 128.955227,39.4828447 129.119513,39.4999138 C129.283798,39.5169828 129.459412,39.5312068 129.646358,39.5425862 C129.833303,39.5539656 130.011749,39.5596552 130.1817,39.5596552 C130.566922,39.5596552 130.935143,39.5368968 131.286375,39.4913793 C131.637607,39.4458618 131.943514,39.3576731 132.204105,39.2268103 C132.464696,39.0959476 132.674299,38.9195701 132.83292,38.6976724 C132.991541,38.4757748 133.07085,38.1827604 133.07085,37.8186207 C133.07085,37.4999984 133.005703,37.2325873 132.875408,37.0163793 C132.745112,36.8001713 132.563834,36.6294834 132.331568,36.5043103 C132.099301,36.3791373 131.827384,36.2881037 131.515808,36.2312069 C131.204231,36.1743101 130.867167,36.1458621 130.504605,36.1458621 L128.397225,36.1458621 Z M142.55406,32.9368966 C142.214158,33.3465538 141.820445,33.8643072 141.372908,34.4901724 C140.92537,35.1160376 140.472175,35.776031 140.013308,36.4701724 C139.55444,37.1643138 139.115407,37.8527552 138.696195,38.5355172 C138.276983,39.2182793 137.914427,39.8213767 137.608515,40.3448276 L136.57182,40.3448276 L136.57182,31.5201724 L137.6595,31.5201724 L137.6595,38.5867241 C137.931421,38.0974113 138.268485,37.5312963 138.670703,36.8883621 C139.07292,36.2454278 139.500623,35.5968136 139.953825,34.9425 C140.407027,34.2881864 140.863055,33.6594858 141.321923,33.0563793 C141.78079,32.4532728 142.208493,31.941209 142.605045,31.5201724 L143.64174,31.5201724 L143.64174,40.3448276 L142.55406,40.3448276 L142.55406,32.9368966 Z M150.20181,40.5325862 C149.522007,40.5325862 148.921523,40.4244838 148.40034,40.2082759 C147.879157,39.9920679 147.445789,39.6819848 147.100223,39.2780172 C146.754656,38.8740497 146.491236,38.3904339 146.309955,37.8271552 C146.128674,37.2638765 146.038035,36.6408655 146.038035,35.9581034 C146.038035,35.263962 146.131507,34.6324166 146.318453,34.0634483 C146.505398,33.4944799 146.774483,33.0051745 147.125715,32.5955172 C147.476947,32.18586 147.901818,31.8700873 148.40034,31.6481897 C148.898862,31.426292 149.459692,31.3153448 150.082845,31.3153448 C150.558707,31.3153448 151.003405,31.355172 151.416953,31.4348276 C151.8305,31.5144832 152.150569,31.6168959 152.37717,31.742069 L152.088255,32.697931 C151.861654,32.5841374 151.606731,32.4931038 151.32348,32.4248276 C151.040229,32.3565514 150.660677,32.3224138 150.184815,32.3224138 C149.21043,32.3224138 148.471155,32.6381865 147.966968,33.2697414 C147.46278,33.9012963 147.21069,34.797408 147.21069,35.9581034 C147.21069,36.4815543 147.267339,36.9623254 147.38064,37.400431 C147.493941,37.8385367 147.678051,38.2140502 147.932978,38.5269828 C148.187904,38.8399154 148.51647,39.0845681 148.918688,39.2609483 C149.320905,39.4373285 149.810922,39.5255172 150.388755,39.5255172 C150.864617,39.5255172 151.263996,39.4714661 151.586903,39.3633621 C151.909809,39.2552581 152.144904,39.1613797 152.292195,39.0817241 L152.530125,40.0375862 C152.326184,40.1513799 152.006115,40.262327 151.569908,40.370431 C151.1337,40.478535 150.677672,40.5325862 150.20181,40.5325862 Z" id="ритуальный-сервис" fill="#232220"></path>
                <path d="M9.1734375,15.7657597 L9.1734375,17.0689655 L0.860009766,17.0689655 L0.860009766,15.7657597 L1.26738281,15.7657597 C1.61943535,15.7657597 1.94130714,15.740504 2.23300781,15.6899919 C2.52470849,15.6394798 2.77617082,15.5359315 2.98740234,15.379344 C3.19863387,15.2227565 3.36208438,14.997981 3.47775879,14.7050108 C3.5934332,14.4120406 3.65126953,14.0231032 3.65126953,13.538187 L3.65126953,3.85506466 C3.65126953,3.4004557 3.59091857,3.03424843 3.47021484,2.75643184 C3.34951112,2.47861526 3.18354598,2.26394203 2.97231445,2.11240571 C2.76108293,1.96086939 2.5096206,1.8598467 2.21791992,1.80933459 C1.92621924,1.75882248 1.60937671,1.73356681 1.26738281,1.73356681 L1.17685547,1.73356681 L1.17685547,0.430360991 L6.02006836,0.430360991 L6.42744141,2.94585129 L6.57832031,2.94585129 C6.89013828,2.37001328 7.21703931,1.89773218 7.5590332,1.5289938 C7.9010271,1.16025543 8.26564748,0.872340745 8.65290527,0.66524111 C9.04016307,0.458141475 9.44753204,0.3167097 9.87502441,0.240941541 C10.3025168,0.165173382 10.7576636,0.127289871 11.2404785,0.127289871 C11.7434107,0.127289871 12.2211891,0.177801219 12.6738281,0.278825431 C13.1264671,0.379849643 13.5464092,0.541485958 13.933667,0.763739224 C14.3209248,0.985992491 14.6679428,1.27643274 14.9747314,1.6350687 C15.2815201,1.99370465 15.5304678,2.43062781 15.721582,2.94585129 L15.9780762,2.94585129 C16.2898941,2.37001328 16.6268537,1.89773218 16.9889648,1.5289938 C17.351076,1.16025543 17.7358134,0.872340745 18.1431885,0.66524111 C18.5505636,0.458141475 18.9780495,0.3167097 19.4256592,0.240941541 C19.8732688,0.165173382 20.3384741,0.127289871 20.8212891,0.127289871 C21.6058633,0.127289871 22.3099578,0.245991539 22.9335937,0.483398437 C23.5572297,0.720805336 24.0853006,1.08448704 24.5178223,1.57445447 C24.950344,2.0644219 25.2822742,2.69328819 25.513623,3.4610722 C25.7449719,4.22885621 25.8606445,5.14311161 25.8606445,6.20386584 L25.8606445,13.538187 C25.8606445,14.0231032 25.9209955,14.4120406 26.0416992,14.7050108 C26.1624029,14.997981 26.3283681,15.2227565 26.5395996,15.379344 C26.7508311,15.5359315 27.0022935,15.6394798 27.2939941,15.6899919 C27.5856948,15.740504 27.9025374,15.7657597 28.2445312,15.7657597 L28.3350586,15.7657597 L28.3350586,17.0689655 L22.9637695,17.0689655 L22.9637695,6.3554014 C22.9637695,5.67853918 22.9059332,5.07745414 22.7902588,4.55212823 C22.6745844,4.02680233 22.4885023,3.58230246 22.2320068,3.2186153 C21.9755114,2.85492814 21.6410665,2.57964129 21.2286621,2.3927465 C20.8162577,2.20585171 20.313333,2.11240571 19.719873,2.11240571 C19.0761198,2.11240571 18.5354758,2.23615851 18.0979248,2.48366783 C17.6603738,2.73117715 17.3058119,3.06707762 17.0342285,3.49137931 C16.7626451,3.915681 16.5690191,4.40564108 16.4533447,4.96127425 C16.3376703,5.51690741 16.279834,6.10789019 16.279834,6.7342403 L16.279834,13.538187 C16.279834,14.0231032 16.3401849,14.4120406 16.4608887,14.7050108 C16.5815924,14.997981 16.7475575,15.2227565 16.9587891,15.379344 C17.1700206,15.5359315 17.4214829,15.6394798 17.7131836,15.6899919 C18.0048843,15.740504 18.3217268,15.7657597 18.6637207,15.7657597 L18.754248,15.7657597 L18.754248,17.0689655 L13.382959,17.0689655 L13.382959,6.3554014 C13.382959,5.67853918 13.3251226,5.07745414 13.2094482,4.55212823 C13.0937738,4.02680233 12.9076917,3.58230246 12.6511963,3.2186153 C12.3947009,2.85492814 12.060256,2.57964129 11.6478516,2.3927465 C11.2354472,2.20585171 10.7325225,2.11240571 10.1390625,2.11240571 C9.46513335,2.11240571 8.89934311,2.24878635 8.4416748,2.52155172 C7.9840065,2.7943171 7.61435688,3.16304994 7.33271484,3.62776131 C7.05107281,4.09247269 6.84990295,4.62789298 6.72919922,5.23403825 C6.60849549,5.84018353 6.54814453,6.47662652 6.54814453,7.14338631 L6.54814453,13.6897225 C6.54814453,14.1443315 6.61603936,14.5105388 6.75183105,14.7883553 C6.88762275,15.0661719 7.07119025,15.275794 7.30253906,15.4172279 C7.53388788,15.5586618 7.80295257,15.6521078 8.10974121,15.6975687 C8.41652985,15.7430296 8.74091626,15.7657597 9.08291016,15.7657597 L9.1734375,15.7657597 Z M43.4060509,1.79418103 C42.2593654,1.79418103 41.3767327,2.26141101 40.7581261,3.19588497 C40.1395194,4.13035893 39.7748991,5.4966909 39.664254,7.29492188 L46.7706505,7.29492188 C46.7706505,6.47662576 46.7102995,5.7290578 46.5895958,5.05219558 C46.468892,4.37533336 46.2777807,3.79445286 46.0162559,3.30953664 C45.7547312,2.82462042 45.4102278,2.45083644 44.9827354,2.18817349 C44.5552431,1.92551054 44.0296868,1.79418103 43.4060509,1.79418103 Z M43.7832481,17.3720366 C42.6667386,17.3720366 41.6634039,17.1826191 40.7732139,16.8037783 C39.8830239,16.4249375 39.1311516,15.8718382 38.5175743,15.1444639 C37.903997,14.4170896 37.4337625,13.5255643 37.1068565,12.4698613 C36.7799506,11.4141582 36.6165001,10.2145137 36.6165001,8.8708917 C36.6165001,5.97149682 37.2099512,3.78940657 38.3968712,2.3245555 C39.5837912,0.859704421 41.273618,0.127289871 43.4664024,0.127289871 C44.4622082,0.127289871 45.3574141,0.283875051 46.1520469,0.597050108 C46.9466798,0.910225165 47.6205989,1.37745514 48.1738243,1.99875404 C48.7270497,2.62005294 49.1520211,3.39287657 49.4487511,4.31724811 C49.745481,5.24161965 49.8938438,6.31498581 49.8938438,7.53737877 L49.8938438,8.96181304 L39.6039024,8.96181304 C39.6240197,10.0932842 39.7371778,11.0656277 39.94338,11.8788726 C40.1495822,12.6921175 40.4463077,13.3613928 40.8335655,13.8867188 C41.2208233,14.4120447 41.6960871,14.7984565 42.2593712,15.0459658 C42.8226552,15.2934751 43.471428,15.4172279 44.2057091,15.4172279 C44.7388172,15.4172279 45.234198,15.3566143 45.6918663,15.2353852 C46.1495346,15.1141562 46.5644474,14.9525199 46.9366173,14.7504714 C47.3087871,14.548423 47.6382027,14.3185964 47.9248741,14.0609846 C48.2115455,13.8033729 48.4454054,13.5331372 48.626461,13.2502694 C48.767282,13.3108839 48.9005571,13.4371623 49.0262901,13.6291083 C49.1520232,13.8210543 49.2148887,14.0483554 49.2148887,14.3110183 C49.2148887,14.6241934 49.1042453,14.9600938 48.8829552,15.3187298 C48.661665,15.6773657 48.3247055,16.0082151 47.8720665,16.3112877 C47.4194275,16.6143604 46.8536373,16.8669171 46.1746788,17.0689655 C45.4957203,17.2710139 44.6985847,17.3720366 43.7832481,17.3720366 Z M66.3378341,15.7657597 L66.3378341,17.0689655 L58.0244064,17.0689655 L58.0244064,15.7657597 L58.4317794,15.7657597 C58.783832,15.7657597 59.1057038,15.740504 59.3974044,15.6899919 C59.6891051,15.6394798 59.9405675,15.5359315 60.151799,15.379344 C60.3630305,15.2227565 60.526481,14.997981 60.6421554,14.7050108 C60.7578298,14.4120406 60.8156662,14.0231032 60.8156662,13.538187 L60.8156662,3.85506466 C60.8156662,3.4004557 60.7553152,3.03424843 60.6346115,2.75643184 C60.5139077,2.47861526 60.3479426,2.26394203 60.1367111,2.11240571 C59.9254796,1.96086939 59.6740172,1.8598467 59.3823166,1.80933459 C59.0906159,1.75882248 58.7737733,1.73356681 58.4317794,1.73356681 L58.3412521,1.73356681 L58.3412521,0.430360991 L63.184465,0.430360991 L63.591838,2.94585129 L63.7427169,2.94585129 C64.0545349,2.37001328 64.3814359,1.89773218 64.7234298,1.5289938 C65.0654237,1.16025543 65.4300441,0.872340745 65.8173019,0.66524111 C66.2045597,0.458141475 66.6119287,0.3167097 67.039421,0.240941541 C67.4669134,0.165173382 67.9220602,0.127289871 68.4048751,0.127289871 C68.9078073,0.127289871 69.3855858,0.177801219 69.8382248,0.278825431 C70.2908637,0.379849643 70.7108058,0.541485958 71.0980636,0.763739224 C71.4853214,0.985992491 71.8323394,1.27643274 72.1391281,1.6350687 C72.4459167,1.99370465 72.6948644,2.43062781 72.8859787,2.94585129 L73.1424728,2.94585129 C73.4542908,2.37001328 73.7912503,1.89773218 74.1533615,1.5289938 C74.5154727,1.16025543 74.90021,0.872340745 75.3075851,0.66524111 C75.7149602,0.458141475 76.1424462,0.3167097 76.5900558,0.240941541 C77.0376655,0.165173382 77.5028708,0.127289871 77.9856857,0.127289871 C78.7702599,0.127289871 79.4743545,0.245991539 80.0979904,0.483398437 C80.7216263,0.720805336 81.2496972,1.08448704 81.6822189,1.57445447 C82.1147406,2.0644219 82.4466709,2.69328819 82.6780197,3.4610722 C82.9093685,4.22885621 83.0250412,5.14311161 83.0250412,6.20386584 L83.0250412,13.538187 C83.0250412,14.0231032 83.0853921,14.4120406 83.2060959,14.7050108 C83.3267996,14.997981 83.4927647,15.2227565 83.7039962,15.379344 C83.9152278,15.5359315 84.1666901,15.6394798 84.4583908,15.6899919 C84.7500914,15.740504 85.066934,15.7657597 85.4089279,15.7657597 L85.4994552,15.7657597 L85.4994552,17.0689655 L80.1281662,17.0689655 L80.1281662,6.3554014 C80.1281662,5.67853918 80.0703298,5.07745414 79.9546554,4.55212823 C79.838981,4.02680233 79.6528989,3.58230246 79.3964035,3.2186153 C79.139908,2.85492814 78.8054631,2.57964129 78.3930587,2.3927465 C77.9806543,2.20585171 77.4777297,2.11240571 76.8842697,2.11240571 C76.2405165,2.11240571 75.6998725,2.23615851 75.2623214,2.48366783 C74.8247704,2.73117715 74.4702085,3.06707762 74.1986251,3.49137931 C73.9270418,3.915681 73.7334158,4.40564108 73.6177414,4.96127425 C73.502067,5.51690741 73.4442306,6.10789019 73.4442306,6.7342403 L73.4442306,13.538187 C73.4442306,14.0231032 73.5045816,14.4120406 73.6252853,14.7050108 C73.745989,14.997981 73.9119542,15.2227565 74.1231857,15.379344 C74.3344172,15.5359315 74.5858795,15.6394798 74.8775802,15.6899919 C75.1692809,15.740504 75.4861234,15.7657597 75.8281173,15.7657597 L75.9186447,15.7657597 L75.9186447,17.0689655 L70.5473556,17.0689655 L70.5473556,6.3554014 C70.5473556,5.67853918 70.4895193,5.07745414 70.3738449,4.55212823 C70.2581705,4.02680233 70.0720883,3.58230246 69.8155929,3.2186153 C69.5590975,2.85492814 69.2246526,2.57964129 68.8122482,2.3927465 C68.3998438,2.20585171 67.8969191,2.11240571 67.3034591,2.11240571 C66.62953,2.11240571 66.0637397,2.24878635 65.6060714,2.52155172 C65.1484031,2.7943171 64.7787535,3.16304994 64.4971115,3.62776131 C64.2154694,4.09247269 64.0142996,4.62789298 63.8935959,5.23403825 C63.7728921,5.84018353 63.7125412,6.47662652 63.7125412,7.14338631 L63.7125412,13.6897225 C63.7125412,14.1443315 63.780436,14.5105388 63.9162277,14.7883553 C64.0520194,15.0661719 64.2355869,15.275794 64.4669357,15.4172279 C64.6982845,15.5586618 64.9673492,15.6521078 65.2741378,15.6975687 C65.5809265,15.7430296 65.9053129,15.7657597 66.2473068,15.7657597 L66.3378341,15.7657597 Z M108.20492,8.71935614 C108.20492,11.6389559 107.588837,13.8109438 106.356654,15.2353852 C105.12447,16.6598266 103.321485,17.3720366 100.947645,17.3720366 C99.8311353,17.3720366 98.8303152,17.1952469 97.9451545,16.8416622 C97.0599938,16.4880774 96.3081215,15.9526571 95.6895149,15.2353852 C95.0709083,14.5181133 94.5981591,13.6164858 94.2712532,12.5304755 C93.9443472,11.4444652 93.7808967,10.1741048 93.7808967,8.71935614 C93.7808967,5.81996126 94.3919502,3.66312668 95.6140754,2.24878772 C96.8362007,0.834448747 98.6442148,0.127289871 101.038172,0.127289871 C102.154682,0.127289871 103.155502,0.301554022 104.040662,0.650087554 C104.925823,0.998621085 105.677695,1.52899024 106.296302,2.24121094 C106.914909,2.95343163 107.387658,3.8474825 107.714564,4.92339036 C108.04147,5.99929821 108.20492,7.26460749 108.20492,8.71935614 Z M96.768299,8.71935614 C96.768299,9.87103216 96.8437377,10.8863103 96.9946174,11.7652209 C97.1454971,12.6441315 97.3894155,13.3790717 97.7263801,13.9700633 C98.0633447,14.5610549 98.5008891,15.0080804 99.0390266,15.311153 C99.577164,15.6142257 100.233481,15.7657597 101.007996,15.7657597 C101.782512,15.7657597 102.436314,15.6142257 102.969422,15.311153 C103.50253,15.0080804 103.935045,14.5610549 104.266981,13.9700633 C104.598916,13.3790717 104.837805,12.6441315 104.983655,11.7652209 C105.129506,10.8863103 105.20243,9.87103216 105.20243,8.71935614 C105.20243,7.56768013 105.126991,6.55745316 104.976112,5.68864494 C104.825232,4.81983671 104.583828,4.09499886 104.251893,3.51410964 C103.919958,2.93322043 103.484928,2.49629726 102.94679,2.20332705 C102.408653,1.91035683 101.752336,1.76387392 100.977821,1.76387392 C100.203305,1.76387392 99.5495029,1.91035683 99.0163948,2.20332705 C98.4832866,2.49629726 98.0507714,2.93322043 97.7188362,3.51410964 C97.3869009,4.09499886 97.1454971,4.81983671 96.9946174,5.68864494 C96.8437377,6.55745316 96.768299,7.56768013 96.768299,8.71935614 Z M125.569272,17.0689655 L116.652328,17.0689655 L116.652328,15.7657597 L116.742856,15.7657597 C117.094908,15.7657597 117.424324,15.740504 117.731113,15.6899919 C118.037901,15.6394798 118.304451,15.5359315 118.530771,15.379344 C118.75709,15.2227565 118.938143,14.997981 119.073935,14.7050108 C119.209727,14.4120406 119.277621,14.0231032 119.277621,13.538187 L119.277621,3.85506466 C119.277621,3.4004557 119.209727,3.03424843 119.073935,2.75643184 C118.938143,2.47861526 118.754576,2.26394203 118.523227,2.11240571 C118.291878,1.96086939 118.022813,1.8598467 117.716025,1.80933459 C117.409236,1.75882248 117.08485,1.73356681 116.742856,1.73356681 L116.652328,1.73356681 L116.652328,0.430360991 L121.405014,0.430360991 L121.993442,3.50653287 L122.144321,3.50653287 C122.345493,3.04182149 122.551693,2.60489833 122.762924,2.19575027 C122.974156,1.78660221 123.233162,1.42797164 123.53995,1.11984779 C123.846739,0.811723944 124.226447,0.569269472 124.679086,0.392477101 C125.131725,0.21568473 125.70003,0.127289871 126.384018,0.127289871 C127.510586,0.127289871 128.347956,0.324284129 128.896152,0.718278556 C129.444348,1.11227298 129.718442,1.66789781 129.718442,2.38516972 C129.718442,2.7084472 129.665635,3.00646415 129.560019,3.27922953 C129.454403,3.5519949 129.285923,3.78687267 129.054575,3.98386988 C128.823226,4.18086709 128.5265,4.33240114 128.164389,4.43847656 C127.802278,4.54455199 127.359704,4.5975889 126.836655,4.5975889 C126.836655,3.7388831 126.715953,3.12011908 126.474545,2.74127829 C126.233138,2.36243749 125.810681,2.17301994 125.207162,2.17301994 C124.824934,2.17301994 124.482945,2.28161933 124.181186,2.49882139 C123.879427,2.71602345 123.615391,3.00393813 123.389072,3.36257408 C123.162752,3.72121004 122.971641,4.13287753 122.815732,4.5975889 C122.659823,5.06230028 122.534092,5.53963252 122.438534,6.02959995 C122.342977,6.51956737 122.275083,7.00700189 122.234848,7.4919181 C122.194613,7.97683432 122.174496,8.41628305 122.174496,8.81027748 L122.174496,13.6897225 C122.174496,14.1443315 122.242391,14.5105388 122.378183,14.7883553 C122.513975,15.0661719 122.697542,15.275794 122.928891,15.4172279 C123.16024,15.5586618 123.429304,15.6521078 123.736093,15.6975687 C124.042882,15.7430296 124.367268,15.7657597 124.709262,15.7657597 L125.569272,15.7657597 L125.569272,17.0689655 Z M153.359356,0.430360991 L153.359356,1.73356681 L153.268828,1.73356681 C152.967069,1.73356681 152.708063,1.76639919 152.491802,1.83206492 C152.275541,1.89773066 152.079401,2.02148347 151.903374,2.20332705 C151.727348,2.38517063 151.563898,2.63267624 151.413018,2.94585129 C151.262138,3.25902635 151.096173,3.66311714 150.915118,4.15813578 L146.222784,17.190194 C145.860672,18.1903337 145.518684,19.0692311 145.196807,19.8269127 C144.87493,20.5845943 144.537971,21.2336651 144.185918,21.7741447 C143.833866,22.3146242 143.449128,22.7616496 143.031695,23.1152344 C142.614261,23.4688191 142.138997,23.7516827 141.605889,23.9638335 C141.072781,24.1759844 140.459213,24.3224673 139.765166,24.4032866 C139.07112,24.484106 138.26644,24.5245151 137.351104,24.5245151 L137.079522,24.5245151 L137.079522,23.0546202 C138.125621,23.0546202 139.025856,22.898035 139.780254,22.5848599 C140.534653,22.2716849 141.18594,21.8423384 141.734136,21.2968077 C142.282332,20.7512769 142.739994,20.1072572 143.107134,19.3647293 C143.474275,18.6222013 143.783573,17.8165453 144.035039,16.9477371 L138.316729,3.38530442 C138.175908,3.06202694 138.040118,2.79684236 137.909356,2.58974273 C137.778593,2.38264309 137.630231,2.21343007 137.464263,2.0820986 C137.298295,1.95076712 137.107184,1.8598467 136.890923,1.80933459 C136.674662,1.75882248 136.415656,1.73356681 136.113897,1.73356681 L136.02337,1.73356681 L136.02337,0.430360991 L143.446612,0.430360991 L143.446612,1.73356681 L143.356084,1.73356681 C142.732448,1.73356681 142.267243,1.85479405 141.960454,2.09725216 C141.653666,2.33971026 141.500274,2.71854538 141.500274,3.23376886 C141.500274,3.40551002 141.517876,3.57977417 141.553081,3.75656654 C141.588287,3.93335891 141.651152,4.13792987 141.74168,4.37028556 L144.004864,9.90133351 C144.145685,10.2549183 144.294047,10.6413301 144.449956,11.0605805 C144.605865,11.479831 144.751714,11.8940241 144.887505,12.3031721 C145.023297,12.7123202 145.146513,13.098732 145.257159,13.4624192 C145.367804,13.8261063 145.443242,14.1392767 145.483477,14.4019397 L145.574004,14.4019397 C145.684649,13.9473307 145.838041,13.3942314 146.034185,12.7426253 C146.230328,12.0910191 146.459159,11.3914369 146.720684,10.6438578 L148.787725,4.5975889 C148.878253,4.34502837 148.946148,4.1025739 148.991412,3.87021821 C149.036675,3.63786252 149.059307,3.43581713 149.059307,3.26407597 C149.059307,2.72864765 148.890827,2.33971026 148.553863,2.09725216 C148.216898,1.85479405 147.70643,1.73356681 147.022442,1.73356681 L146.931914,1.73356681 L146.931914,0.430360991 L153.359356,0.430360991 Z" id="memory" fill="#181819"></path>
            </g>
        </g>
    </g>
</svg>