<?xml version="1.0" encoding="UTF-8"?>
<svg width="39px" height="90px" viewBox="0 0 39 90" version="1.1" xmlns="http://www.w3.org/2000/svg" xmlns:xlink="http://www.w3.org/1999/xlink">
    <!-- Generator: Sketch 51.3 (57544) - http://www.bohemiancoding.com/sketch -->
    <title>candle</title>
    <desc>Created with Sketch.</desc>
    <defs></defs>
    <g id="Page-1" stroke="none" stroke-width="1" fill="none" fill-rule="evenodd">
        <g id="candle" fill="#FFFFFF" fill-rule="nonzero">
            <path d="M14.769745,29.7640229 C14.769745,31.8198394 16.4417266,33.5089874 18.4975434,33.5295868 L18.5359955,33.5295868 C20.6110382,33.5295868 22.3008729,31.8507384 22.3008729,29.7640229 L22.3008729,26.7585754 L27.2927856,26.7585754 L27.2927856,20.87677 L25.647583,19.232254 L20.3665924,19.232254 L20.3665924,17.6893615 C23.1893921,17.0816803 25.3118134,14.5664979 25.3118134,11.5651703 C25.3118134,8.54873648 20.9742736,2.58247371 20.1049805,1.41654973 L19.048233,0 L17.9907989,1.41654973 C17.1215058,2.58247371 12.783966,8.54873648 12.783966,11.5651703 C12.783966,14.5664979 14.9063873,17.0816803 17.729187,17.6893615 L17.729187,19.232254 L12.2998809,19.232254 L10.6546783,20.8774566 L10.6546783,26.7592621 L14.769745,26.7592621 L14.769745,29.7640229 Z M15.4213715,11.5651703 C15.4213715,10.2571105 17.2986602,7.02781682 19.0475464,4.47555551 C20.7971191,7.02781682 22.674408,10.2571105 22.674408,11.5651703 C22.674408,13.0998231 21.7158507,14.4147491 20.3665924,14.9434662 L20.3665924,12.4076844 L17.729187,12.4076844 L17.729187,14.9434662 C16.3799286,14.4147491 15.4213715,13.0998231 15.4213715,11.5651703 Z M13.2920838,24.12117 L13.2920838,21.9692231 L13.392334,21.8689727 L24.55513,21.8689727 L24.6553803,21.9692231 L24.6553803,24.12117 L22.1072388,24.12117 C20.7593536,24.12117 19.6634674,25.217743 19.6634674,26.565628 L19.6634674,29.7640229 C19.6634674,30.3662109 19.191742,30.883255 18.5236358,30.8921815 C17.9077148,30.8860015 17.4071503,30.3799438 17.4071503,29.7640229 L17.4071503,26.565628 C17.4071503,25.217743 16.3105773,24.12117 14.9626923,24.12117 L13.2920838,24.12117 Z" id="Shape"></path>
            <polygon id="Shape" points="11.5088653 31.4840698 14.1462707 31.4840698 14.1462707 46.8505097 11.5088653 46.8505097"></polygon>
            <polygon id="Shape" points="23.8005067 28.9572144 26.437912 28.9572144 26.437912 46.8505097 23.8005067 46.8505097"></polygon>
            <path d="M0.725784258,56.2259674 L3.56369027,56.2259674 L3.56369027,60.0540161 L10.8414459,67.3310851 L15.2689361,67.3310851 L15.2689361,76.7504883 L12.7393341,76.7504883 L12.7393341,79.3878936 L15.2689361,79.3878936 L15.2689361,82.8787994 L10.8153534,82.8787994 L8.53637695,85.1584625 L8.53637695,90 L29.4104004,90 L29.4104004,85.1584625 L27.1307373,82.8787994 L22.6785278,82.8787994 L22.6785278,79.3878936 L25.0309754,79.3878936 L25.0309754,76.7504883 L22.6785278,76.7504883 L22.6785278,67.3310851 L27.1046447,67.3310851 L34.3824005,60.0540161 L34.3824005,56.2259674 L37.2216797,56.2259674 L37.2216797,49.0491485 L0.725784258,49.0491485 L0.725784258,56.2259674 Z M26.0382843,85.5162049 L26.772995,86.2509155 L26.772995,87.3625946 L11.1730957,87.3625946 L11.1730957,86.2509155 L11.9078065,85.5162049 L26.0382843,85.5162049 Z M20.0411225,82.8787994 L17.9063416,82.8787994 L17.9063416,79.3878936 L20.0411225,79.3878936 L20.0411225,82.8787994 Z M20.0411225,76.7504883 L17.9063416,76.7504883 L17.9063416,67.3310851 L20.0411225,67.3310851 L20.0411225,76.7504883 Z M31.7449951,58.9615631 L26.0121918,64.6936798 L11.9332123,64.6936798 L6.20109562,58.9615631 L6.20109562,56.2259674 L31.7443085,56.2259674 L31.7443085,58.9615631 L31.7449951,58.9615631 Z M3.36250301,51.6858673 L34.5842743,51.6858673 L34.5842743,53.588562 L3.36250301,53.588562 L3.36250301,51.6858673 Z" id="Shape"></path>
            <polygon id="Shape" points="31.6481781 10.0222778 38.0957794 10.0222778 38.0957794 12.6596832 31.6481781 12.6596832"></polygon>
            <polygon id="Shape" points="28.9146424 5.13130184 33.4739686 0.571975664 35.3388976 2.43690486 30.7795714 6.99623104"></polygon>
            <polygon id="Shape" points="28.2568359 17.2814941 30.1217651 15.4165649 34.6804047 19.9758911 32.8161621 21.8408203"></polygon>
            <polygon id="Shape" points="0 10.0222778 6.44760141 10.0222778 6.44760141 12.6596832 0 12.6596832"></polygon>
            <polygon id="Shape" points="2.75756836 2.43484488 4.62249756 0.569915859 9.18182373 5.12924203 7.31689453 6.99348445"></polygon>
            <polygon id="Shape" points="3.41468807 19.9752045 7.97332764 15.4158783 9.83825684 17.2808075 5.27961727 21.8401337"></polygon>
            <path d="M22.0426942,47.8523254 L19.4052887,47.8523254 L19.4052887,43.4818267 L22.0426942,43.4818267 L22.0426942,47.8523254 Z M22.0426942,41.7233276 L19.4052887,41.7233276 L19.4052887,39.0859223 L22.0426942,39.0859223 L22.0426942,41.7233276 Z M22.0426942,37.3281098 L19.4052887,37.3281098 L19.4052887,34.6907043 L22.0426942,34.6907043 L22.0426942,37.3281098 Z" id="Shape"></path>
            <path d="M28.1497192,60.6211854 L24.6251679,60.6211854 L24.6251679,57.9837799 L28.1497192,57.9837799 L28.1497192,60.6211854 Z M22.8666688,60.6211854 L20.2292633,60.6211854 L20.2292633,57.9837799 L22.8666688,57.9837799 L22.8666688,60.6211854 Z M18.4707642,60.6211854 L15.8340454,60.6211854 L15.8340454,57.9837799 L18.4707642,57.9837799 L18.4707642,60.6211854 Z" id="Shape"></path>
        </g>
    </g>
</svg>