<?xml version="1.0" encoding="UTF-8"?>
<svg width="60px" height="90px" viewBox="0 0 60 90" version="1.1" xmlns="http://www.w3.org/2000/svg" xmlns:xlink="http://www.w3.org/1999/xlink">
    <!-- Generator: Sketch 51.3 (57544) - http://www.bohemiancoding.com/sketch -->
    <title>coffin</title>
    <desc>Created with Sketch.</desc>
    <defs></defs>
    <g id="Page-1" stroke="none" stroke-width="1" fill="none" fill-rule="evenodd">
        <g id="coffin" fill="#FFFFFF" fill-rule="nonzero">
            <path d="M31.5227315,44.6353912 C32.3486917,44.6353912 33.1753576,44.3291474 33.804358,43.7180328 C34.4135919,43.1254579 34.7489176,42.3371886 34.7489176,41.4987945 C34.7489176,40.6604004 34.4135919,39.8728179 33.804358,39.280243 C32.5463573,38.0566406 30.4991058,38.0566406 29.2418111,39.280243 C28.6325772,39.8728179 28.2965456,40.6604004 28.2965456,41.4987945 C28.2965456,42.3371886 28.6325772,43.1254579 29.2418111,43.7180328 C29.8708113,44.329834 30.6967715,44.6353912 31.5227315,44.6353912 Z M31.1584619,41.1444854 C31.3596575,40.9487915 31.6865116,40.9487915 31.8870011,41.1444854 C32.0881966,41.3401795 32.0881966,41.6574097 31.8870011,41.8531036 C31.6865116,42.0487977 31.3596575,42.0487977 31.1584619,41.8531036 C30.9579725,41.6580963 30.9579725,41.3401795 31.1584619,41.1444854 Z" id="Shape"></path>
            <path d="M42.5997741,45.6207275 C41.2267037,46.956253 41.2267037,49.1294862 42.5997741,50.4650116 C43.264778,51.1118316 44.1486257,51.4682007 45.0896555,51.4682007 C46.0299793,51.4682007 46.9145331,51.1118316 47.579537,50.4650116 C48.9526073,49.1294862 48.9526073,46.956253 47.579537,45.6207275 C46.2071725,44.2852021 43.9728445,44.2852021 42.5997741,45.6207275 Z M45.662886,48.6000824 C45.3459148,48.9083862 44.8333961,48.9083862 44.5164251,48.6000824 C44.2001601,48.2931519 44.2001601,47.7925873 44.5164251,47.4849701 C44.8326902,47.1773529 45.3473268,47.1780396 45.662886,47.4849701 C45.979151,47.7925873 45.979151,48.2931519 45.662886,48.6000824 Z" id="Shape"></path>
            <path d="M52.9609845,44.8715972 C53.0562877,43.6727143 52.6150697,42.460785 51.7220443,41.5921783 C50.8283133,40.7228852 49.5830196,40.2944184 48.3504329,40.3864288 C47.880977,39.8535919 47.2788027,39.4429779 46.6074454,39.1937256 C46.6286239,39.0591431 46.640625,38.9238739 46.6427429,38.7872314 C47.1884413,38.2392882 47.5117659,37.4963379 47.5117659,36.7142486 C47.5117659,35.9314727 47.1884413,35.1885224 46.6427429,34.6412658 C46.6307418,33.8790894 46.3187123,33.1306457 45.7497177,32.5778961 C45.1814288,32.0244599 44.4126506,31.7216493 43.6283414,31.7092896 C43.0657003,31.1785126 42.3011577,30.8640289 41.4970822,30.8640289 C40.6930064,30.8640289 39.9284639,31.1785126 39.3658227,31.7092896 C38.5822195,31.7216493 37.8127354,32.0244599 37.2444466,32.5778961 C36.6754518,33.1306457 36.3641284,33.8790894 36.3514213,34.6412658 C36.2504707,34.7428895 36.1565794,34.8513794 36.0711596,34.9653625 C35.5473455,34.7641754 34.9818806,34.6728516 34.4171216,34.7016906 C33.6892883,33.9147949 32.6367188,33.4410096 31.5227315,33.4410096 C30.4087444,33.4410096 29.3561747,33.9147949 28.6283414,34.7016906 C27.5418864,34.6460723 26.4519014,35.0354004 25.6647685,35.8010102 C24.8769296,36.56662 24.4773625,37.6261138 24.5345443,38.6835479 C23.7255271,39.3914795 23.2384225,40.4159546 23.2384225,41.4987945 C23.2384225,42.5823212 23.7255271,43.6061095 24.5345443,44.3140411 C24.5310146,44.3854522 24.5288967,44.4568634 24.5296028,44.5282745 L14.9089327,63.4398652 L4.67902861,70.7210541 L12.9471009,78.7623595 L18.1788875,71.8080138 L18.1788875,75.3600312 L20.8897308,75.3600312 L20.8897308,70.9565734 L23.6351657,73.6269379 L25.5525226,71.7626953 L21.8194654,68.1324005 L44.3759413,57.1069336 C44.6096104,57.1460723 44.848221,57.1659852 45.0896555,57.1659852 C46.3525979,57.1659852 47.5456514,56.6125488 48.349727,55.6993104 C49.5830196,55.7920074 50.8283133,55.362854 51.7213384,54.4942475 C52.6150697,53.6249542 53.0562877,52.4137115 52.9609845,51.2148285 C53.8998965,50.4320527 54.4688911,49.2723084 54.4688911,48.0432129 C54.4688911,46.8141173 53.8998965,45.6536865 52.9609845,44.8715972 Z M38.3894955,36.4107514 L39.4759507,35.8998871 L39.0792074,34.7909546 C39.0453219,34.6941376 39.0481457,34.552002 39.1610975,34.4421387 C39.2747552,34.3322754 39.4208866,34.3288422 39.5204255,34.3624878 L40.6605327,34.7483827 L41.1857586,33.6909484 C41.2316454,33.5996246 41.3375377,33.5007476 41.4970822,33.5007476 C41.6573324,33.5007476 41.7632248,33.5996246 41.8091114,33.6909484 L42.3343373,34.7476959 L43.4744447,34.3624878 C43.5732775,34.3288422 43.7201149,34.3315888 43.8330667,34.4421387 C43.9460185,34.552002 43.9495482,34.6941376 43.9149567,34.7909546 L43.5182134,35.8992004 L44.6053746,36.4107514 C44.6999718,36.4553833 44.8009225,36.55838 44.8009225,36.7142486 C44.8009225,36.8694306 44.6999718,36.9724273 44.6053746,37.0170594 L43.5182134,37.5286103 L43.9149567,38.6375428 C43.9495482,38.733673 43.9467244,38.8758087 43.8330667,38.985672 C43.7201149,39.0955352 43.5732775,39.0989686 43.4744447,39.0653228 L42.3343373,38.6801147 L41.8091114,39.7368622 C41.7632248,39.8288726 41.6573324,39.927063 41.4970822,39.927063 C41.3375377,39.927063 41.2316454,39.8288726 41.1857586,39.7368622 L40.6605327,38.6801147 L39.5204255,39.0653228 C39.4208866,39.0989686 39.2747552,39.0955352 39.1610975,38.985672 C39.0481457,38.8758087 39.0453219,38.733673 39.0792074,38.636856 L39.4759507,37.5279237 L38.3894955,37.0170594 C38.2948984,36.9724273 38.1939477,36.8694306 38.1939477,36.713562 C38.1939477,36.55838 38.2948984,36.4553833 38.3894955,36.4107514 Z M26.6135637,40.4695129 L27.7000189,39.9586486 L27.3032756,38.8497162 C27.1536145,38.431549 27.2602128,37.9783631 27.5814195,37.6652528 C27.9026261,37.352829 28.3692582,37.2491455 28.7991811,37.3947144 L29.9392883,37.7799224 L30.4645142,36.723175 C30.662886,36.3249207 31.0681005,36.0770416 31.5227315,36.0770416 C31.9773625,36.0770416 32.3825772,36.3249207 32.5809488,36.723175 L33.1061747,37.7799224 L34.246282,37.3947144 C34.6762048,37.2491455 35.1428369,37.352829 35.4640437,37.6652528 C35.7852504,37.9783631 35.8918486,38.431549 35.7421876,38.8497162 L35.3454443,39.9586486 L36.4326054,40.4701996 C36.8420557,40.6624604 37.0961973,41.0572814 37.0961973,41.4987945 C37.0961973,41.9409942 36.8420557,42.3351288 36.4326054,42.5280762 L35.3454443,43.0389404 L35.7421876,44.147873 C35.8918486,44.56604 35.7852504,45.0199127 35.4640437,45.3323364 C35.1428369,45.6454468 34.6754989,45.7491303 34.246282,45.6035614 L33.1061747,45.2176666 L32.5809488,46.2744141 C32.3825772,46.6733551 31.9773625,46.9205474 31.5227315,46.9205474 C31.0681005,46.9205474 30.662886,46.6733551 30.4645142,46.2744141 L29.9392883,45.2176666 L28.7991811,45.6035614 C28.3692582,45.7491303 27.9026261,45.6454468 27.5814195,45.3323364 C27.2602128,45.0199127 27.1536145,44.56604 27.3032756,44.147873 L27.7000189,43.0389404 L26.6135637,42.5280762 C26.2034075,42.3351288 25.9492659,41.9409942 25.9492659,41.4987945 C25.9492659,41.0565948 26.2034075,40.6624604 26.6135637,40.4695129 Z M26.0353916,47.5138092 C26.7766377,48.0686187 27.7028425,48.3432769 28.6283414,48.2958984 C29.3561747,49.0827941 30.4094503,49.5572662 31.5227315,49.5572662 C32.6367188,49.5572662 33.6892883,49.0827941 34.4171216,48.2958984 C34.8555159,48.3185577 35.293204,48.2684326 35.7118317,48.1510162 C35.7443053,49.3395996 36.3069466,50.4547119 37.2183264,51.2141418 C37.1230233,52.4130249 37.5642414,53.6242676 38.4572666,54.4935607 C39.2020426,55.2172852 40.1910768,55.6354522 41.2132907,55.7020568 L19.8004518,66.1679077 L17.6233057,64.050293 L26.0353916,47.5138092 Z M12.6273061,74.7228241 L8.83283133,71.0321045 L15.8400792,66.0443115 L17.7546123,67.9071807 L12.6273061,74.7228241 Z M50.8685523,49.4219971 L49.7813911,49.9335479 L50.1781345,51.0417939 C50.3786239,51.6020966 50.2360222,52.2104644 49.8053935,52.6293183 C49.3740587,53.048172 48.7492941,53.1868744 48.1732399,52.9918671 L47.0331325,52.6059722 L46.5079066,53.6627197 C46.241764,54.1969298 45.6988894,54.5285797 45.0896555,54.5285797 C44.4804217,54.5285797 43.9375471,54.1969298 43.6714045,53.6634063 L43.1461786,52.6059722 L42.0060712,52.9918671 C41.4307229,53.187561 40.8045463,53.048172 40.3739176,52.6293183 C39.9432887,52.2104644 39.8006872,51.6020966 40.0011766,51.0417939 L40.3979198,49.9328613 L39.3114647,49.4219971 C38.7622364,49.1638184 38.4212631,48.6351014 38.4212631,48.0425263 C38.4212631,47.4499512 38.7622364,46.9219208 39.3114647,46.6637421 L40.3979198,46.1521913 L40.0011766,45.0432587 C39.8006872,44.482956 39.9439948,43.8752746 40.3746235,43.4564209 C40.8052522,43.0375672 41.430017,42.8981781 42.0060712,43.0931855 L43.1461786,43.4790802 L43.6721104,42.4223329 C43.9375471,41.8881226 44.4811276,41.5564727 45.0896555,41.5564727 C45.6988894,41.5564727 46.241764,41.8881226 46.5079066,42.4223329 L47.0338384,43.4790802 L48.1732399,43.0931855 C48.7492941,42.8981781 49.3747646,43.0375672 49.8053935,43.4557343 C50.2360222,43.874588 50.3786239,44.482956 50.1781345,45.0432587 L49.7820972,46.1521913 L50.8685523,46.6630555 C51.4177805,46.9212342 51.7580478,47.4499512 51.7580478,48.0425263 C51.7580478,48.6351014 51.4170745,49.1638184 50.8685523,49.4219971 Z" id="Shape"></path>
            <polygon id="Shape" points="30.8118412 28.6763764 30.8118412 32.1226502 33.5226846 32.1226502 33.5226846 31.3130951 38.4212631 31.3130951 38.4212631 24.638214 33.5226846 24.638214 33.5226846 19.8742676 26.6608623 19.8742676 26.6608623 24.638214 21.7622836 24.638214 21.7622836 31.3130951 26.6608623 31.3130951 26.6608623 32.1226502 29.3717057 32.1226502 29.3717057 28.6763764 24.4731269 28.6763764 24.4731269 27.2749328 29.3717057 27.2749328 29.3717057 22.5109863 30.8118412 22.5109863 30.8118412 27.2749328 35.7104198 27.2749328 35.7104198 28.6763764"></polygon>
            <polygon id="Shape" points="40.1416605 35.3958892 42.8525039 35.3958892 42.8525039 38.032608 40.1416605 38.032608"></polygon>
            <polygon id="Shape" points="52.91298 39.1085815 55.1275413 29.2222596 43.0452278 4.39453125 16.8241717 4.39453125 4.74185801 29.2222596 12.0392508 61.8035889 14.6879707 61.2425995 7.58753765 29.5388031 18.5403333 7.03125 41.3290663 7.03125 52.2818619 29.5388031 50.2642601 38.5475922"></polygon>
            <polygon id="Shape" points="42.4995293 85.6054688 48.3807887 59.3453979 45.7320689 58.7837218 40.3153238 82.96875 19.5540757 82.96875 18.2099492 76.9674683 15.5612293 77.5284576 17.3698701 85.6054688"></polygon>
            <polygon id="Shape" points="45.9050263 0 13.9643731 0 0 28.6949159 8.10782187 64.8955536 10.7565417 64.3345643 2.84497373 29.0114594 15.6805346 2.63671875 44.1895708 2.63671875 57.0244258 29.0114594 53.8278896 43.2833862 56.4766095 43.8443756 59.8693995 28.6949159"></polygon>
            <polygon id="Shape" points="43.9551958 87.3632812 15.9142037 87.3632812 14.6470256 81.7039491 11.9983057 82.2649384 13.730704 90 46.1394014 90 53.4784449 57.2312164 50.8297251 56.6702271"></polygon>
            <path d="M47.7376695,30.4719543 L41.9679499,18.6156464 L44.4182982,17.4874878 L50.1880177,29.3437958 L47.7376695,30.4719543 Z M41.1949359,17.0267486 L40.0350622,14.6434022 L42.4854105,13.5152436 L43.6452842,15.89859 L41.1949359,17.0267486 Z M39.2613423,13.0545044 L38.1021743,10.6718446 L40.5525226,9.54368596 L41.7116906,11.9270324 L39.2613423,13.0545044 Z" id="Shape"></path>
            <path d="M23.1049981,62.5856781 L21.8872364,60.2297974 L26.4088384,58.020172 L27.6258942,60.3760528 L23.1049981,62.5856781 Z M29.241105,59.5864106 L28.0233434,57.2305298 L30.4461596,56.0467529 L31.6632154,58.4026337 L29.241105,59.5864106 Z M33.2777203,57.6129913 L32.0606646,55.2571105 L34.4827749,54.0733338 L35.6998305,56.4292144 L33.2777203,57.6129913 Z" id="Shape"></path>
            <path d="M39.0919146,80.1734161 L36.4431947,79.6117402 L38.5723363,70.1058197 L41.2210561,70.6668091 L39.0919146,80.1734161 Z M41.6057982,68.9495087 L38.9570783,68.3885194 L39.5338384,65.8122254 L42.1825583,66.3732148 L41.6057982,68.9495087 Z M42.5673004,64.6559142 L39.9185805,64.0949249 L40.4953408,61.5186309 L43.1440607,62.0796203 L42.5673004,64.6559142 Z" id="Shape"></path>
        </g>
    </g>
</svg>