<?xml version="1.0" encoding="UTF-8"?>
<svg width="54px" height="66px" viewBox="0 0 54 66" version="1.1" xmlns="http://www.w3.org/2000/svg" xmlns:xlink="http://www.w3.org/1999/xlink">
    <!-- Generator: Sketch 51.3 (57544) - http://www.bohemiancoding.com/sketch -->
    <title>stopwatch</title>
    <desc>Created with Sketch.</desc>
    <defs></defs>
    <g id="Page-1" stroke="none" stroke-width="1" fill="none" fill-rule="evenodd">
        <g id="stopwatch" fill-rule="nonzero">
            <path d="M52.7142857,38.9296875 C52.7142857,53.1687928 41.2021206,64.7109375 27,64.7109375 C12.7978794,64.7109375 1.28571429,53.1687928 1.28571429,38.9296875 C1.28571429,24.7389221 12.747154,13.1484375 27,13.1484375 C41.2036272,13.1484375 52.7142857,24.6895752 52.7142857,38.9296875 Z" id="Shape" fill="#DEE7F0"></path>
            <path d="M45,38.9296875 C45,48.8811493 36.9261161,56.9765625 27,56.9765625 C17.0743861,56.9765625 9,48.8816528 9,38.9296875 C9,28.9782257 17.0738839,20.8828125 27,20.8828125 C36.9256139,20.8828125 45,28.9777222 45,38.9296875 Z" id="Shape" fill="#FAFAFF"></path>
            <path d="M34.7142857,3.8671875 L34.7142857,7.21875 C32.7691407,7.21875 21.2283482,7.21875 19.2857143,7.21875 L19.2857143,3.8671875 C19.2857143,2.44267276 20.4363282,1.2890625 21.8571429,1.2890625 L32.1428571,1.2890625 C33.5636718,1.2890625 34.7142857,2.44267276 34.7142857,3.8671875 Z" id="Shape" fill="#DEE7F0"></path>
            <path d="M27,36.3515625 C28.419308,36.3515625 29.5714286,37.5066834 29.5714286,38.9296875 C29.5714286,40.3526916 28.419308,41.5078125 27,41.5078125 C25.580692,41.5078125 24.4285714,40.3526916 24.4285714,38.9296875 C24.4285714,37.5066834 25.580692,36.3515625 27,36.3515625 Z" id="Shape" fill="#DEE7F0"></path>
            <path d="M25.7142857,49.2421875 C25.7142857,49.9536895 26.290346,50.53125 27,50.53125 C27.709654,50.53125 28.2857143,49.9536895 28.2857143,49.2421875 C28.2857143,48.5306855 27.709654,47.953125 27,47.953125 C26.290346,47.953125 25.7142857,48.5306855 25.7142857,49.2421875 Z" id="Shape" fill="#181819"></path>
            <path d="M48.0626115,21.9916076 L50.8309151,19.2160949 C52.3345982,17.7084961 52.3345982,15.255249 50.8309151,13.7476502 C49.3272321,12.2400513 46.8798549,12.2400513 45.3766742,13.7476502 L42.4215401,16.7104797 C39.3388393,14.5578461 35.824721,13.0678711 32.1428571,12.3528442 L32.1428571,8.5078125 L34.7142857,8.5078125 C35.424442,8.5078125 36,7.93075568 36,7.21875 L36,3.8671875 C36,1.7346954 34.2698103,0 32.1428571,0 L21.8571429,0 C19.7301897,0 18,1.7346954 18,3.8671875 L18,7.21875 C18,7.93075568 18.575558,8.5078125 19.2857143,8.5078125 L21.8571429,8.5078125 L21.8571429,12.3528442 C18.1757813,13.0673676 14.6611607,14.5578461 11.5784599,16.7104797 L8.62332583,13.7476502 C7.11964286,12.2400513 4.67276786,12.2400513 3.16908489,13.7476502 C1.66540179,15.255249 1.66540179,17.7084961 3.16908489,19.2160949 L5.93688613,21.9916076 C2.10033489,26.7827911 0,32.7507476 0,38.9296875 C0,53.8561249 12.1123326,66 27,66 C41.8876674,66 54,53.8561249 54,38.9296875 C54,32.7507476 51.8996651,26.7827911 48.0626115,21.9916076 Z M47.1947544,15.570465 C47.6959821,15.0684356 48.5116071,15.0684356 49.0128349,15.570465 C49.5135603,16.072998 49.5135603,16.8907471 49.0128349,17.3932801 L46.3560268,20.0565033 C45.7573661,19.4401703 45.1295758,18.8525391 44.4766742,18.2961274 L47.1947544,15.570465 Z M20.5714286,3.8671875 C20.5714286,3.15618896 21.1479911,2.578125 21.8571429,2.578125 L32.1428571,2.578125 C32.8520089,2.578125 33.4285714,3.15618896 33.4285714,3.8671875 L33.4285714,5.9296875 L20.5714286,5.9296875 L20.5714286,3.8671875 Z M29.5714286,8.5078125 L29.5714286,11.9812316 C27.8668527,11.821106 26.1336496,11.8206024 24.4285714,11.9812316 L24.4285714,8.5078125 L29.5714286,8.5078125 Z M4.98716511,15.570465 C5.48839286,15.0684356 6.30401786,15.0684356 6.8052456,15.570465 L9.52332583,18.2961274 C8.87042417,18.8525391 8.24263393,19.4401703 7.64397321,20.0565033 L4.98716511,17.3932801 C4.4864397,16.8907471 4.4864397,16.072998 4.98716511,15.570465 Z M27,63.421875 C13.5301339,63.421875 2.57142857,52.4346313 2.57142857,38.9296875 C2.57142857,32.9723053 4.72851566,27.2324523 8.64492184,22.7665558 C9.72371649,21.536911 10.927567,20.412506 12.2228236,19.4245605 C15.46875,16.9481506 19.3108258,15.3181915 23.3337054,14.7104188 C24.538058,14.5296479 25.7710379,14.4375 27,14.4375 C28.2289621,14.4375 29.461942,14.5296479 30.6657924,14.7104188 C34.6891742,15.3181915 38.53125,16.9481506 41.7776786,19.4245605 C43.072433,20.412506 44.2762835,21.536911 45.3550782,22.7665558 C49.2714843,27.2324523 51.4285714,32.9723053 51.4285714,38.9296875 C51.4285714,52.4346313 40.4698661,63.421875 27,63.421875 Z" id="Shape" fill="#181819"></path>
            <path d="M27,42.796875 C29.1269532,42.796875 30.8571429,41.0621796 30.8571429,38.9296875 C30.8571429,37.2493744 29.7823661,35.8162994 28.2857143,35.2840576 L28.2857143,26.0390625 C28.2857143,25.3270568 27.7101563,24.75 27,24.75 C26.2898437,24.75 25.7142857,25.3270568 25.7142857,26.0390625 L25.7142857,35.2840576 C24.2176339,35.8162994 23.1428571,37.2493744 23.1428571,38.9296875 C23.1428571,41.0621796 24.8730468,42.796875 27,42.796875 Z M27,37.640625 C27.7091518,37.640625 28.2857143,38.218689 28.2857143,38.9296875 C28.2857143,39.640686 27.7091518,40.21875 27,40.21875 C26.2908482,40.21875 25.7142857,39.640686 25.7142857,38.9296875 C25.7142857,38.218689 26.2908482,37.640625 27,37.640625 Z" id="Shape" fill="#181819"></path>
            <path d="M40.6963728,25.3295746 C40.6762835,25.3064117 40.6561942,25.2827453 40.6335937,25.2605897 C40.6094865,25.2359161 40.5838728,25.2137603 40.5582589,25.1921082 C38.2921875,22.9438018 35.4927456,21.2806092 32.4547433,20.3812866 C31.7737165,20.1788635 31.0585379,20.5696105 30.8576451,21.252411 C30.6567522,21.9352111 31.0454799,22.6522521 31.7265067,22.8536681 C33.9775111,23.5203553 36.0773437,24.6724549 37.8672992,26.2107696 L36.9999442,27.0803833 C36.4982143,27.5839233 36.4982143,28.4001617 36.9999442,28.9037017 C37.2510603,29.1554718 37.5800223,29.2813568 37.9094865,29.2813568 C38.2384486,29.2813568 38.5674107,29.1554718 38.8185268,28.9037017 L39.6878907,28.032074 C42.0142299,30.7441406 43.3958706,34.0826111 43.665067,37.6411285 L42.4285714,37.6411285 C41.7184151,37.6411285 41.1428571,38.2181855 41.1428571,38.930191 C41.1428571,39.6416932 41.7184151,40.2192535 42.4285714,40.2192535 L43.665067,40.2192535 C43.3958706,43.7772675 42.0142299,47.1157379 39.6878907,49.8278046 L38.8185268,48.9561768 C38.3162946,48.4531402 37.5021764,48.4531402 36.9999442,48.9561768 C36.4977121,49.4597168 36.4977121,50.2759552 36.9999442,50.7794952 L37.869308,51.6506195 C35.1642857,53.983017 31.8344865,55.3687592 28.2857143,55.6386566 L28.2857143,54.3984375 C28.2857143,53.6864318 27.7101563,53.109375 27,53.109375 C26.2898437,53.109375 25.7142857,53.6864318 25.7142857,54.3984375 L25.7142857,55.6381531 C22.1655135,55.3682557 18.8357143,53.983017 16.130692,51.6506195 L17.0000558,50.7789917 C17.5022879,50.2754517 17.5022879,49.4592133 17.0000558,48.9556732 C16.4978236,48.4526367 15.6842076,48.4526367 15.1814732,48.9556732 L14.3121093,49.827301 C11.9857701,47.1152344 10.6041294,43.7767639 10.334933,40.21875 L11.5714286,40.21875 C12.2815849,40.21875 12.8571429,39.6411895 12.8571429,38.9296875 C12.8571429,38.2176818 12.2815849,37.640625 11.5714286,37.640625 L10.334933,37.640625 C10.6041294,34.0821075 11.9857701,30.7436371 14.3121093,28.0315704 L15.1814732,28.9031982 C15.4325893,29.1549683 15.7615514,29.2808533 16.0905135,29.2808533 C16.4199777,29.2808533 16.7489397,29.1549683 17.0000558,28.9031982 C17.5017857,28.3996582 17.5017857,27.5834198 17.0000558,27.0798798 L16.1327008,26.2102661 C17.9226563,24.6719513 20.0224889,23.5198517 22.2734933,22.8536681 C22.9545201,22.6517486 23.3432478,21.9347076 23.1423549,21.2519073 C22.9414621,20.569107 22.2262835,20.1793671 21.5452567,20.3807831 C18.4746093,21.2901764 15.6470424,22.9780426 13.3684151,25.2626037 C9.72220989,28.918808 7.71428571,33.7724305 7.71428571,38.9296875 C7.71428571,44.0557251 9.69910714,48.8811493 13.3036272,52.5292969 C13.3237165,52.5529633 13.3438058,52.5766297 13.3664063,52.5987853 C13.3885044,52.6209412 13.4116071,52.6410828 13.4347099,52.6612244 C17.0738839,56.2756348 21.8867746,58.265625 27,58.265625 C32.1438615,58.265625 36.9848772,56.2524719 40.6310826,52.5962677 C44.2777901,48.940567 46.2857143,44.0869445 46.2857143,38.9296875 C46.2857143,33.8036499 44.3008929,28.9777222 40.6963728,25.3295746 Z" id="Shape" fill="#181819"></path>
            <path d="M27,22.171875 C27.709654,22.171875 28.2857143,21.5943145 28.2857143,20.8828125 C28.2857143,20.1713105 27.709654,19.59375 27,19.59375 C26.290346,19.59375 25.7142857,20.1713105 25.7142857,20.8828125 C25.7142857,21.5943145 26.290346,22.171875 27,22.171875 Z" id="Shape" fill="#181819"></path>
        </g>
    </g>
</svg>