<?xml version="1.0" encoding="UTF-8"?>
<svg width="66px" height="66px" viewBox="0 0 66 66" version="1.1" xmlns="http://www.w3.org/2000/svg" xmlns:xlink="http://www.w3.org/1999/xlink">
    <!-- Generator: Sketch 51.3 (57544) - http://www.bohemiancoding.com/sketch -->
    <title>sale-tag</title>
    <desc>Created with Sketch.</desc>
    <defs></defs>
    <g id="Page-1" stroke="none" stroke-width="1" fill="none" fill-rule="evenodd">
        <g id="sale-tag" fill-rule="nonzero">
            <path d="M54.5451846,11.3155518 C53.5405702,10.3089752 51.910773,10.3089752 50.905656,11.3155518 C49.9010417,12.3226318 49.9010417,13.9556122 50.905656,14.9621887 C51.910773,15.9692687 53.5405702,15.9692687 54.5451846,14.9621887 C55.5503016,13.9556122 55.5503016,12.3226318 54.5451846,11.3155518 Z M58.183708,7.67042538 C61.2493147,10.7420196 61.2905245,15.6802368 58.2761788,18.7004699 L63.7982913,24.0772705 C64.8029056,25.0838471 64.8029056,26.7158203 63.7982913,27.7223969 L27.4809027,63.9551239 C26.4757858,64.9617004 24.8459887,64.9617004 23.8413743,63.9551239 L18.1353254,58.2379303 C15.2561677,59.5914459 11.6990589,59.0808564 9.28677818,56.662857 C6.87298977,54.2458648 6.36389806,50.6818085 7.71477525,47.7970275 L2.00872621,42.079834 C1.00411191,41.0732574 1.00411191,39.4397735 2.00872621,38.4331971 L38.1703216,2.04487607 C39.1754386,1.03829962 40.8042306,1.03829962 41.808845,2.04487607 L47.1746619,7.57727051 C50.1890077,4.55703729 55.1181013,4.59832764 58.183708,7.67042538 Z" id="Shape" fill="#DEE7F0"></path>
            <polygon id="Shape" fill="#FFFFFF" points="8.37664474 39.3446045 39.0794499 8.58183292 57.2735746 26.811493 26.5707694 57.5737609"></polygon>
            <path d="M22.8749543,26.6735229 C23.3780154,26.1694794 23.3780154,25.353241 22.8749543,24.850708 C22.373401,24.3466645 21.5587536,24.3466645 21.0556926,24.850708 C20.5526316,25.353241 20.5526316,26.1694794 21.0556926,26.6735229 C21.5587536,27.1760558 22.373401,27.1760558 22.8749543,26.6735229 Z" id="Shape" fill="#181819"></path>
            <path d="M35.6117964,28.4963379 C37.1164565,26.9887391 37.1164565,24.535492 35.6117964,23.0278931 C34.1036184,21.5167694 31.6611842,21.5162658 30.1530062,23.0278931 C28.6443256,24.5390167 28.6443256,26.9847108 30.1530062,28.4963379 C31.6576663,30.0039367 34.1066337,30.0044403 35.6117964,28.4963379 Z M31.9722679,24.850708 C32.4753289,24.347168 33.2894737,24.347168 33.7925347,24.850708 C34.2935856,25.353241 34.2935856,26.1704864 33.7925347,26.6730194 C33.2904787,27.1755523 32.4738212,27.1760558 31.9722679,26.6730194 C31.470212,26.1704864 31.4682018,25.3557587 31.9722679,24.850708 Z" id="Shape" fill="#181819"></path>
            <path d="M30.1530062,37.6104126 C28.6443256,39.1220399 28.6443256,41.5687408 30.1530062,43.0803681 C31.6611842,44.5914917 34.1031159,44.5919952 35.6117964,43.0803681 C37.1169591,41.5722656 37.1169591,39.118515 35.6117964,37.6104126 C34.1036184,36.0997925 31.6611842,36.099289 30.1530062,37.6104126 Z M33.7925347,41.2575531 C33.2894737,41.7610932 32.4748264,41.7610932 31.9722679,41.2575531 C31.470212,40.7545166 31.4682018,39.9387817 31.9722679,39.433731 C32.4753289,38.9296875 33.2894737,38.930191 33.7925347,39.433731 C34.2940881,39.9362641 34.2940881,40.7545166 33.7925347,41.2575531 Z" id="Shape" fill="#181819"></path>
            <path d="M22.5231633,35.1294708 C22.6623721,35.8283844 23.340826,36.2800597 24.0368695,36.1405792 L42.2309942,32.4939423 C42.9275401,32.3544617 43.3793402,31.6751861 43.2401316,30.9772797 C43.1009229,30.2788696 42.4229716,29.8266906 41.7264254,29.9661713 L23.5323008,33.6128082 C22.8352523,33.7522889 22.3834522,34.4315644 22.5231633,35.1294708 Z" id="Shape" fill="#181819"></path>
            <path d="M39.1121162,7.29277042 C38.7708791,7.29277042 38.4437135,7.42822266 38.2024854,7.66992187 L24.6952212,21.2035675 C24.1926627,21.7071075 24.1926627,22.5233459 24.6952212,23.0268859 C25.1977796,23.530426 26.0124269,23.530426 26.5144829,23.0268859 L39.1121162,10.4046479 L55.4864766,26.811493 L26.6034357,55.7509461 L10.2285727,39.3446045 L19.2369335,30.3186493 C19.739492,29.8156128 19.739492,28.9993744 19.2369335,28.4958344 C18.7343751,27.9927979 17.9197277,27.9927979 17.4171692,28.4958344 L7.49968022,38.4331971 C6.99712174,38.9362335 6.99712174,39.7524719 7.49968022,40.2560119 L25.6938049,58.485672 C26.1963634,58.989212 27.010508,58.989212 27.5130665,58.485672 L58.2158717,27.7229004 C58.7184302,27.2193604 58.7184302,26.403122 58.2158717,25.8995819 L40.0217471,7.66992188 C39.780519,7.42822266 39.4533534,7.29277042 39.1121162,7.29277042 Z" id="Shape" fill="#181819"></path>
            <path d="M63.6746619,0.378158602 L58.1525493,5.91055291 C54.930647,3.47291562 50.4814967,3.43313592 47.2867325,5.80984491 L42.7637061,1.14656064 C42.7591831,1.14202881 42.7551627,1.13800049 42.7506396,1.13346866 C41.25,-0.370101961 38.809576,-0.386215242 37.2908442,1.13548282 L1.13125917,37.5217896 C-0.376918924,39.0329132 -0.37742145,41.4801178 1.13125917,42.991745 L6.23423791,48.104187 C5.09443527,51.3726654 5.91662095,55.0782166 8.40880848,57.5742646 C10.9004934,60.0718232 14.5988212,60.8951111 17.8609284,59.7540894 L22.9639072,64.8665313 C24.4720852,66.3776551 26.9155245,66.3771515 28.4206871,64.8685455 L64.7400859,28.6343078 C66.2487665,27.1226807 66.2487665,24.6769867 64.7400859,23.1658631 C64.7355629,23.1613311 64.7315424,23.1573028 64.7270194,23.152771 L60.0733279,18.6219178 C62.4368604,15.4425659 62.4278143,10.9827118 59.9723137,7.73387149 L65.4939236,2.20147705 C65.9964821,1.69793701 65.9964821,0.881698641 65.4939236,0.378158602 C64.9913651,-0.125381438 64.1772204,-0.125381438 63.6746619,0.378158602 Z M57.3987116,17.7890625 C57.1554733,18.0332794 57.0197826,18.3646088 57.0217928,18.7100372 C57.0243056,19.0549621 57.1650219,19.3847809 57.4117782,19.6249695 L62.9258498,24.9942169 C63.4248904,25.4997711 63.4193622,26.3114776 62.9223319,26.8089752 L26.6034357,63.0432129 C26.1013797,63.5462494 25.2847222,63.5462494 24.7831688,63.0432129 L19.0771199,57.3265229 C18.8308663,57.0792847 18.5011879,56.9488678 18.1674891,56.9488678 C17.9825476,56.9488678 17.7960984,56.9886475 17.621208,57.0707245 C15.1471126,58.2339019 12.1759868,57.7036743 10.2285727,55.7509461 C8.27965098,53.7997284 7.75045694,50.8233032 8.91136696,48.3443756 C9.14153881,47.852417 9.04002193,47.2693176 8.65656978,46.8851166 L2.95102339,41.1684266 C2.44896744,40.66539 2.44896744,39.847641 2.9525311,39.3425903 L39.1126188,2.9562836 C39.6131671,2.45526123 40.4222862,2.45224005 40.9258498,2.95074463 L46.2841283,8.47558594 C46.7645742,8.97106934 47.5872624,9.01940918 48.1169591,8.48918155 C50.3191704,6.28166202 53.7677266,6.04600528 56.3081598,7.75854492 L54.4210526,9.6493378 C52.9862481,8.96452335 51.214227,9.21578986 50.028189,10.4041444 C48.5235288,11.9122467 48.5235288,14.3659973 50.028189,15.8735962 C51.536367,17.3847198 53.9788012,17.3852235 55.4874817,15.8735962 C56.7006579,14.6580506 56.9132402,12.8750152 56.2423246,11.4706421 L58.128929,9.58035272 C59.8250639,12.0960389 59.6295687,15.5543517 57.3987116,17.7890625 Z M53.6677174,12.2269592 C54.1697734,12.7299957 54.1717836,13.5457306 53.6677174,14.0507813 C53.165159,14.5543213 52.3505117,14.5543213 51.8479532,14.0507813 C51.3458973,13.5477447 51.3458973,12.7294922 51.8474507,12.2269592 C52.3495066,11.7249298 53.1661641,11.7239228 53.6677174,12.2269592 Z" id="Shape" fill="#181819"></path>
        </g>
    </g>
</svg>