<?xml version="1.0" encoding="UTF-8"?>
<svg width="66px" height="66px" viewBox="0 0 66 66" version="1.1" xmlns="http://www.w3.org/2000/svg" xmlns:xlink="http://www.w3.org/1999/xlink">
    <!-- Generator: Sketch 51.3 (57544) - http://www.bohemiancoding.com/sketch -->
    <title>piggy-bank</title>
    <desc>Created with Sketch.</desc>
    <defs></defs>
    <g id="Page-1" stroke="none" stroke-width="1" fill="none" fill-rule="evenodd">
        <g id="piggy-bank" fill-rule="nonzero">
            <path d="M31.2465647,19.4987481 C29.9762133,19.4876959 28.0706862,18.6134178 25.5299835,16.8759137 C22.5782318,17.2035819 19.8127899,18.1534173 17.3726349,19.5912372 C17.2875366,19.6409904 17.1858215,19.6002832 17.1551056,19.5063049 C16.1661529,16.465826 13.3342437,14.2545687 9.97210693,14.1801901 C9.87844842,14.1776773 9.796875,14.2570815 9.796875,14.3495522 L9.796875,27.3075201 C8.56320197,29.5725512 7.73840332,32.0104624 7.39549259,34.5996437 C7.38491815,34.6775401 7.32046502,34.7368421 7.24090576,34.7368421 L4.02983096,34.7368421 C2.51618954,34.7368421 1.2890625,35.9615771 1.2890625,37.4722679 L1.2890625,43.0662464 C1.2890625,44.5769371 2.51618954,45.8011696 4.02983096,45.8011696 L8.61355584,45.8011696 C8.67700195,45.8011696 8.73339844,45.8398666 8.75807187,45.8976608 C10.0869141,49.1271015 12.2138672,51.9444444 14.8952179,54.1059484 C14.9200592,54.1257158 14.9393616,56.7070237 14.953125,61.8498721 C14.953125,63.3605629 16.180252,64.5847953 17.6938935,64.5847953 L19.9472352,64.5847953 C21.4608765,64.5847953 22.6875,63.3605629 22.6875,61.8498721 L22.6875,58.0183663 C24.335083,58.4415205 26.0637359,58.6666667 27.84375,58.6666667 L35.578125,58.6666667 C37.3586426,58.6666667 39.0872955,58.4415205 40.734375,58.0183663 L40.734375,61.8498721 C40.734375,63.3605629 41.961502,64.5847953 43.4751435,64.5847953 L45.7284852,64.5847953 C47.2421265,64.5847953 48.46875,63.3605629 48.46875,61.8498721 L48.46875,54.2305829 C52.7689819,50.6925712 55.6270752,44.8583699 56.1260834,39.12267 C56.1799621,38.5040205 56.203125,37.8908991 56.1996002,37.2828033 C56.1311187,26.9964365 47.966217,18.4846034 37.7775879,16.9824561 C34.8745752,18.672608 32.6975675,19.5113719 31.2465647,19.4987481 Z" id="Shape" fill="#DEE7F0"></path>
            <path d="M17.53125,32.1637427 C18.9557647,32.1637427 20.109375,33.3151042 20.109375,34.7368421 C20.109375,36.15858 18.9557647,37.3099415 17.53125,37.3099415 C16.1067353,37.3099415 14.953125,36.15858 14.953125,34.7368421 C14.953125,33.3151042 16.1067353,32.1637427 17.53125,32.1637427 Z" id="Shape" fill="#FFFFFF"></path>
            <path d="M33,12.8252924 L33,7.75950292 C33,7.11472036 32.5417785,6.53828575 31.9022827,6.44682018 C31.1051788,6.33223684 30.421875,6.94636337 30.421875,7.71929825 L30.421875,12.8654971 C30.421875,13.6389346 31.1051788,14.2525585 31.9022827,14.1384777 C32.5417785,14.0465096 33,13.4705775 33,12.8252924 Z" id="Shape" fill="#181819"></path>
            <path d="M17.5634766,38.5964912 C19.6959687,38.5964912 21.4306641,36.8651773 21.4306641,34.7368421 C21.4306641,32.6090096 19.6959687,30.877193 17.5634766,30.877193 C15.4314881,30.877193 13.6962891,32.6090096 13.6962891,34.7368421 C13.6962891,36.8651773 15.4314881,38.5964912 17.5634766,38.5964912 Z M17.5634766,33.4502924 C18.2744751,33.4502924 18.8525391,34.0277321 18.8525391,34.7368421 C18.8525391,35.4464547 18.2744751,36.0233918 17.5634766,36.0233918 C16.8529815,36.0233918 16.2744141,35.4464547 16.2744141,34.7368421 C16.2744141,34.0277321 16.8529815,33.4502924 17.5634766,33.4502924 Z" id="Shape" fill="#181819"></path>
            <path d="M24.0087891,25.7309942 L34.3212891,25.7309942 C35.0332947,25.7309942 35.6103516,25.1550622 35.6103516,24.4444444 C35.6103516,23.7338267 35.0332947,23.1578947 34.3212891,23.1578947 L24.0087891,23.1578947 C23.2967834,23.1578947 22.7197266,23.7338267 22.7197266,24.4444444 C22.7197266,25.1550622 23.2967834,25.7309942 24.0087891,25.7309942 Z" id="Shape" fill="#181819"></path>
            <path d="M39.4453125,25.7309942 C40.1568145,25.7309942 40.734375,25.1545595 40.734375,24.4444444 C40.734375,23.7343293 40.1568145,23.1578947 39.4453125,23.1578947 C38.7338105,23.1578947 38.15625,23.7343293 38.15625,24.4444444 C38.15625,25.1545595 38.7338105,25.7309942 39.4453125,25.7309942 Z" id="Shape" fill="#181819"></path>
            <path d="M4.02983096,47.0877193 L7.86882022,47.0877193 C9.20169061,50.0261788 11.1866455,52.6550622 13.664566,54.7582694 L13.664566,61.8498721 C13.664566,64.0711805 15.4682465,65.8718476 17.6938935,65.8718476 L21.0036621,65.8718476 C22.6457061,65.8718476 23.977066,64.5430829 23.977066,62.9042398 L23.977066,59.6109741 C25.2480011,59.8371253 26.5426025,59.9537189 27.8442535,59.9537189 L35.5786285,59.9537189 C36.879776,59.9537189 38.1743774,59.8371253 39.445816,59.6109741 L39.445816,62.9042398 C39.445816,64.5430829 40.7766724,65.8718476 42.4187164,65.8718476 L45.7284852,65.8718476 C47.954132,65.8718476 49.758316,64.0711805 49.758316,61.8498721 L49.758316,54.7557565 C53.970932,51.1393458 56.8869324,45.2433296 57.4101104,39.2231817 C57.4317627,38.9754203 57.447876,38.7251462 57.4604644,38.4733644 C59.4690858,38.2230902 61.8593902,37.4014072 63.3453369,35.9188596 C66.044815,33.2221308 66.6535949,29.2886057 65.27742,26.0445906 C64.8302765,24.9882127 64.1927948,24.0383772 63.383606,23.2207145 C62.9218598,22.7543402 62.176117,22.6673977 61.6544494,23.066429 C61.0220031,23.5503929 60.9776916,24.4585161 61.5220185,25.0017818 C62.1136779,25.592288 62.5779419,26.2802905 62.9032287,27.0471948 C63.8846283,29.3614766 63.4515839,32.1727887 61.522522,34.099598 C60.6836242,34.9358553 59.038559,35.6288834 57.4317627,35.8811677 C56.7368774,26.5250365 49.6727143,18.4825932 40.1991119,16.130117 C41.3738709,14.4259411 42.023941,12.3905793 42.023941,10.2923977 C42.023941,4.61700478 37.3974151,0 31.711441,0 C26.0249634,0 21.398941,4.61700478 21.398941,10.2923977 C21.398941,12.3121802 22.0062104,14.282712 23.1049347,15.9517087 C21.2826232,16.3507402 19.5298004,16.9789382 17.8645936,17.8327851 C16.3851929,14.8882949 13.3735199,12.9433937 10.0078583,12.8685125 C9.6191254,12.8564511 9.23190314,13.0082237 8.95092773,13.2816155 C8.66944882,13.5545048 8.50831601,13.9349415 8.50831601,14.3244244 L8.50831601,27.0074927 C7.42318732,29.033306 6.67240909,31.1953125 6.27008057,33.4502924 L4.02983096,33.4502924 C1.80418399,33.4502924 2.84217094e-14,35.2509595 2.84217094e-14,37.4722679 L2.84217094e-14,43.0662464 C2.84217094e-14,45.2875548 1.80418399,47.0877193 4.02983096,47.0877193 Z M31.7431641,2.57309942 C36.0081483,2.57309942 39.4775391,6.03622993 39.4775391,10.2923977 C39.4775391,14.5636422 36.0071411,18.0116959 31.7431641,18.0116959 C27.5355835,18.0116959 24.0087891,14.6254569 24.0087891,10.2923977 C24.0087891,6.03622993 27.4786835,2.57309942 31.7431641,2.57309942 Z M2.578125,37.4722679 C2.578125,36.6721948 3.22819522,36.0233918 4.02983096,36.0233918 L7.24090576,36.0233918 C7.96348575,36.0233918 8.57931525,35.4831414 8.67347714,34.7674981 C8.98869327,32.3828582 9.73896786,30.1057657 10.9021454,27.9990405 C11.0224914,27.7854532 11.0859375,27.5442251 11.0859375,27.2984741 L11.0859375,15.5687592 C13.3317261,16.0255848 15.2053985,17.6568897 15.9299927,19.8892544 C16.0679627,20.307383 16.3816681,20.6350512 16.7920532,20.7893367 C17.1999207,20.942617 17.6510926,20.9029148 18.0287476,20.6802815 C20.2206573,19.3871984 22.6024018,18.5554641 25.1165771,18.2031707 C26.9675903,19.7420048 29.2848817,20.5847953 31.7109375,20.5847953 C34.0664979,20.5847953 36.3304139,19.7857273 38.155243,18.3257949 C47.6867524,19.9983095 54.8491059,28.0503016 54.9105377,37.2782803 C54.9140625,37.8577302 54.8908996,38.4366776 54.8415527,39.0000457 C54.3596649,44.5472862 51.6289673,49.9518001 47.706894,53.1118878 C47.3720399,53.3872899 47.1796875,53.7928546 47.1796875,54.2255574 L47.1796875,61.8498721 C47.1796875,62.6499452 46.5301209,63.2982456 45.7284852,63.2982456 L43.3673858,63.2982456 C42.6251679,63.2982456 42.023941,62.6981909 42.023941,61.9574196 L42.023941,55.4015443 C42.023941,54.93517 41.766632,54.4949288 41.3426514,54.2984284 C40.3829041,53.852659 39.445816,54.5396564 39.445816,55.4452669 L39.445816,56.9921418 C38.1789093,57.2484466 36.8827973,57.380117 35.5786285,57.380117 L27.8442535,57.380117 C26.5395812,57.380117 25.2434692,57.2484466 23.977066,56.9921418 L23.977066,55.4854716 C23.977066,54.840689 23.518341,54.2642544 22.8788452,54.1722862 C22.0822449,54.0582055 21.398941,54.6718293 21.398941,55.4452669 L21.398941,61.8498721 C21.398941,62.6499452 20.7488709,63.2982456 19.9472352,63.2982456 L17.6938935,63.2982456 C16.8922577,63.2982456 16.242691,62.6499452 16.242691,61.8498721 L16.242691,54.2255574 C16.242691,53.7838085 16.0432892,53.3727156 15.7054139,53.1053546 C13.1721039,51.0629569 11.1821137,48.4019098 9.94592285,45.3976151 C9.71882626,44.8613852 9.19615177,44.5146199 8.61355584,44.5146199 L4.02983096,44.5146199 C3.22819522,44.5146199 2.578125,43.8663195 2.578125,43.0662464 L2.578125,37.4722679 Z" id="Shape" fill="#181819"></path>
        </g>
    </g>
</svg>