<?xml version="1.0" encoding="UTF-8"?>
<svg width="57px" height="66px" viewBox="0 0 57 66" version="1.1" xmlns="http://www.w3.org/2000/svg" xmlns:xlink="http://www.w3.org/1999/xlink">
    <!-- Generator: Sketch 51.3 (57544) - http://www.bohemiancoding.com/sketch -->
    <title>manager</title>
    <desc>Created with Sketch.</desc>
    <defs></defs>
    <g id="Page-1" stroke="none" stroke-width="1" fill="none" fill-rule="evenodd">
        <g id="manager" fill-rule="nonzero">
            <path d="M34.9545125,23.203125 C35.6663072,23.203125 36.2441052,22.6255645 36.2441052,21.9140625 C36.2441052,21.2025605 35.6663072,20.625 34.9545125,20.625 C34.2412065,20.625 33.6649197,21.2025605 33.6649197,21.9140625 C33.6649197,22.6255645 34.2412065,23.203125 34.9545125,23.203125 Z" id="Shape" fill="#181819"></path>
            <path d="M22.0585849,23.203125 C22.7703796,23.203125 23.3481776,22.6255645 23.3481776,21.9140625 C23.3481776,21.2025605 22.7703796,20.625 22.0585849,20.625 C21.3452789,20.625 20.7689921,21.2025605 20.7689921,21.9140625 C20.7689921,22.6255645 21.3452789,23.203125 22.0585849,23.203125 Z" id="Shape" fill="#181819"></path>
            <path d="M25.058903,32.0634155 C26.1414558,32.5735016 27.3015854,32.8323212 28.506045,32.8323212 C29.6843096,32.8323212 30.8217707,32.584076 31.887196,32.0946349 C32.5345111,31.7970429 32.817617,31.031662 32.5204061,30.3846131 C32.2226917,29.7380676 31.456996,29.4545746 30.8096808,29.7521668 C30.0847885,30.0850067 29.3095217,30.2541962 28.506045,30.2541962 C27.6844333,30.2541962 26.8945577,30.0784608 26.1585831,29.7315216 C25.5142905,29.4278869 24.7455724,29.703827 24.4423165,30.3478546 C24.138557,30.9918823 24.4146104,31.7597809 25.058903,32.0634155 Z" id="Shape" fill="#181819"></path>
            <path d="M22.3555439,52.1785812 L20.4448308,53.096283 L15.0096507,41.381424 C11.9161394,41.8524017 9.66170284,42.5072556 8.2463412,43.3459854 C6.12329875,44.6040802 2.35249929,47.5586014 1.94169347,50.9564896 C1.66782293,53.2217484 1.66782293,57.5495911 1.94169347,63.9400177 L22.3555439,63.9400177 L23.7693103,56.4015198 L22.3555439,52.1785812 Z" id="Path-2" fill="#DEE7F0"></path>
            <path d="M53.3057701,51.7918625 L51.3950571,52.7095642 L45.959877,40.9947052 C42.8663656,41.465683 40.6119291,42.1205368 39.1965674,42.9592667 C37.073525,44.2173615 33.3027255,47.1718826 32.8919197,50.5697708 C32.6180492,52.8350296 32.6180492,57.1628723 32.8919197,63.553299 L53.3057701,63.553299 L54.7195366,56.014801 L53.3057701,51.7918625 Z" id="Path-2" fill="#DEE7F0" transform="translate(43.703027, 52.274002) scale(-1, 1) translate(-43.703027, -52.274002) "></path>
            <polygon id="Path-3" fill="#DEE7F0" points="16.7218874 40.7368927 20.5715233 37.4266205 27.0194871 47.8937073 21.1732493 51.0441055"></polygon>
            <polygon id="Path-3" fill="#DEE7F0" transform="translate(34.766615, 44.235363) scale(-1, 1) translate(-34.766615, -44.235363) " points="29.617815 40.7368927 33.4674509 37.4266205 39.9154147 47.8937073 34.0691769 51.0441055"></polygon>
            <path d="M56.9471066,52.3062286 C56.9471066,45.2178955 48.8710319,39.6588135 41.9485382,39.395462 L38.4167669,36.2236633 C42.7182639,33.0866089 45.3291855,28.045166 45.3291855,22.6875 L45.3291855,14.1796875 C45.3291855,6.36122128 38.9451976,-5.68434189e-14 31.098328,-5.68434189e-14 L25.9399569,-5.68434189e-14 C18.1036658,-5.68434189e-14 11.7997738,6.33856201 11.7997738,14.1796875 L11.7997738,22.6875 C11.7997738,28.0361024 14.3759367,33.0679779 18.621518,36.1994933 L15.063048,39.395462 C8.15566678,39.65831 0.064479638,45.2032929 0.064479638,52.3062286 L0.064479638,64.7109375 C0.064479638,65.4229432 0.641773833,66 1.3540724,66 L55.6575138,66 C56.3698123,66 56.9471066,65.4229432 56.9471066,64.7109375 L56.9471066,52.3062286 Z M25.6492947,57.4921875 L31.355239,57.4921875 L32.7072964,63.421875 L24.2579451,63.421875 L25.6492947,57.4921875 Z M31.4660633,54.9140625 L25.5676877,54.9140625 L24.5783283,51.832901 L28.5065487,49.8695985 L32.5188949,51.875702 L31.4660633,54.9140625 Z M28.506045,45.9963683 L24.0247101,38.8304901 C25.4800357,39.2348328 26.9922847,39.444809 28.5191425,39.444809 C30.0313914,39.444809 31.532558,39.2388611 32.9803274,38.8410645 L28.506045,45.9963683 Z M30.3517746,47.9098205 L36.5433311,38.0066986 L39.8826711,41.0057831 L35.6335637,50.5503846 L30.3517746,47.9098205 Z M25.9399569,2.578125 L31.098328,2.578125 C37.5231193,2.578125 42.75,7.78221134 42.75,14.1796875 L42.75,15.2451782 L40.3284873,11.759674 C40.1093574,11.4439545 39.7602605,11.2425385 39.3769089,11.2103119 C38.9930537,11.1780854 38.6162506,11.3185731 38.3472497,11.5935059 C35.7257494,14.2733459 32.6906728,15.46875 28.5065487,15.46875 C24.3229285,15.46875 21.2873479,14.2733459 18.6638327,11.5935059 C18.3938242,11.3170624 18.0134952,11.1770782 17.629136,11.2108154 C17.2442732,11.2445526 16.8946726,11.4489898 16.6770538,11.7682343 L14.3789593,15.1343994 L14.3789593,14.1796875 C14.3789593,7.78221134 19.5650364,2.578125 25.9399569,2.578125 Z M14.3789593,22.6875 L14.3789593,19.7080536 L17.9606017,14.4616699 C20.8299456,16.9013214 24.2206677,18.046875 28.5065487,18.046875 C32.7969633,18.046875 36.1902043,16.8988037 39.060052,14.4541168 L42.75,19.7654571 L42.75,22.6875 C42.75,30.4072724 36.4375442,36.8671875 28.5191425,36.8671875 C20.6264316,36.8671875 14.3789593,30.427414 14.3789593,22.6875 Z M20.4682551,38.0072021 L26.660819,47.9098205 L21.3780225,50.5503846 L17.1289151,41.0057831 L20.4682551,38.0072021 Z M2.64366516,52.3062286 C2.64366516,46.9958954 9.1017039,42.4106598 14.7451835,41.9937286 L19.5700739,52.8304139 C19.713138,53.1516724 19.9816353,53.4009247 20.313101,53.5197602 C20.6445667,53.6385956 21.0097833,53.6164399 21.325129,53.4593354 L22.2439638,52.9996033 L23.2902467,56.2565002 L21.6087387,63.421875 L2.64366516,63.421875 L2.64366516,52.3062286 Z M54.3679211,63.421875 L35.3524728,63.421875 L33.7233544,56.2761383 L34.8451994,53.0383759 L35.6864571,53.4593354 C36.0038179,53.6179504 36.3700421,53.6375885 36.6984853,53.5197602 C37.0299508,53.4009247 37.298448,53.1516724 37.4415124,52.8304139 L42.2664027,41.9937286 C47.9098823,42.4111633 54.3679211,46.9958954 54.3679211,52.3062286 L54.3679211,63.421875 Z" id="Shape" fill="#181819"></path>
            <path d="M45.2712546,57.4921875 L40.1128835,57.4921875 C39.4005851,57.4921875 38.8232908,58.0692443 38.8232908,58.78125 C38.8232908,59.4932557 39.4005851,60.0703125 40.1128835,60.0703125 L45.2712546,60.0703125 C45.9835531,60.0703125 46.5608473,59.4932557 46.5608473,58.78125 C46.5608473,58.0692443 45.9835531,57.4921875 45.2712546,57.4921875 Z" id="Shape" fill="#181819"></path>
            <path d="M50.3585973,57.4921875 C51.070392,57.4921875 51.64819,58.069748 51.64819,58.78125 C51.64819,59.492752 51.070392,60.0703125 50.3585973,60.0703125 C49.6468026,60.0703125 49.0690045,59.492752 49.0690045,58.78125 C49.0690045,58.069748 49.6468026,57.4921875 50.3585973,57.4921875 Z" id="Shape" fill="#181819"></path>
        </g>
    </g>
</svg>