<?xml version="1.0" encoding="UTF-8"?>
<svg width="60px" height="90px" viewBox="0 0 60 90" version="1.1" xmlns="http://www.w3.org/2000/svg" xmlns:xlink="http://www.w3.org/1999/xlink">
    <!-- Generator: Sketch 51.3 (57544) - http://www.bohemiancoding.com/sketch -->
    <title>shovel</title>
    <desc>Created with Sketch.</desc>
    <defs></defs>
    <g id="Page-1" stroke="none" stroke-width="1" fill="none" fill-rule="evenodd">
        <g id="shovel" fill="#FFFFFF" fill-rule="nonzero">
            <path d="M20.5566691,46.3307189 L23.1805758,46.3307189 L23.1805758,7.92251578 L28.0614523,7.92251578 L28.0614523,46.3307189 L30.685359,46.3307189 L30.685359,7.92251578 L35.4849217,7.92251578 L35.4849217,0 L15.7571064,0 L15.7571064,7.92251578 L20.5566691,7.92251578 L20.5566691,46.3307189 Z M18.3810131,5.28579703 L18.3810131,2.63671875 L32.861015,2.63671875 L32.861015,5.28579703 L18.3810131,5.28579703 Z" id="Shape"></path>
            <path d="M26.9326258,78.589325 L26.9326258,56.8590546 L39.5444606,56.8590546 L39.5444606,70.3928375 L42.1683673,70.3928375 L42.1683673,54.2223359 L31.7055394,54.2223359 L31.7055394,48.5279845 L19.5358055,48.5279845 L19.5358055,54.2223359 L9.07366076,54.2223359 L9.07366076,73.3715058 C9.07366076,77.2057343 10.4033801,80.946579 12.817511,83.9067079 C15.1981595,86.8249512 18.5210914,88.8608551 22.1747449,89.6388244 L22.7186589,87.0590972 C16.3324527,85.6988525 11.6975675,79.9427032 11.6975675,73.3715058 L11.6975675,56.8590546 L24.3087191,56.8590546 L24.3087191,78.589325 L26.9326258,78.589325 Z M22.1597122,51.1647033 L29.0816327,51.1647033 L29.0816327,54.2223359 L22.1597122,54.2223359 L22.1597122,51.1647033 Z" id="Shape"></path>
            <path d="M53.2926385,80.6561279 C52.6906433,78.3867646 50.4200073,76.9269561 48.0755739,77.405548 C46.4827805,74.4598389 43.370308,72.5550841 39.972212,72.5550841 C35.2560131,72.5550841 31.3556851,76.1345673 30.8206541,80.7323456 C27.2216655,81.6139985 24.6285077,84.8535919 24.6285077,88.6816406 L24.6285077,90 L59.8319059,90 L59.8319059,88.6816406 C59.8319059,84.7464752 57.0358055,81.4107514 53.2926385,80.6561279 Z M27.4075256,87.3632812 C27.9459729,85.1241303 29.8291728,83.4061431 32.2036716,83.1623839 L33.3987792,83.0223084 L33.3816964,81.8144989 C33.3816964,78.162918 36.3383746,75.1918029 39.972212,75.1918029 C42.7177478,75.1918029 45.2022595,76.9297027 46.1547922,79.5162964 L46.6952897,80.9822846 L48.0420918,80.2008819 C49.2631651,79.4915771 50.8067601,80.3739166 50.8190598,81.7980195 L50.8190598,83.0662538 L52.0469661,83.1452179 C54.4911624,83.3031464 56.4884748,85.0623321 57.0501549,87.3632812 L27.4075256,87.3632812 Z" id="Shape"></path>
            <path d="M6.16344752,84.8844911 L7.39135382,84.8055268 L7.39135382,83.5379791 C7.40228676,82.9653168 7.86898688,82.5032043 8.4409165,82.5032043 C8.46278239,82.5032043 8.48464828,82.503891 8.5058309,82.5052642 L8.65274239,79.8726654 C8.58304478,79.8685455 8.51198064,79.8664855 8.4409165,79.8664855 C6.81464099,79.8664855 5.4316235,80.9342193 4.94920741,82.4084473 C2.10322531,83.0772401 0,85.6542206 0,88.6816406 L0,90 L14.7307763,90 L14.7307763,87.3632812 L2.85896501,87.3632812 C3.36529697,85.9920502 4.63693504,84.983368 6.16344752,84.8844911 Z" id="Shape"></path>
            <path d="M37.7951895,71.0561371 L35.1712828,71.0561371 L35.1712828,67.3173524 L37.7951895,67.3173524 L37.7951895,71.0561371 Z M37.7951895,65.5602265 L35.1712828,65.5602265 L35.1712828,62.9235077 L37.7951895,62.9235077 L37.7951895,65.5602265 Z M37.7951895,61.1656952 L35.1712828,61.1656952 L35.1712828,58.5289765 L37.7951895,58.5289765 L37.7951895,61.1656952 Z" id="Shape"></path>
            <path d="M26.9319425,31.6763306 L24.3080358,31.6763306 L24.3080358,19.0846252 L26.9319425,19.0846252 L26.9319425,31.6763306 Z M26.9319425,17.3268127 L24.3080358,17.3268127 L24.3080358,14.6900939 L26.9319425,14.6900939 L26.9319425,17.3268127 Z M26.9319425,12.9322814 L24.3080358,12.9322814 L24.3080358,10.2955627 L26.9319425,10.2955627 L26.9319425,12.9322814 Z" id="Shape"></path>
            <path d="M43.0184038,83.6608887 L42.0535714,81.041336 C41.7330995,80.1713563 40.8967293,79.5863341 39.972212,79.5863341 L39.972212,76.9496154 C41.9893403,76.9496154 43.815142,78.2267762 44.5148505,80.1267242 L45.479683,82.7462769 L43.0184038,83.6608887 Z" id="Shape"></path>
        </g>
    </g>
</svg>