<?xml version="1.0" encoding="UTF-8"?>
<svg width="44px" height="44px" viewBox="0 0 44 44" version="1.1" xmlns="http://www.w3.org/2000/svg" xmlns:xlink="http://www.w3.org/1999/xlink">
    <!-- Generator: Sketch 51.3 (57544) - http://www.bohemiancoding.com/sketch -->
    <title>piggy-bank</title>
    <desc>Created with Sketch.</desc>
    <defs></defs>
    <g id="Page-1" stroke="none" stroke-width="1" fill="none" fill-rule="evenodd">
        <g id="product-catalog---2" transform="translate(-70.000000, -963.000000)" fill-rule="nonzero">
            <g id="piggy-bank" transform="translate(70.000000, 963.000000)">
                <path d="M20.8310431,12.9991654 C19.9841422,12.9917972 18.7137908,12.4089452 17.019989,11.2506092 C15.0521546,11.4690546 13.2085266,12.1022782 11.5817566,13.0608248 C11.5250244,13.0939936 11.4572143,13.0668555 11.436737,13.0042033 C10.7774353,10.9772173 8.88949583,9.50304581 6.64807129,9.45346004 C6.58563228,9.45178487 6.53125,9.50472098 6.53125,9.56636816 L6.53125,18.2050134 C5.70880131,19.7150341 5.15893555,21.3403083 4.93032839,23.0664291 C4.92327877,23.1183601 4.88031002,23.1578947 4.82727051,23.1578947 L2.68655398,23.1578947 C1.6774597,23.1578947 0.859375,23.9743847 0.859375,24.981512 L0.859375,28.7108309 C0.859375,29.7179581 1.6774597,30.5341131 2.68655398,30.5341131 L5.74237056,30.5341131 C5.78466797,30.5341131 5.82226562,30.559911 5.83871458,30.5984405 C6.72460937,32.751401 8.14257812,34.6296296 9.93014524,36.0706323 C9.94670614,36.0838105 9.9595744,37.8046824 9.96875,41.2332481 C9.96875,42.2403752 10.7868347,43.0565302 11.795929,43.0565302 L13.2981568,43.0565302 C14.307251,43.0565302 15.125,42.2403752 15.125,41.2332481 L15.125,38.6789109 C16.2233887,38.9610136 17.375824,39.1111111 18.5625,39.1111111 L23.71875,39.1111111 C24.9057617,39.1111111 26.058197,38.9610136 27.15625,38.6789109 L27.15625,41.2332481 C27.15625,42.2403752 27.9743347,43.0565302 28.983429,43.0565302 L30.4856568,43.0565302 C31.494751,43.0565302 32.3125,42.2403752 32.3125,41.2332481 L32.3125,36.153722 C35.1793213,33.7950475 37.0847168,29.9055799 37.4173889,26.08178 C37.4533081,25.669347 37.46875,25.2605994 37.4664001,24.8552022 C37.4207458,17.9976243 31.977478,12.3230689 25.1850586,11.3216374 C23.2497168,12.4484053 21.7983783,13.0075813 20.8310431,12.9991654 Z" id="Shape" fill="#DEE7F0"></path>
                <path d="M11.6875,21.4424951 C12.6371765,21.4424951 13.40625,22.2100695 13.40625,23.1578947 C13.40625,24.10572 12.6371765,24.8732943 11.6875,24.8732943 C10.7378235,24.8732943 9.96875,24.10572 9.96875,23.1578947 C9.96875,22.2100695 10.7378235,21.4424951 11.6875,21.4424951 Z" id="Shape" fill="#FFFFFF"></path>
                <path d="M22,8.55019493 L22,5.17300195 C22,4.74314691 21.694519,4.35885717 21.2681885,4.29788012 C20.7367859,4.22149123 20.28125,4.63090891 20.28125,5.14619883 L20.28125,8.57699805 C20.28125,9.09262307 20.7367859,9.50170565 21.2681885,9.42565178 C21.694519,9.36433971 22,8.98038499 22,8.55019493 Z" id="Shape" fill="#181819"></path>
                <path d="M11.7089844,25.7309942 C13.1306458,25.7309942 14.2871094,24.5767849 14.2871094,23.1578947 C14.2871094,21.7393397 13.1306458,20.5847953 11.7089844,20.5847953 C10.2876587,20.5847953 9.13085938,21.7393397 9.13085938,23.1578947 C9.13085938,24.5767849 10.2876587,25.7309942 11.7089844,25.7309942 Z M11.7089844,22.3001949 C12.1829834,22.3001949 12.5683594,22.6851547 12.5683594,23.1578947 C12.5683594,23.6309698 12.1829834,24.0155945 11.7089844,24.0155945 C11.235321,24.0155945 10.8496094,23.6309698 10.8496094,23.1578947 C10.8496094,22.6851547 11.235321,22.3001949 11.7089844,22.3001949 Z" id="Shape" fill="#181819"></path>
                <path d="M16.0058594,17.1539961 L22.8808594,17.1539961 C23.3555298,17.1539961 23.7402344,16.7700415 23.7402344,16.2962963 C23.7402344,15.8225511 23.3555298,15.4385965 22.8808594,15.4385965 L16.0058594,15.4385965 C15.5311889,15.4385965 15.1464844,15.8225511 15.1464844,16.2962963 C15.1464844,16.7700415 15.5311889,17.1539961 16.0058594,17.1539961 Z" id="Shape" fill="#181819"></path>
                <path d="M26.296875,17.1539961 C26.7712097,17.1539961 27.15625,16.7697064 27.15625,16.2962963 C27.15625,15.8228862 26.7712097,15.4385965 26.296875,15.4385965 C25.8225403,15.4385965 25.4375,15.8228862 25.4375,16.2962963 C25.4375,16.7697064 25.8225403,17.1539961 26.296875,17.1539961 Z" id="Shape" fill="#181819"></path>
                <path d="M2.68655398,31.3918129 L5.24588015,31.3918129 C6.13446041,33.3507858 7.45776367,35.1033748 9.10971067,36.5055129 L9.10971067,41.2332481 C9.10971067,42.7141203 10.3121643,43.914565 11.795929,43.914565 L14.0024414,43.914565 C15.0971374,43.914565 15.9847107,43.028722 15.9847107,41.9361598 L15.9847107,39.7406494 C16.8320007,39.8914169 17.6950684,39.9691459 18.5628357,39.9691459 L23.7190857,39.9691459 C24.5865173,39.9691459 25.449585,39.8914169 26.2972107,39.7406494 L26.2972107,41.9361598 C26.2972107,43.028722 27.1844482,43.914565 28.2791443,43.914565 L30.4856568,43.914565 C31.9694213,43.914565 33.1722107,42.7141203 33.1722107,41.2332481 L33.1722107,36.5038377 C35.9806214,34.0928972 37.9246216,30.1622197 38.273407,26.1487878 C38.2878418,25.9836135 38.298584,25.8167641 38.3069763,25.6489096 C39.6460572,25.4820602 41.2395935,24.9342715 42.2302246,23.9459064 C44.0298767,22.1480872 44.4357299,19.5257371 43.51828,17.3630604 C43.2201843,16.6588084 42.7951966,16.0255848 42.2557373,15.4804763 C41.9479065,15.1695602 41.4507447,15.1115984 41.1029663,15.3776194 C40.6813354,15.7002619 40.6517944,16.3056774 41.014679,16.6678545 C41.4091186,17.0615253 41.7186279,17.5201937 41.9354858,18.0314632 C42.5897522,19.5743177 42.3010559,21.4485258 41.0150146,22.7330653 C40.4557495,23.2905702 39.3590393,23.752589 38.2878418,23.9207785 C37.824585,17.6833577 33.1151428,12.3217288 26.7994079,10.7534113 C27.5825806,9.61729408 28.0159607,8.26038623 28.0159607,6.86159844 C28.0159607,3.07800319 24.9316101,0 21.1409607,0 C17.3499756,0 14.2659607,3.07800319 14.2659607,6.86159844 C14.2659607,8.20812015 14.6708069,9.52180799 15.4032898,10.6344724 C14.1884155,10.9004934 13.0198669,11.3192921 11.909729,11.8885234 C10.9234619,9.92552995 8.91567995,8.62892912 6.67190554,8.57900833 C6.41275027,8.57096739 6.15460209,8.67214912 5.96728516,8.85441033 C5.77963255,9.03633652 5.67221067,9.28996101 5.67221067,9.54961625 L5.67221067,18.0049951 C4.94879155,19.3555373 4.44827273,20.796875 4.18005371,22.3001949 L2.68655398,22.3001949 C1.20278933,22.3001949 2.84217094e-14,23.5006396 2.84217094e-14,24.981512 L2.84217094e-14,28.7108309 C2.84217094e-14,30.1917032 1.20278933,31.3918129 2.68655398,31.3918129 Z M21.1621094,1.71539961 C24.0054322,1.71539961 26.3183594,4.02415329 26.3183594,6.86159844 C26.3183594,9.70909481 24.0047607,12.0077973 21.1621094,12.0077973 C18.3570557,12.0077973 16.0058594,9.75030462 16.0058594,6.86159844 C16.0058594,4.02415329 18.3191223,1.71539961 21.1621094,1.71539961 Z M1.71875,24.981512 C1.71875,24.4481299 2.15213015,24.0155945 2.68655398,24.0155945 L4.82727051,24.0155945 C5.3089905,24.0155945 5.7195435,23.6554276 5.78231809,23.1783321 C5.99246218,21.5885721 6.49264524,20.0705105 7.26809695,18.666027 C7.34832759,18.5236355 7.390625,18.3628168 7.390625,18.1989827 L7.390625,10.3791728 C8.88781738,10.6837232 10.1369324,11.7712598 10.6199951,13.2595029 C10.7119751,13.5382554 10.921112,13.7567008 11.1947021,13.8595578 C11.4666138,13.9617446 11.7673951,13.9352765 12.019165,13.7868543 C13.4804382,12.924799 15.0682678,12.3703094 16.7443848,12.1354471 C17.9783936,13.1613365 19.5232544,13.7231969 21.140625,13.7231969 C22.7109986,13.7231969 24.2202759,13.1904848 25.4368287,12.2171966 C31.7911682,13.3322064 36.5660706,18.700201 36.6070251,24.8521869 C36.609375,25.2384868 36.5939331,25.6244517 36.5610352,26.0000305 C36.2397766,29.6981908 34.4193115,33.3012001 31.804596,35.4079252 C31.5813599,35.5915266 31.453125,35.8619031 31.453125,36.1503716 L31.453125,41.2332481 C31.453125,41.7666302 31.0200806,42.1988304 30.4856568,42.1988304 L28.9115906,42.1988304 C28.4167786,42.1988304 28.0159607,41.7987939 28.0159607,41.3049464 L28.0159607,36.9343628 C28.0159607,36.6234467 27.8444213,36.3299525 27.5617676,36.1989522 C26.9219361,35.9017726 26.2972107,36.359771 26.2972107,36.9635113 L26.2972107,37.9947612 C25.4526062,38.165631 24.5885315,38.2534113 23.7190857,38.2534113 L18.5628357,38.2534113 C17.6930542,38.2534113 16.8289795,38.165631 15.9847107,37.9947612 L15.9847107,36.9903144 C15.9847107,36.5604593 15.678894,36.1761696 15.2525635,36.1148574 C14.7214966,36.0388036 14.2659607,36.4478862 14.2659607,36.9635113 L14.2659607,41.2332481 C14.2659607,41.7666302 13.8325806,42.1988304 13.2981568,42.1988304 L11.795929,42.1988304 C11.2615051,42.1988304 10.8284607,41.7666302 10.8284607,41.2332481 L10.8284607,36.1503716 C10.8284607,35.8558723 10.6955261,35.5818104 10.4702759,35.4035697 C8.78140261,34.0419713 7.45474245,32.2679398 6.63061523,30.2650767 C6.47921751,29.9075901 6.13076784,29.6764133 5.74237056,29.6764133 L2.68655398,29.6764133 C2.15213015,29.6764133 1.71875,29.244213 1.71875,28.7108309 L1.71875,24.981512 Z" id="Shape" fill="#181819"></path>
            </g>
        </g>
    </g>
</svg>