<?xml version="1.0" encoding="UTF-8"?>
<svg width="31px" height="44px" viewBox="0 0 31 44" version="1.1" xmlns="http://www.w3.org/2000/svg" xmlns:xlink="http://www.w3.org/1999/xlink">
    <!-- Generator: Sketch 51.3 (57544) - http://www.bohemiancoding.com/sketch -->
    <title>ribbon</title>
    <desc>Created with Sketch.</desc>
    <defs></defs>
    <g id="Page-1" stroke="none" stroke-width="1" fill="none" fill-rule="evenodd">
        <g id="product-catalog---2" transform="translate(-375.000000, -963.000000)" fill="#181819" fill-rule="nonzero">
            <g id="ribbon" transform="translate(375.000000, 963.000000)">
                <path d="M9.47796627,10.3125 C9.95230105,10.3125 10.3373413,9.9274597 10.3373413,9.453125 C10.3373413,8.9787903 9.95230105,8.59375 9.47796627,8.59375 C9.00363157,8.59375 8.61859127,8.9787903 8.61859127,9.453125 C8.61859127,9.9274597 9.00363157,10.3125 9.47796627,10.3125 Z" id="Shape"></path>
                <path d="M30.9875183,15.4935913 C30.9875183,13.90979 30.1576843,12.4642944 28.8491516,11.6522522 C29.0529174,11.1315918 29.1586609,10.5746765 29.1586609,10.0056763 C29.1586609,7.78842161 27.5637818,5.93371582 25.4301147,5.55706783 C25.055481,3.44152832 23.203125,1.82952877 20.9818421,1.82952877 C20.4125061,1.82952877 19.8555908,1.93493652 19.3352662,2.13870241 C18.5232239,0.829833984 17.0777282,0 15.4935913,0 C13.90979,0 12.4639587,0.829833984 11.6522522,2.13870241 C11.1315918,1.93493652 10.5750122,1.82952877 10.0056763,1.82952877 C8.79684446,1.82952877 7.66119389,2.30084233 6.80853267,3.15652468 C6.14755247,3.81985476 5.71820064,4.65203853 5.56176758,5.55572514 C4.65472408,5.71383665 3.819519,6.14520259 3.15451048,6.80886843 C2.29949947,7.66253658 1.82885742,8.79785156 1.82885742,10.0056763 C1.82885742,10.5746765 1.93426509,11.1315918 2.13836666,11.6522522 C0.829833984,12.4639587 -5.68434189e-14,13.90979 -5.68434189e-14,15.4935913 C-5.68434189e-14,17.0780639 0.829833984,18.5238952 2.13836666,19.3356018 C1.93426509,19.8565979 1.82885742,20.4128418 1.82885742,20.9815064 C1.82885742,23.203125 3.43984987,25.055481 5.55505371,25.4307861 C5.78567507,26.7487182 6.58932493,27.8947754 7.75921627,28.5621338 L7.75921627,43.140625 C7.75921627,43.4884033 7.96868892,43.8016052 8.28961186,43.9345398 C8.61087038,44.0674743 8.98046875,43.9939576 9.22619629,43.7482299 L15.4935913,37.4811706 L21.7609863,43.7482299 C22.0070495,43.9942932 22.3763122,44.0674743 22.6975708,43.9345398 C23.0184936,43.8016052 23.2279663,43.4884033 23.2279663,43.140625 L23.2279663,28.5611267 C24.3961792,27.894104 25.1941223,26.7493896 25.4176941,25.4341431 C26.3254089,25.2773743 27.1616211,24.847351 27.8279724,24.184021 C28.6860046,23.3296814 29.1586609,22.1923523 29.1586609,20.9815064 C29.1586609,20.4128418 29.0529174,19.8562623 28.8491516,19.3356018 C30.1576843,18.5238952 30.9875183,17.0780639 30.9875183,15.4935913 Z M9.47796627,29.1271057 C9.65219114,29.1472473 9.82809446,29.1586609 10.0056763,29.1586609 C10.4122009,29.1586609 10.811676,29.1039428 11.1967163,28.9988708 L11.1967163,39.34729 L9.47796627,41.06604 L9.47796627,29.1271057 Z M14.8859863,35.6580201 L12.9154663,37.6282044 L12.9154663,30.1764831 C13.6533203,30.6917725 14.5466003,30.9881897 15.4935913,30.9881897 C16.4352112,30.9881897 17.3301697,30.6924439 18.0717163,30.1774902 L18.0717163,37.62854 L16.101532,35.6580201 C15.7658386,35.3223267 15.2216797,35.3223267 14.8859863,35.6580201 Z M19.7904663,39.3469544 L19.7904663,28.9988708 C20.1758423,29.1039428 20.5756531,29.1586609 20.9818421,29.1586609 C21.1590882,29.1586609 21.3349915,29.1472473 21.5092163,29.1267701 L21.5092163,41.06604 L19.7904663,39.3469544 Z M27.3966064,18.1368408 C27.1458435,18.2247924 26.9497986,18.4238587 26.8658753,18.6763001 C26.7819519,18.9284057 26.8195495,19.2053528 26.9675904,19.426239 C27.2767639,19.8868103 27.4399109,20.4245911 27.4399109,20.9818421 C27.4399109,21.7321167 27.1471863,22.436737 26.615448,22.9657898 C26.0863952,23.492157 25.3851318,23.7815247 24.6392212,23.7815247 C24.6335144,23.7815247 24.6281433,23.7815247 24.6221009,23.7815247 C24.3934936,23.7815247 24.1742859,23.8724975 24.0128174,24.0346374 C23.8506775,24.1974487 23.7607116,24.4186706 23.7627259,24.6486206 C23.7727966,25.7849426 23.0977173,26.7987366 22.0426331,27.231781 C22.0422974,27.231781 22.0422974,27.231781 22.0422974,27.231781 C21.7059326,27.369751 21.3490906,27.4399109 20.9818421,27.4399109 C20.4242553,27.4399109 19.8858033,27.2767639 19.4245605,26.967926 C19.3023682,26.8863525 19.1627197,26.8396911 19.0197143,26.8276062 C19.019043,26.8272705 19.0183716,26.8272705 19.0177002,26.8272705 C18.9952087,26.8252564 18.9727173,26.8239135 18.9502259,26.8239135 C18.9438477,26.8235779 18.9378052,26.8229065 18.931427,26.8229065 C18.5131531,26.8229065 18.1650391,27.1216736 18.0881653,27.5174561 C17.6638489,28.5688477 16.6342773,29.2694397 15.493927,29.2694397 C14.3126221,29.2694397 13.2659302,28.5295716 12.8792115,27.4264831 C12.8483276,27.3234252 12.7986451,27.2290954 12.7338562,27.1465149 C12.7335205,27.1461792 12.7331848,27.1455078 12.7325134,27.1448365 C12.7153931,27.1230163 12.6976013,27.1022034 12.6784668,27.0823975 C12.6757812,27.0797119 12.6734314,27.0766907 12.6710815,27.0740051 C12.6546325,27.0572204 12.6371765,27.0414428 12.6193848,27.0263366 C12.6140137,27.021637 12.6089782,27.0162659 12.6032715,27.0115661 C12.5979004,27.0072021 12.591858,27.0031738 12.5861511,26.9988098 C12.496521,26.9279785 12.3931275,26.8742676 12.2803345,26.8437195 C12.0386353,26.7779236 11.780487,26.8208923 11.5730286,26.9608764 C11.1101074,27.2744141 10.5679626,27.4399109 10.0056763,27.4399109 C9.63775639,27.4399109 9.28057866,27.3700866 8.94454954,27.2324524 C7.8871155,26.7990723 7.20465092,25.7822571 7.20599361,24.6419068 C7.20632937,24.413971 7.11569212,24.1950989 6.9545593,24.0336303 C6.79342649,23.8721618 6.57455442,23.7815247 6.34661861,23.7815247 C4.80310059,23.7815247 3.54760742,22.5256958 3.54760742,20.9818421 C3.54760742,20.4249268 3.71109011,19.8868103 4.019928,19.426239 C4.16796875,19.2053528 4.20556641,18.9284057 4.12164311,18.6763001 C4.03771973,18.4238587 3.8416748,18.2247924 3.59091184,18.1368408 C2.47137447,17.7437439 1.71908567,16.6816101 1.71908567,15.4935913 C1.71908567,14.3062439 2.4710388,13.2444458 3.59091184,12.8516846 C3.8416748,12.763733 4.03771973,12.5643311 4.12164311,12.3122253 C4.20556641,12.0597839 4.16796875,11.7828369 4.019928,11.5619506 C3.71109011,11.1013794 3.54760742,10.563263 3.54760742,10.0056763 C3.54760742,9.25741575 3.83932493,8.55413814 4.36904909,8.02542116 C4.89810183,7.49737553 5.60070801,7.20666504 6.34796147,7.20666504 L6.35433958,7.20666504 C6.58261106,7.20666504 6.80148313,7.11602788 6.96261595,6.9545593 C7.12408452,6.79275515 7.21472168,6.57321165 7.21371458,6.34426882 C7.2113647,5.59902956 7.49972532,4.89776616 8.02575684,4.36972044 C8.55380247,3.83999636 9.25708008,3.54827877 10.0056763,3.54827877 C10.5642701,3.54827877 11.1023865,3.71109011 11.5622864,4.01959233 C11.7828369,4.16763308 12.0597839,4.20523073 12.3122253,4.12130735 C12.5646667,4.03738405 12.763733,3.84133913 12.8516846,3.59057617 C13.2447815,2.4710388 14.3062439,1.71875 15.4935913,1.71875 C16.6809387,1.71875 17.7427369,2.4710388 18.1358337,3.59057617 C18.2237854,3.84133913 18.4231872,4.03738405 18.675293,4.12130735 C18.9277344,4.20523073 19.2043457,4.16763308 19.4252319,4.01959233 C19.8851318,3.71142578 20.4232483,3.54827877 20.9818421,3.54827877 C22.5250244,3.54827877 23.7805176,4.80410769 23.7805176,6.34729004 C23.7805176,6.82196041 24.1655579,7.20666504 24.6398926,7.20666504 C26.1948242,7.20666504 27.4399109,8.46282955 27.4399109,10.0056763 C27.4399109,10.5629272 27.2764283,11.1013794 26.9675904,11.5619506 C26.8195495,11.7828369 26.7819519,12.0597839 26.8658753,12.3122253 C26.9497986,12.5643311 27.1458435,12.7633972 27.3966064,12.8516846 C28.5164795,13.2444458 29.2684326,14.3062439 29.2684326,15.4935913 C29.2687683,16.6816101 28.5164795,17.7437439 27.3966064,18.1368408 Z" id="Shape"></path>
                <path d="M15.4935913,6.015625 C14.2810669,6.015625 13.0984192,6.24288938 11.9785462,6.69070437 C11.5377807,6.86694336 11.3236084,7.36712642 11.4998474,7.80755611 C11.6760865,8.24832155 12.1762695,8.46249387 12.6166992,8.28659055 C13.5328064,7.92001341 14.5006104,7.734375 15.4935913,7.734375 C19.7585755,7.734375 23.2279663,11.2041016 23.2279663,15.46875 C23.2279663,19.7333984 19.7585755,23.203125 15.4935913,23.203125 C11.2289428,23.203125 7.75921627,19.7333984 7.75921627,15.46875 C7.75921627,14.475769 7.94519043,13.5079651 8.31143191,12.591858 C8.4876709,12.1510925 8.27349858,11.6509094 7.83273313,11.4746705 C7.39196777,11.298767 6.89212038,11.5126038 6.71554563,11.9533691 C6.26773073,13.0735779 6.04046627,14.2562256 6.04046627,15.46875 C6.04046627,20.6810608 10.2812805,24.921875 15.4935913,24.921875 C20.7062377,24.921875 24.9467163,20.6810608 24.9467163,15.46875 C24.9467163,10.2564392 20.7062377,6.015625 15.4935913,6.015625 Z" id="Shape"></path>
                <path d="M19.7904663,15.46875 C19.7904663,15.9434205 20.1755066,16.328125 20.6498413,16.328125 C21.1245117,16.328125 21.5092163,15.9434205 21.5092163,15.46875 C21.5092163,12.1517639 18.8105774,9.453125 15.4935913,9.453125 C15.0192566,9.453125 14.6342163,9.83782955 14.6342163,10.3125 C14.6342163,10.7871705 15.0192566,11.171875 15.4935913,11.171875 C17.862915,11.171875 19.7904663,13.0994263 19.7904663,15.46875 Z" id="Shape"></path>
            </g>
        </g>
    </g>
</svg>