<?xml version="1.0" encoding="UTF-8"?>
<svg width="44px" height="42px" viewBox="0 0 44 42" version="1.1" xmlns="http://www.w3.org/2000/svg" xmlns:xlink="http://www.w3.org/1999/xlink">
    <!-- Generator: Sketch 51.3 (57544) - http://www.bohemiancoding.com/sketch -->
    <title>shopping-cart</title>
    <desc>Created with Sketch.</desc>
    <defs></defs>
    <g id="Page-1" stroke="none" stroke-width="1" fill="none" fill-rule="evenodd">
        <g id="product-catalog---2" transform="translate(-670.000000, -964.000000)" fill="#181819" fill-rule="nonzero">
            <g id="shopping-cart" transform="translate(670.000000, 964.000000)">
                <path d="M33.9649123,37.7387914 C34.4383223,37.7387914 34.8226121,37.3545017 34.8226121,36.8810916 C34.8226121,36.4076816 34.4383223,36.0233918 33.9649123,36.0233918 C33.4915022,36.0233918 33.1072125,36.4076816 33.1072125,36.8810916 C33.1072125,37.3545017 33.4915022,37.7387914 33.9649123,37.7387914 Z" id="Shape"></path>
                <path d="M19.7270955,37.7387914 C20.2005056,37.7387914 20.5847953,37.3545017 20.5847953,36.8810916 C20.5847953,36.4076816 20.2005056,36.0233918 19.7270955,36.0233918 C19.2536855,36.0233918 18.8693957,36.4076816 18.8693957,36.8810916 C18.8693957,37.3545017 19.2536855,37.7387914 19.7270955,37.7387914 Z" id="Shape"></path>
                <path d="M43.7326388,10.622411 C43.570145,10.4140168 43.3205409,10.2923977 43.0565302,10.2923977 L12.1790022,10.2923977 L10.2240497,1.9834308 C9.9486477,0.81548485 8.9184028,0 7.71929825,0 L2.57309942,0 C1.15420929,0 0,1.15420929 0,2.57309942 C0,3.99198954 1.15420929,5.14619883 2.57309942,5.14619883 L5.68125607,5.14619883 L12.0761452,32.3245614 C12.3515472,33.4925074 13.3817921,34.3079922 14.5808967,34.3079922 L16.2986416,34.3079922 C15.7588938,35.0253107 15.4385965,35.9165144 15.4385965,36.8810916 C15.4385965,39.2457967 17.3623904,41.1695906 19.7270955,41.1695906 C22.0918006,41.1695906 24.0155945,39.2457967 24.0155945,36.8810916 C24.0155945,35.9165144 23.6952973,35.0253107 23.1555494,34.3079922 L30.5364584,34.3079922 C29.9967105,35.0253107 29.6764133,35.9165144 29.6764133,36.8810916 C29.6764133,39.2457967 31.6002072,41.1695906 33.9649123,41.1695906 C36.3296174,41.1695906 38.2534113,39.2457967 38.2534113,36.8810916 C38.2534113,35.9165144 37.933114,35.0253107 37.3933662,34.3079922 L37.3957115,34.3079922 C38.8146016,34.3079922 39.9688109,33.1537829 39.9688109,31.7348928 C39.9688109,30.3160027 38.8146016,29.1617934 37.3957115,29.1617934 L16.6189389,29.1617934 L15.8114949,25.7309942 L20.839425,25.7309942 L20.8411001,25.7309942 L20.8424403,25.7309942 L33.3641874,25.7309942 L33.3658626,25.7309942 L33.3675377,25.7309942 L38.2862451,25.7309942 C39.4685977,25.7309942 40.4954922,24.9295809 40.7829557,23.7817374 L43.8887671,11.3581567 C43.9527595,11.1018519 43.8951328,10.8304703 43.7326388,10.622411 Z M40.6713876,17.1539961 L35.1938353,17.1539961 L35.8371101,12.0077973 L41.9579374,12.0077973 L40.6713876,17.1539961 Z M30.5341131,18.8693957 L33.2506092,18.8693957 L32.6073343,24.0155945 L27.9610136,24.0155945 L27.9610136,21.4424951 C27.9610136,20.96875 27.577059,20.5847953 27.1033138,20.5847953 C26.6295687,20.5847953 26.245614,20.96875 26.245614,21.4424951 L26.245614,24.0155945 L21.5992934,24.0155945 L20.9560185,18.8693957 L23.6725146,18.8693957 C24.1462598,18.8693957 24.5302144,18.4854411 24.5302144,18.0116959 C24.5302144,17.5379507 24.1462598,17.1539961 23.6725146,17.1539961 L20.7415936,17.1539961 L20.0983187,12.0077973 L26.245614,12.0077973 L26.245614,14.5808967 C26.245614,15.0546419 26.6295687,15.4385965 27.1033138,15.4385965 C27.577059,15.4385965 27.9610136,15.0546419 27.9610136,14.5808967 L27.9610136,12.0077973 L34.108309,12.0077973 L33.4650341,17.1539961 L30.5341131,17.1539961 C30.0603679,17.1539961 29.6764133,17.5379507 29.6764133,18.0116959 C29.6764133,18.4854411 30.0603679,18.8693957 30.5341131,18.8693957 Z M15.4077729,24.0155945 L14.1969421,18.8693957 L19.2272173,18.8693957 L19.8704922,24.0155945 L15.4077729,24.0155945 Z M18.3695175,12.0077973 L19.0127924,17.1539961 L13.79322,17.1539961 L12.5827242,12.0077973 L18.3695175,12.0077973 Z M22.3001949,36.8810916 C22.3001949,38.2999817 21.1459856,39.454191 19.7270955,39.454191 C18.3082054,39.454191 17.1539961,38.2999817 17.1539961,36.8810916 C17.1539961,35.4622015 18.3082054,34.3079922 19.7270955,34.3079922 C21.1459856,34.3079922 22.3001949,35.4622015 22.3001949,36.8810916 Z M36.5380117,36.8810916 C36.5380117,38.2999817 35.3838024,39.454191 33.9649123,39.454191 C32.5460222,39.454191 31.3918129,38.2999817 31.3918129,36.8810916 C31.3918129,35.4622015 32.5460222,34.3079922 33.9649123,34.3079922 C35.3838024,34.3079922 36.5380117,35.4622015 36.5380117,36.8810916 Z M37.3957115,30.877193 C37.8687865,30.877193 38.2534113,31.2618177 38.2534113,31.7348928 C38.2534113,32.2079678 37.8687865,32.5925926 37.3957115,32.5925926 L14.5808967,32.5925926 C14.1811952,32.5925926 13.8377803,32.3205409 13.7459795,31.9312256 L7.03983918,3.43079922 L2.57309942,3.43079922 C2.10002437,3.43079922 1.71539961,3.04617446 1.71539961,2.57309942 C1.71539961,2.10002437 2.10002437,1.71539961 2.57309942,1.71539961 L7.71929825,1.71539961 C8.11899973,1.71539961 8.46241467,1.98745127 8.5542154,2.37676661 L13.8880361,25.0451693 C13.8883711,25.0465095 13.8887062,25.0478496 13.8890412,25.0495249 L15.2603558,30.877193 L37.3957115,30.877193 Z M39.118817,23.3652839 C39.0229958,23.7482334 38.680586,24.0155945 38.2859101,24.0155945 L34.3361355,24.0155945 L34.9794103,18.8693957 L40.2428728,18.8693957 L39.118817,23.3652839 Z" id="Shape"></path>
                <path d="M27.1033138,17.1539961 C26.6299038,17.1539961 26.245614,17.5382858 26.245614,18.0116959 C26.245614,18.485106 26.6299038,18.8693957 27.1033138,18.8693957 C27.5767239,18.8693957 27.9610136,18.485106 27.9610136,18.0116959 C27.9610136,17.5382858 27.5767239,17.1539961 27.1033138,17.1539961 Z" id="Shape"></path>
            </g>
        </g>
    </g>
</svg>