<?xml version="1.0" encoding="UTF-8"?>
<svg width="36px" height="44px" viewBox="0 0 36 44" version="1.1" xmlns="http://www.w3.org/2000/svg" xmlns:xlink="http://www.w3.org/1999/xlink">
    <!-- Generator: Sketch 51.3 (57544) - http://www.bohemiancoding.com/sketch -->
    <title>stopwatch</title>
    <desc>Created with Sketch.</desc>
    <defs></defs>
    <g id="Page-1" stroke="none" stroke-width="1" fill="none" fill-rule="evenodd">
        <g id="product-catalog---2" transform="translate(-970.000000, -963.000000)" fill-rule="nonzero">
            <g id="stopwatch" transform="translate(970.000000, 963.000000)">
                <path d="M35.1428571,25.953125 C35.1428571,35.4458619 27.4680804,43.140625 18,43.140625 C8.5319196,43.140625 0.857142857,35.4458619 0.857142857,25.953125 C0.857142857,16.4926147 8.49810266,8.765625 18,8.765625 C27.4690848,8.765625 35.1428571,16.4597168 35.1428571,25.953125 Z" id="Shape" fill="#DEE7F0"></path>
                <path d="M30,25.953125 C30,32.5874329 24.6174107,37.984375 18,37.984375 C11.3829241,37.984375 6,32.5877686 6,25.953125 C6,19.3188171 11.3825893,13.921875 18,13.921875 C24.6170759,13.921875 30,19.3184814 30,25.953125 Z" id="Shape"></path>
                <path d="M23.1428571,2.578125 L23.1428571,4.8125 C21.8460938,4.8125 14.1522321,4.8125 12.8571429,4.8125 L12.8571429,2.578125 C12.8571429,1.62844851 13.6242188,0.859375 14.5714286,0.859375 L21.4285714,0.859375 C22.3757812,0.859375 23.1428571,1.62844851 23.1428571,2.578125 Z" id="Shape" fill="#DEE7F0"></path>
                <path d="M18,24.234375 C18.9462053,24.234375 19.7142857,25.0044556 19.7142857,25.953125 C19.7142857,26.9017944 18.9462053,27.671875 18,27.671875 C17.0537947,27.671875 16.2857143,26.9017944 16.2857143,25.953125 C16.2857143,25.0044556 17.0537947,24.234375 18,24.234375 Z" id="Shape" fill="#DEE7F0"></path>
                <path d="M17.1428571,32.828125 C17.1428571,33.3024597 17.5268973,33.6875 18,33.6875 C18.4731027,33.6875 18.8571429,33.3024597 18.8571429,32.828125 C18.8571429,32.3537903 18.4731027,31.96875 18,31.96875 C17.5268973,31.96875 17.1428571,32.3537903 17.1428571,32.828125 Z" id="Shape" fill="#181819"></path>
                <path d="M32.041741,14.6610717 L33.8872767,12.8107299 C34.8897321,11.8056641 34.8897321,10.170166 33.8872767,9.16510014 C32.8848214,8.16003418 31.2532366,8.16003418 30.2511161,9.16510014 L28.2810267,11.1403198 C26.2258929,9.70523073 23.8831473,8.71191406 21.4285714,8.23522949 L21.4285714,5.671875 L23.1428571,5.671875 C23.6162947,5.671875 24,5.28717045 24,4.8125 L24,2.578125 C24,1.1564636 22.8465402,0 21.4285714,0 L14.5714286,0 C13.1534598,0 12,1.1564636 12,2.578125 L12,4.8125 C12,5.28717045 12.3837053,5.671875 12.8571429,5.671875 L14.5714286,5.671875 L14.5714286,8.23522949 C12.1171875,8.71157839 9.77410714,9.70523073 7.71897326,11.1403198 L5.74888389,9.16510014 C4.74642857,8.16003418 3.11517857,8.16003418 2.11272326,9.16510014 C1.11026786,10.170166 1.11026786,11.8056641 2.11272326,12.8107299 L3.95792409,14.6610717 C1.40022326,17.8551941 0,21.8338318 0,25.953125 C0,35.9040833 8.07488837,44 18,44 C27.9251116,44 36,35.9040833 36,25.953125 C36,21.8338318 34.5997767,17.8551941 32.041741,14.6610717 Z M31.4631696,10.38031 C31.7973214,10.0456238 32.3410714,10.0456238 32.6752233,10.38031 C33.0090402,10.715332 33.0090402,11.260498 32.6752233,11.5955201 L30.9040179,13.3710022 C30.5049107,12.9601135 30.0863839,12.5683594 29.6511161,12.1974182 L31.4631696,10.38031 Z M13.7142857,2.578125 C13.7142857,2.10412598 14.0986607,1.71875 14.5714286,1.71875 L21.4285714,1.71875 C21.9013393,1.71875 22.2857143,2.10412598 22.2857143,2.578125 L22.2857143,3.953125 L13.7142857,3.953125 L13.7142857,2.578125 Z M19.7142857,5.671875 L19.7142857,7.98748775 C18.5779018,7.8807373 17.4224331,7.88040163 16.2857143,7.98748775 L16.2857143,5.671875 L19.7142857,5.671875 Z M3.32477674,10.38031 C3.65892857,10.0456238 4.20267857,10.0456238 4.5368304,10.38031 L6.34888389,12.1974182 C5.91361611,12.5683594 5.49508929,12.9601135 5.09598214,13.3710022 L3.32477674,11.5955201 C2.9909598,11.260498 2.9909598,10.715332 3.32477674,10.38031 Z M18,42.28125 C9.02008929,42.28125 1.71428571,34.9564209 1.71428571,25.953125 C1.71428571,21.9815368 3.15234377,18.1549682 5.76328123,15.1777038 C6.48247766,14.3579407 7.28504469,13.6083374 8.14854909,12.949707 C10.3125,11.298767 12.8738839,10.2121277 15.5558036,9.80694584 C16.3587053,9.68643191 17.1806919,9.625 18,9.625 C18.8193081,9.625 19.6412947,9.68643191 20.4438616,9.80694584 C23.1261161,10.2121277 25.6875,11.298767 27.8517857,12.949707 C28.7149553,13.6083374 29.5175223,14.3579407 30.2367188,15.1777038 C32.8476562,18.1549682 34.2857143,21.9815368 34.2857143,25.953125 C34.2857143,34.9564209 26.9799107,42.28125 18,42.28125 Z" id="Shape" fill="#181819"></path>
                <path d="M18,28.53125 C19.4179688,28.53125 20.5714286,27.3747864 20.5714286,25.953125 C20.5714286,24.8329163 19.8549107,23.8775329 18.8571429,23.5227051 L18.8571429,17.359375 C18.8571429,16.8847045 18.4734375,16.5 18,16.5 C17.5265625,16.5 17.1428571,16.8847045 17.1428571,17.359375 L17.1428571,23.5227051 C16.1450893,23.8775329 15.4285714,24.8329163 15.4285714,25.953125 C15.4285714,27.3747864 16.5820312,28.53125 18,28.53125 Z M18,25.09375 C18.4727679,25.09375 18.8571429,25.479126 18.8571429,25.953125 C18.8571429,26.427124 18.4727679,26.8125 18,26.8125 C17.5272321,26.8125 17.1428571,26.427124 17.1428571,25.953125 C17.1428571,25.479126 17.5272321,25.09375 18,25.09375 Z" id="Shape" fill="#181819"></path>
                <path d="M27.1309152,16.8863831 C27.1175223,16.8709411 27.1041295,16.8551635 27.0890625,16.8403931 C27.072991,16.8239441 27.0559152,16.8091736 27.0388393,16.7947388 C25.528125,15.2958679 23.6618304,14.1870728 21.6364955,13.5875244 C21.1824777,13.4525756 20.7056919,13.7130737 20.5717634,14.168274 C20.4378348,14.6234741 20.6969866,15.1015014 21.1510045,15.2357788 C22.6516741,15.6802369 24.0515625,16.4483033 25.2448661,17.4738464 L24.6666295,18.0535889 C24.3321429,18.3892822 24.3321429,18.9334411 24.6666295,19.2691345 C24.8340402,19.4369812 25.0533482,19.5209046 25.272991,19.5209046 C25.4922991,19.5209046 25.7116071,19.4369812 25.8790179,19.2691345 L26.4585938,18.6880494 C28.0094866,20.4960937 28.9305804,22.7217408 29.1100447,25.0940857 L28.2857143,25.0940857 C27.8122767,25.0940857 27.4285714,25.4787903 27.4285714,25.9534607 C27.4285714,26.4277955 27.8122767,26.8128357 28.2857143,26.8128357 L29.1100447,26.8128357 C28.9305804,29.184845 28.0094866,31.4104919 26.4585938,33.2185364 L25.8790179,32.6374512 C25.5441964,32.3020935 25.0014509,32.3020935 24.6666295,32.6374512 C24.3318081,32.9731445 24.3318081,33.5173034 24.6666295,33.8529968 L25.2462053,34.4337464 C23.4428571,35.988678 21.222991,36.9125061 18.8571429,37.0924378 L18.8571429,36.265625 C18.8571429,35.7909545 18.4734375,35.40625 18,35.40625 C17.5265625,35.40625 17.1428571,35.7909545 17.1428571,36.265625 L17.1428571,37.0921021 C14.777009,36.9121705 12.5571429,35.988678 10.7537947,34.4337464 L11.3333705,33.8526611 C11.6681919,33.5169678 11.6681919,32.9728089 11.3333705,32.6371155 C10.9985491,32.3017578 10.4561384,32.3017578 10.1209821,32.6371155 L9.54140623,33.2182006 C7.99051337,31.4101562 7.0694196,29.1845092 6.88995531,26.8125 L7.71428571,26.8125 C8.18772326,26.8125 8.57142857,26.4274597 8.57142857,25.953125 C8.57142857,25.4784545 8.18772326,25.09375 7.71428571,25.09375 L6.88995531,25.09375 C7.0694196,22.721405 7.99051337,20.4957581 9.54140623,18.6877136 L10.1209821,19.2687988 C10.2883929,19.4366455 10.5077009,19.5205689 10.727009,19.5205689 C10.9466518,19.5205689 11.1659598,19.4366455 11.3333705,19.2687988 C11.6678571,18.9331055 11.6678571,18.3889466 11.3333705,18.0532532 L10.7551339,17.4735107 C11.9484375,16.4479675 13.3483259,15.6799011 14.8489955,15.2357788 C15.3030134,15.1011657 15.5621652,14.6231384 15.4282366,14.1679382 C15.2943081,13.712738 14.8175223,13.4529114 14.3635045,13.5871887 C12.3164062,14.1934509 10.4313616,15.318695 8.91227674,16.8417358 C6.48147326,19.2792053 5.14285714,22.5149537 5.14285714,25.953125 C5.14285714,29.3704834 6.46607143,32.5874329 8.8690848,35.0195312 C8.88247766,35.0353089 8.89587051,35.0510865 8.91093754,35.0658569 C8.9256696,35.0806275 8.94107143,35.0940552 8.95647326,35.107483 C11.3825893,37.5170898 14.5911831,38.84375 18,38.84375 C21.429241,38.84375 24.6565848,37.5016479 27.0873884,35.0641784 C29.5185267,32.6270447 30.8571429,29.3912963 30.8571429,25.953125 C30.8571429,22.5357666 29.5339286,19.3184814 27.1309152,16.8863831 Z" id="Shape" fill="#181819"></path>
                <path d="M18,14.78125 C18.4731027,14.78125 18.8571429,14.3962097 18.8571429,13.921875 C18.8571429,13.4475403 18.4731027,13.0625 18,13.0625 C17.5268973,13.0625 17.1428571,13.4475403 17.1428571,13.921875 C17.1428571,14.3962097 17.5268973,14.78125 18,14.78125 Z" id="Shape" fill="#181819"></path>
            </g>
        </g>
    </g>
</svg>