<?xml version="1.0" encoding="UTF-8"?>
<svg width="23px" height="23px" viewBox="0 0 23 23" version="1.1" xmlns="http://www.w3.org/2000/svg" xmlns:xlink="http://www.w3.org/1999/xlink">
    <!-- Generator: Sketch 51.3 (57544) - http://www.bohemiancoding.com/sketch -->
    <title>bus</title>
    <desc>Created with Sketch.</desc>
    <defs></defs>
    <g id="Page-1" stroke="none" stroke-width="1" fill="none" fill-rule="evenodd">
        <g id="bus" fill="#181819" fill-rule="nonzero">
            <g id="Group">
                <path d="M6.32857778,16.7690444 C5.75715556,16.7690444 5.2831,16.3090444 5.2831,15.7235667 C5.2831,15.1521444 5.75715556,14.6780889 6.32857778,14.6780889 L7.72263333,14.6780889 C8.29405556,14.6780889 8.76811111,15.1521444 8.76811111,15.7235667 C8.76811111,16.3090444 8.29405556,16.7690444 7.72263333,16.7690444 L6.32857778,16.7690444 Z" id="Shape"></path>
                <path d="M17.7031,15.7235667 C17.7031,16.3090444 17.2431,16.7690444 16.6576222,16.7690444 L15.2635667,16.7690444 C14.6921444,16.7690444 14.2180889,16.3090444 14.2180889,15.7235667 C14.2180889,15.1521444 14.6921444,14.6780889 15.2635667,14.6780889 L16.6576222,14.6780889 C17.2431,14.6780889 17.7031,15.1521444 17.7031,15.7235667 Z" id="Shape"></path>
                <path d="M13.34,2.9831 L13.6885778,2.9831 C14.26,2.9831 14.7340556,3.45715556 14.7340556,4.02857778 C14.7340556,4.61405556 14.26,5.07405556 13.6885778,5.07405556 L13.34,5.07405556 C12.7545222,5.07405556 12.2945222,4.61405556 12.2945222,4.02857778 C12.2945222,3.4569 12.7545222,2.9831 13.34,2.9831 Z" id="Shape"></path>
                <path d="M10.7473889,2.9831 C11.3328667,2.9831 11.7928667,3.45715556 11.7928667,4.02857778 C11.7928667,4.61405556 11.3328667,5.07405556 10.7473889,5.07405556 L6.32857778,5.07405556 C5.75715556,5.07405556 5.2831,4.61405556 5.2831,4.02857778 C5.2831,3.45715556 5.75715556,2.9831 6.32857778,2.9831 L10.7473889,2.9831 Z" id="Shape"></path>
                <path d="M16.3090444,20.5607222 L16.3090444,20.2121444 L15.6121444,20.2121444 L15.6121444,20.5607222 C15.6121444,20.7559667 15.7795333,20.9093 15.9607222,20.9093 C16.1557111,20.9090444 16.3090444,20.7557111 16.3090444,20.5607222 Z M7.3738,20.5607222 L7.3738,20.2121444 L6.6769,20.2121444 L6.6769,20.5607222 C6.6769,20.7559667 6.83023333,20.9093 7.02547778,20.9093 C7.22072222,20.9090444 7.3738,20.7557111 7.3738,20.5607222 Z M5.92428889,2.09095556 C4.96237778,2.09095556 4.18191111,2.87167778 4.18191111,3.83333333 L4.18191111,11.2490444 L18.8183444,11.2490444 L18.8183444,3.83333333 C18.8183444,2.87142222 18.0376222,2.09095556 17.0759667,2.09095556 L5.92428889,2.09095556 Z M5.92428889,18.1211889 L8.41953333,18.1211889 L14.5666667,18.1211889 L17.0757111,18.1211889 C18.0376222,18.1211889 18.8180889,17.3404667 18.8180889,16.3788111 L18.8180889,13.34 L4.18191111,13.34 L4.18191111,16.3788111 C4.18191111,17.3407222 4.96237778,18.1211889 5.92428889,18.1211889 Z M0,5.92428889 C0,4.51643333 0.92,3.33167778 2.20237778,2.92738889 C2.60666667,1.24072222 4.12594444,0 5.92428889,0 L17.0757111,0 C18.8738,0 20.3933333,1.24072222 20.7976222,2.92738889 C22.0659444,3.33142222 23,4.51643333 23,5.92428889 L23,7.36 C23,7.94547778 22.5259444,8.40547778 21.9545222,8.40547778 C21.3690444,8.40547778 20.9090444,7.94547778 20.9090444,7.36 L20.9090444,12.2945222 L20.9090444,16.3788111 C20.9090444,18.0376222 19.8635667,19.4314222 18.4,19.9752444 L18.4,20.5607222 C18.4,21.9126111 17.3126111,23 15.9604667,23 C14.6223778,23 13.5211889,21.9126111 13.5211889,20.5607222 L13.5211889,20.2121444 L9.46475556,20.2121444 L9.46475556,20.5607222 C9.46475556,21.9128667 8.37736667,23 7.02547778,23 C5.67358889,23 4.5862,21.9126111 4.5862,20.5607222 L4.5862,19.9614444 C3.12263333,19.4316778 2.09095556,18.0238222 2.09095556,16.3790667 L2.09095556,12.2945222 L2.09095556,7.36 C2.09095556,7.94547778 1.6169,8.40547778 1.04547778,8.40547778 C0.46,8.40547778 0,7.94547778 0,7.36 L0,5.92428889 Z" id="Shape"></path>
            </g>
        </g>
    </g>
</svg>