<?xml version="1.0" encoding="UTF-8"?>
<svg width="25px" height="25px" viewBox="0 0 25 25" version="1.1" xmlns="http://www.w3.org/2000/svg" xmlns:xlink="http://www.w3.org/1999/xlink">
    <!-- Generator: Sketch 51.3 (57544) - http://www.bohemiancoding.com/sketch -->
    <title>metro</title>
    <desc>Created with Sketch.</desc>
    <defs></defs>
    <g id="Page-1" stroke="none" stroke-width="1" fill="none" fill-rule="evenodd">
        <g id="metro" fill="#181819" fill-rule="nonzero">
            <g id="Group">
                <path d="M16.6666667,17.3772222 C16.8788889,17.5894444 17,17.8772222 17,18.1802778 C17,18.4680556 16.8788889,18.7711111 16.6666667,18.9833333 C16.4544444,19.1955556 16.1666667,19.3166667 15.8636111,19.3166667 C15.5605556,19.3166667 15.2727778,19.1955556 15.0605556,18.9833333 C14.8483333,18.7711111 14.7272222,18.4683333 14.7272222,18.1802778 C14.7272222,17.8772222 14.8483333,17.5894444 15.0605556,17.3772222 C15.2727778,17.165 15.5605556,17.0438889 15.8636111,17.0438889 C16.1666667,17.0438889 16.4544444,17.1652778 16.6666667,17.3772222 Z" id="Shape"></path>
                <path d="M9.92416667,17.3772222 C10.1363889,17.5894444 10.2575,17.8772222 10.2575,18.1802778 C10.2575,18.4680556 10.1363889,18.7711111 9.92416667,18.9833333 C9.71194444,19.1955556 9.42416667,19.3166667 9.12111111,19.3166667 C8.83333333,19.3166667 8.53027778,19.1955556 8.31805556,18.9833333 C8.10583333,18.7711111 7.98472222,18.4683333 7.98472222,18.1802778 C7.98472222,17.8772222 8.10583333,17.5894444 8.31805556,17.3772222 C8.53027778,17.165 8.83333333,17.0438889 9.12111111,17.0438889 C9.42416667,17.0438889 9.71222222,17.1652778 9.92416667,17.3772222 Z" id="Shape"></path>
                <path d="M17,10.8325 L17,14.6805556 C17,15.6805556 16.1819444,16.5136111 15.1666667,16.5136111 L9.81805556,16.5136111 C8.81805556,16.5136111 7.98472222,15.6802778 7.98472222,14.6805556 L7.98472222,10.8325 C7.98472222,9.8175 8.81805556,8.99944444 9.81805556,8.99944444 L15.1666667,8.99944444 C16.1819444,8.99916667 17,9.81722222 17,10.8325 Z M14.7272222,14.2411111 L14.7272222,11.2716667 L10.2575,11.2716667 L10.2575,14.2411111 L14.7272222,14.2411111 Z" id="Shape"></path>
                <path d="M19.9847222,15.1047222 L19.9847222,18.2558333 C19.9847222,18.9527778 19.8027778,19.6344444 19.5,20.2102778 C19.3030556,20.5586111 19.0605556,20.8919444 18.7877778,21.1647222 C18.5908333,21.3616667 18.3786111,21.5283333 18.1513889,21.6797222 L19.4847222,23.0736111 C19.9241667,23.5280556 19.9088889,24.2402778 19.4544444,24.6794444 C19.015,25.1188889 18.2877778,25.1036111 17.8483333,24.6491667 L15.6666667,22.3769444 L9.33333333,22.3769444 L7.13638889,24.6494444 C6.69694444,25.1038889 5.985,25.1191667 5.53027778,24.6797222 C5.07583333,24.2402778 5.06055556,23.5283333 5.5,23.0738889 L6.83333333,21.68 C6.28777778,21.3011111 5.81805556,20.8163889 5.5,20.2255556 C5.18194444,19.6347222 5,18.9680556 5,18.2561111 L5,15.1047222 L5,8.96888889 C4.98472222,7.8325 5.5,6.8025 6.30305556,6.19638889 C7.10611111,5.56 8.10611111,5.3025 9.12111111,5.3025 L14.2422222,5.3025 L15.8633333,5.3025 C16.8936111,5.3025 17.8786111,5.56 18.6813889,6.19638889 C19.4844444,6.8025 19.9994444,7.8325 19.9844444,8.96888889 L19.9844444,15.1047222 L19.9847222,15.1047222 Z M17.7122222,18.2561111 L17.7122222,8.96888889 C17.6969444,8.43861111 17.5608333,8.21138889 17.2727778,7.96888889 C17,7.75694444 16.5,7.575 15.8636111,7.575 L9.12111111,7.575 C8.5,7.575 8,7.75666667 7.71194444,7.98416667 C7.43916667,8.21138889 7.28777778,8.45388889 7.2725,8.96888889 L7.2725,18.2561111 C7.2725,19.2711111 8.10583333,20.1044444 9.12111111,20.1044444 L15.8636111,20.1044444 C16.8938889,20.1044444 17.7122222,19.2711111 17.7122222,18.2561111 Z" id="Shape"></path>
                <path d="M21.3636111,3.90888889 C23.6061111,6.3025 25,9.62027778 25,13.2563889 C25,16.5741667 23.8333333,19.6194444 21.9241667,21.9525 C21.515,22.4372222 20.8030556,22.5130556 20.3180556,22.1191667 C19.8333333,21.71 19.7575,20.9980556 20.1666667,20.5133333 C21.7575,18.5741667 22.7272222,16.0438889 22.7272222,13.2563889 C22.7272222,10.1961111 21.5605556,7.43861111 19.6969444,5.45388889 C17.8333333,3.48444444 15.3030556,2.2725 12.5,2.2725 C9.69694444,2.2725 7.15138889,3.48444444 5.28777778,5.45416667 C3.42416667,7.43888889 2.2725,10.1961111 2.2725,13.2566667 C2.2725,16.0444444 3.22694444,18.5744444 4.83305556,20.5136111 C5.22694444,20.9983333 5.15111111,21.7105556 4.66638889,22.1194444 C4.18166667,22.5133333 3.46944444,22.4375 3.07555556,21.9527778 C1.15138889,19.6194444 0,16.5744444 0,13.2563889 C0,9.62027778 1.37888889,6.3025 3.63638889,3.90861111 C5.87888889,1.5 9.03027778,0 12.5,0 C15.9697222,0 19.1061111,1.5 21.3636111,3.90888889 Z" id="Shape"></path>
            </g>
        </g>
    </g>
</svg>